<svg xmlns="http://www.w3.org/2000/svg" viewBox="0 0 1178.29 306.28"><defs><style>.cls-1{fill:#fff;}</style></defs><g id="Capa_2" data-name="Capa 2"><g id="abierto"><path class="cls-1" d="M1011.09,217.6a47.41,47.41,0,0,0-8.36.91c-2.78.43-5.56,1.62-8.27,1.46-2.22-.14-4.3-2.32-6.56-2.57a6.47,6.47,0,0,0-1.7,0,5.4,5.4,0,0,0-4.66,5.47,40.52,40.52,0,0,1-1.46,12.7,57,57,0,0,1-7.24,15.28l.82-.06c-3.42,6.45-6.07,13.28-11.89,18.2-2.48,2.08-2.47,4.92-.66,6.9a5.12,5.12,0,0,0,7.13.32,10.79,10.79,0,0,0,2.53-3c3.75-6.44,7.54-12.87,11-19.45,1.22-2.32,2.68-3.5,5.2-3.42l7.42.26a5.44,5.44,0,0,1,5,7.06c-.2.65-.42,1.28-.67,1.91-1.26,3.19-2.08,6.71-6.43,7.68-1.16.26-2.76,3.12-2.45,4.33a7.07,7.07,0,0,0,4,4c2.1.81,4-.42,4.9-2.67,1.33-3.3,2.6-6.61,4-9.87,4.23-9.82,8.62-19.56,12.68-29.43a29.24,29.24,0,0,0,2.16-9.23C1017.84,220.13,1015.39,217.7,1011.09,217.6Zm-3.83,15.65c-.5,2-1,3.85-1.53,5.71a2.8,2.8,0,0,1-2,1.54c-2.22.22-4.45.4-6.75.58l-2.32.19h-.43l-7.5.57c.83-2.71,1.56-5.17,2.28-7.51l0-.12c.19-.63.39-1.25.59-1.86a.21.21,0,0,1,0-.11c.36-1.14.72-2.26,1.09-3.37a2.83,2.83,0,0,1,2-1.54c1.15-.13,2.31-.22,3.47-.33l1.38-.12c1.32-.12,2.65-.22,4-.33l7.49-.58C1008.42,228.58,1007.84,231,1007.26,233.25Z"/><path class="cls-1" d="M1105.22,221.26c4.44.44,8.88,1,13.33,1.29a24.36,24.36,0,0,0,14.9-3.66,14,14,0,0,1,4-2c.89-.21,2.59.26,2.88.91.44,1,.44,2.81-.21,3.46a28.87,28.87,0,0,1-6.56,5.23c-12.32,6.64-18.1,18-22.3,30.5a90.12,90.12,0,0,0-3.2,12.52c-.65,3.65-.48,7.44-1,11.11-.27,1.87-.86,4.67-2.1,5.19-1.64.69-4.05-.38-6.11-.81-.48-.1-.89-.66-1.29-1.06-5.54-5.38-12.41-7.41-19.88-8.14-6.59-.64-8.51-3.82-6-9.92,3.88-9.36,7.89-18.65,11.94-27.93,1.09-2.5,1.78-4.52-.19-7.19-1.1-1.49-1.24-4.5-.52-6.32a28.82,28.82,0,0,1,5.31-8.52c3.92-4.35,11.17-3,14.18,2.1a23.06,23.06,0,0,0,3.07,3.44c-1.89.26-3.88-.54-5.23,2.06-7.56,14.46-15.35,28.8-23,43.21a16.63,16.63,0,0,0-.91,3.31c8.25-.06,16.19-1,23.35,4.24,5.06-19,10.25-37.06,25.75-50-3.2-.49-6.15-.18-9-.57C1112.61,223.15,1108.93,222.09,1105.22,221.26Z"/><path class="cls-1" d="M1006.67,262c1.24-4.09,1.92-8.45,3.82-12.2,4.3-8.52,9-16.85,13.9-25.06,3.69-6.23,5.08-6.27,12-4.48a31.92,31.92,0,0,0,10.47.54c2.86-.24,5.55-.27,6.83,2.42a7.74,7.74,0,0,1,.1,5.7c-1.18,2.75-4,3.32-6.76,2.69a102.37,102.37,0,0,1-12.91-3.7c-2.24-.83-3.41-.61-4.58,1.38-4.65,7.91-9.63,15.65-13.95,23.74-1.6,3-2.16,6.79-2.41,10.27-.3,4.33,1.59,5.9,5.8,6.71,9.83,1.87,12.66-.17,15.8-10.9.69-2.33.93-4.84,1.92-7A4.18,4.18,0,0,1,1040,250c1,.14,2.65,2,2.56,2.95-.63,6.84-.44,13.93-4.62,20-3.78,5.44-8.88,7.69-15.12,5.68a43.13,43.13,0,0,1-10.83-5.68A11.91,11.91,0,0,1,1006.67,262Z"/><path class="cls-1" d="M1047,276.15c2.57-7.53,4.8-14.45,7.3-21.27,4.12-11.23,8.32-22.43,12.76-33.53a8.4,8.4,0,0,1,4.43-4.29c1.22-.43,4.1.81,4.58,2a8.29,8.29,0,0,1-.18,6.23c-4.69,8.95-9.89,17.64-14.65,26.56-2.19,4.1-3.87,8.48-5.65,12.78a11.11,11.11,0,0,0,.18,9.77c1.19,2.3,2,4.85-.35,6.62-1.24.94-4,1.55-4.93.82C1048.88,280.5,1048.13,278.07,1047,276.15Z"/><path class="cls-1" d="M1123.75,284.2c-3.64,0-6-2.28-6-5.93a8.33,8.33,0,0,1,.5-3.31c2.25-5.14,4.46-10.32,7.07-15.28a6.33,6.33,0,0,1,4.19-2.83c2.28-.31,4.18,1,5.17,3.39,1.37,3.31,1.06,6.86-1.43,8.86-3,2.46-3.21,4.92-2.87,8.3C1130.72,281.31,1127.62,284.2,1123.75,284.2Z"/><path class="cls-1" d="M1143,279.11c-.84-.62-2.83-1.33-3.24-2.57a8.29,8.29,0,0,1,.29-5.73,40,40,0,0,1,5.68-8.09,8.64,8.64,0,0,1,4.46-2.52c.71-.15,2.56,1.53,2.55,2.37,0,1.65-.48,3.9-1.63,4.81-2.56,2-4,3.75-3.12,7.38C1148.53,277.1,1146.35,278.72,1143,279.11Z"/><path d="M796.64,306.2l-.92.08h0Z"/><path class="cls-1" d="M0,195.68V33.74H6.82q33.22,0,66.46,0c10,0,19.92.73,29.51,3.9,13.66,4.52,21.86,13.74,24,28.05,1.82,11.83.76,23.14-7.84,32.33-3.42,3.67-7.78,6.47-11.87,9.79a5.65,5.65,0,0,0,1.6,1.15c23.14,7.76,28.29,30.23,26.17,46.81-2.46,19.18-16.49,32.62-36.41,37.41a92.57,92.57,0,0,1-20.36,2.61c-24.81.3-49.63.13-74.44.12C2.62,195.91,1.55,195.78,0,195.68Zm35.65-28a27.68,27.68,0,0,0,3.05.4c12,0,23.93,0,35.9-.1a45.79,45.79,0,0,0,8.57-.94c10.26-2.12,15.76-8.3,16.34-18.1.74-12.52-3.69-20.22-14.1-23.35A47.13,47.13,0,0,0,73,123.93c-10.86-.22-21.72-.09-32.58-.05a45.12,45.12,0,0,0-4.75.49Zm0-68.42c12.68,0,24.6,0,36.53,0a34.76,34.76,0,0,0,5.29-.45C87.2,97.22,92.73,90.9,93,81.11c.23-10.36-4.31-16.31-14.36-18.41a51.23,51.23,0,0,0-9.88-1.05c-9.75-.14-19.51-.09-29.26,0a26.07,26.07,0,0,0-3.85.62Z"/><path class="cls-1" d="M230.05,133.94c.77-5.21,1.44-10.44,2.33-15.63,6-35.08,19-67.23,41.1-95.34,4.72-6,10.8-11.06,16.73-16a30.51,30.51,0,0,1,19-7c11.2-.33,19.39,5.31,21.93,16.26A94.82,94.82,0,0,1,333.21,46C331,72,322.8,96.11,310.56,119a126,126,0,0,1-26.88,34.37c-10.08,9.1-21.48,15.63-35.49,16.34a17.84,17.84,0,0,0-2.5.47c-.88,8.3,4.38,24.72,9.6,30.31,5.6,6,12.86,6.36,19.48.69a67.62,67.62,0,0,0,16.81-22,153.19,153.19,0,0,0,6.61-16.64c1.53-4.39,2.41-8.8.26-13.52-1.58-3.47-.5-7,2.49-9.62a8.75,8.75,0,0,1,9.93-1c3.47,2,4.76,5.17,4.41,9a18.52,18.52,0,0,1-1.28,5.11q-5.43,13.91-11,27.75c-4.53,11.2-10.58,21.43-19.2,30a28.13,28.13,0,0,1-18.84,8.69,23.76,23.76,0,0,1-19.14-7.51,35.58,35.58,0,0,1-9.33-15.87c-2-7.7-3.7-15.49-5.28-23.29-.55-2.71-1.13-5-3.76-6.56-13.42-8.08-20.26-20.82-23.86-35.4-8.05-32.64-5.84-64.57,7.6-95.55,3.65-8.42,8.42-16.07,15.2-22.37a27.18,27.18,0,0,1,15.28-7.43,17.44,17.44,0,0,1,18.8,22.78c-2.17,6.62-8,11.06-15.29,10.17-5-.62-7.26,1.2-9.14,5.32-11.91,26.2-15.47,53.4-10,81.69a86.85,86.85,0,0,0,2.8,9.2Zm13.2,13.35c8.83.83,15.5-1.29,23.81-8,30.19-24.51,45.25-57.19,50-95,.89-7.05-.79-14.52-1.95-21.68-.69-4.24-2.84-5.09-6.81-3.34a31.27,31.27,0,0,0-7.8,4.93c-29.15,25.46-48.37,56.75-55.13,95.14C243.8,128.41,242.39,137.6,243.25,147.29Z"/><path class="cls-1" d="M1002.84,87V36.27a2.36,2.36,0,0,1,2.33-2.35c4.63-.07,9.1-.14,13.57-.17s8.7,0,13,0a2.32,2.32,0,0,1,2.33,2.18c1.16,18.23,1.45,138.16.41,157.43a2.34,2.34,0,0,1-2.34,2.21H1007a2.35,2.35,0,0,1-2.35-2.35V182.53c-1.07.17-1.65.1-1.78.31-12.06,19.33-45.61,18.92-60.23,9.39-12.22-7.95-19.75-19-23.54-32.57-5.07-18.21-4.55-36.31,2.84-54a48.92,48.92,0,0,1,59.67-28.13,36,36,0,0,1,17.1,10.94l0,0A2.35,2.35,0,0,0,1002.84,87Zm-1.52,31.89c-3.42-12-12.32-18.67-24.18-19-12.81-.3-21.94,6-26.19,18.23a56.52,56.52,0,0,0-1.76,30.09,45.39,45.39,0,0,0,4.37,12.41c5.6,10.4,14.53,15.11,26.37,13.81,11.25-1.23,18-8.13,21.15-18.39C1008.48,136.92,1001.32,118.87,1001.32,118.87Z"/><path class="cls-1" d="M708.38,145.35h-84c.54,15.92,6.19,24.76,17.64,27.91,11.64,3.2,27,2.45,36.57-13.25h27.56c-5,16-13.67,28.37-29.28,34.14-19.08,7-38.14,6.85-56.53-3a50.31,50.31,0,0,1-24.44-29.41c-6.29-19-6.24-37.87,3.62-56,9-16.44,22.91-26,41.13-29.45a60.13,60.13,0,0,1,25.09.62C682.9,81,694.82,91.68,702.1,107.35,707.49,118.93,709.6,131.32,708.38,145.35Zm-33.09-21.28c-.23-15.47-10.17-24.67-25.64-24.16-15.2.5-25.11,10.21-24.55,24.16Z"/><path class="cls-1" d="M1056.75,137.48c-.17-14.11,3.13-27.22,11.45-38.77a53.3,53.3,0,0,1,33.17-21.5c15.32-3.29,30.31-2.49,44.69,4.41,16.3,7.83,26,20.9,30,38.21,3.85,16.4,2.84,32.44-4.61,47.86-6.3,13-16.28,22.13-29.73,26.88-18.23,6.44-36.51,6.3-54.14-2.47-18.19-9-27.21-24.52-30.17-44C1056.91,144.59,1057,141,1056.75,137.48Zm31.57-.15c1.19,6.39,1.78,12.83,3.65,18.88,3.76,12.15,12.85,18.42,25.33,18.43s21.56-6.13,25.57-18.19a59.7,59.7,0,0,0,0-38.45c-4-12-13.08-18.13-25.63-18.1s-21.56,6.4-25.25,18.51C1090.11,124.47,1089.51,130.9,1088.32,137.33Z"/><path class="cls-1" d="M376.79,195.62H344.92V79.05H375v14.7l1.86,1a11.36,11.36,0,0,1,1-2.52c8.52-12.16,20.89-16.56,35.06-16.88a57,57,0,0,1,12.54,1.26c15.46,3.09,25.45,13.81,27.86,29.91a118.94,118.94,0,0,1,1.42,16.52c.16,22.6.07,45.2.08,67.8v4.76H422.92c-.09-2.27-.26-4.59-.26-6.91,0-19.06.17-38.11-.12-57.16a85.3,85.3,0,0,0-2.4-18.34c-1.78-7.47-7.1-11.58-14.87-12a46.63,46.63,0,0,0-10.57.42c-7.91,1.45-13.46,6.33-15.15,14.07a120.73,120.73,0,0,0-2.65,23c-.38,16.39-.11,32.79-.11,49.19Z"/><path class="cls-1" d="M837.69,195.66H806c-.08-2.45-.22-4.79-.22-7.12,0-19.06.18-38.12-.13-57.17A83.49,83.49,0,0,0,803.21,113c-1.74-7.15-6.83-11.28-14.33-11.73a46.82,46.82,0,0,0-11.23.4c-7.91,1.46-13.39,6.45-15,14.18a122.5,122.5,0,0,0-2.59,23c-.37,16.39-.11,32.79-.12,49.19v7.48H728V79.84c4.58-1.45,20.67-1.77,30.31-.48v15a17.15,17.15,0,0,0,2.69-2.3c8.84-12.27,21.41-16.74,35.84-16.67,7.51,0,14.92,1.17,21.86,4.77,10.62,5.52,15.6,14.74,17.61,25.86a100.83,100.83,0,0,1,1.53,17.17c.17,22.82.08,45.64.07,68.46C837.89,192.76,837.78,193.85,837.69,195.66Z"/><path class="cls-1" d="M501.72,78.66C510,105.36,518,131.19,526,157l1.39-.09c8-25.86,16-51.73,24.14-77.88h32c-13.24,39.12-26.33,77.78-39.46,116.59H508c-13.21-38.55-26.45-77.19-39.83-116.22,5.67-1.5,11.14-.56,16.53-.73S495.74,78.66,501.72,78.66Z"/><path class="cls-1" d="M188.4,195.68H157.13V79.13H188.4Z"/><path class="cls-1" d="M863.54,78.93h31.18V195.44H863.54Z"/><path class="cls-1" d="M188.47,34.13V59.85H157.18V34.13Z"/><path class="cls-1" d="M894.86,34.1V59.88H863.51V34.1Z"/><path class="cls-1" d="M972.83,217.82l-.26-.24c-.06,0-.61-.44-.66-.47s-.32-.17-.47-.25-.69-.21-.77-.23a4.26,4.26,0,0,1-1.84-1c-5.9-.37-11.81-.72-17.71-1.19-11.08-.87-13,.6-15.18,11.38-1.34,6.55-3,13-4.84,20.91-3.3-11.13-9.67-14.38-18.92-10.46-4.16,1.76-7.94,4.44-11.89,6.7l-6.75,3.86c-.41-.44-.83-.87-1.24-1.3,3.26-8.42,8.66-15.64,14.29-22.65.68-.84,3.45-.75,4.84-.14,3.6,1.6,6.91,3.83,10.45,5.59s6.79,1.36,8.59-2.4c1.68-3.51.14-6.27-3.37-7.59-4.59-1.72-9.31-3.11-14-4.65-6.31-2.09-10.84-.94-14.54,4.63a144.07,144.07,0,0,0-9.41,16.52A30.59,30.59,0,0,0,886,245.51c-.5,6.27,4,9.67,10,7.7,4.68-1.54,9.06-4,13.69-5.73,2.56-1,5.36-1.32,8.7-2.1-.25,9.91-5.74,15.41-11.36,20.7-.66.63-2.86.17-4.06-.4-4.22-2-8.31-4.27-13.4-6.94-.82-4.93-4.34-8-8.2-5.41-5,3.33-9.91,6.87-14.6,10.63-5.56,4.46-10.62,9.57-16.39,13.72-1.9,1.37-6.09,1.74-7.86.54s-3-5.1-2.63-7.53a68.7,68.7,0,0,1,4.28-14.77c4-10.07,15.91-15.89,26.57-13.81,2.15.42,4.92-.54,6.88-1.73.89-.54,1.28-4,.54-4.7-1.66-1.58-4.2-3.2-6.34-3.14-4.91.13-9.8,1.25-14.7,2,2.8-3.74,7.4-5.75,9.53-9.25,3.93-6.47,9.55-6.94,15.8-6.89,3.37,0,6.74.31,10.11.29,3.81,0,6.85-1.46,6.64-5.82s-3.3-5.53-7.15-5c-5.9.76-11.77,1.74-17.67,2.39a7.53,7.53,0,0,1-4.76-.9c-3.88-2.72-7-1.66-10.18,1.11-2.22,1.94-4.61,3.68-6.72,5.72-1.08,1-2.73,2.9-2.41,3.77,2.64,7.23-3,11.8-5.39,17.31-.91,2.13-3.95,3.25-5.45,5.25s-4.09,6-3.4,6.85c3.35,4.1,1.07,7.91.51,11.83-.5,3.52-1.34,7-1.54,10.56-.49,8.68,7.49,14.68,15.54,11.36,4.13-1.7,7.79-4.62,11.48-7.25,4-2.87,7.56-6.54,11.83-8.93,3.56-2,7.87-2.66,12.66-4.17-1.43,6.24-.62,10.39,4.64,11.25,5.8.94,5.11-4.14,5.44-8,9.84,7.44,14.23,6.52,29.06-6.08-.51,2-1.2,3.49-1.17,4.93a29.59,29.59,0,0,0,1.05,5.35c1.82-.78,4.31-1.06,5.32-2.43,2.46-3.31,4-7.32,6.37-10.69,1.58-2.21,3.79-4.89,6.16-5.43,6.39-1.46,13-1.89,21.48-3,0,.08-.11.14-.16.22a19.44,19.44,0,0,0,8.09-7.13S982.29,227.88,972.83,217.82Zm-14.07,21.46c-3.66,6.31-11-.25-15.6,4.4,2-17.81,7.69-22.81,22.53-19.88C963.35,229.12,961.55,234.49,958.76,239.28Z"/><path class="cls-1" d="M619.13,263.1c-9.46,1.34-18.93,2.54-28.35,4.08-4.15.67-6.29,3.57-8.57,7.19a288,288,0,0,1-20.32,28c-1.55,1.89-6.54,2.51-9.29,1.66-3.87-1.19-4-5.32-2.63-8.76,4.4-11.33,10.48-21.25,23.13-25.49,1.92-.64,4.13-1.73,5.21-3.27,5.86-8.41,11.58-16.93,17-25.61,7.17-11.45,14.42-22.82,25.89-30.68a46.94,46.94,0,0,1,12-6.06c12.56-4,21.25,2.13,23.22,15,2.54,16.68-.39,32.8-4,48.91-1.47,6.58-3.33,13.07-5,19.59a15.46,15.46,0,0,1-.81,1.93c-.5-.5-1.21-.91-1.48-1.51-1.71-3.79-3.18-7.69-5-11.44C636,268,630.45,261.36,619.13,263.1ZM645.68,283H647c1.65-11.75,4.16-23.46,4.69-35.26.43-9.75-.9-19.71-2.57-29.4-1.13-6.58-6.57-8.81-13.43-7.45-11.05,2.2-18.41,9.51-24.37,17.91-7.13,10-13.14,20.84-19.71,31.27-2.55,4,.39,3.73,2.84,3.45,6-.69,12.13-1.29,18.09-2.45,15.51-3,24.35,1.35,30.55,15.55C644,278.67,644.83,280.82,645.68,283Z"/><path class="cls-1" d="M754.22,255.37c-2,2.82-3.65,6-6,8.42-9.73,10-21.23,7.45-26.27-5.57-.48-1.22-1.06-2.4-1.59-3.61-.78,1.27-1.65,2.5-2.33,3.82-5,9.71-9.85,19.44-14.8,29.16a11,11,0,0,1-10.45,6.35,7.52,7.52,0,0,1-7.82-7.59c-.23-5.53,4.74-14.46,10-15.86,4.19-1.11,5.58-3.85,7.1-7.09q11.13-23.76,22.35-47.47a40.14,40.14,0,0,1,3.93-6.5c2.6-3.54,6-5.94,10.45-3.76s4.86,6.2,3.45,10.48c-1,3.12-2.48,6.12-3.46,9.26q-3.71,12-7.12,24c-.47,1.67-.91,3.68-.39,5.21.69,2,2,4.68,3.66,5.32,1.53.59,4.78-.54,5.83-2a157.07,157.07,0,0,0,11.05-17.12c4.75-8.62,8.85-17.6,13.57-26.23,1.76-3.2,4.8-5.8,8.83-3.63s3.56,6,2.14,9.42c-4.21,10-8.94,19.86-13,29.93-3.36,8.24-9,15.92-7.08,25.71.13.69-1.45,1.71-2.23,2.58-.64-.86-1.89-1.77-1.83-2.58.37-5,1-10,1.62-15a55.17,55.17,0,0,1,1.25-5.46Z"/><path class="cls-1" d="M802.92,212c1,.86,3.46,2.17,4.55,4.21,1.38,2.58.22,5.17-2.51,6.81-4.71,2.84-6.31,7.1-6.12,12.51a8.67,8.67,0,0,1-2.18,5.95c-8.2,7.84-11,18.75-16.41,28.15-.51.88.11,2.61.56,3.81,1.57,4.2.71,8.52-2.89,11-1.31.91-3.74,1.48-5,.86s-2-2.88-2.18-4.51a11.19,11.19,0,0,1,1-4.81q6.25-17.44,12.65-34.86a25.74,25.74,0,0,1,1.63-3.34c2.22-4.06,5.44-7.2,4.58-13C789.78,219.4,797.25,212.15,802.92,212Z"/></g></g></svg>