<svg xmlns="http://www.w3.org/2000/svg" viewBox="0 0 1844.23 281.46"><defs><style>.cls-1{fill:#fff;}</style></defs><g id="Capa_2" data-name="Capa 2"><g id="abierto"><path class="cls-1" d="M243.48,3.27V278.33H440.34V213h-107V3.27Z"/><path class="cls-1" d="M635,3.27H509.23l-51.77,275H543l4.12-43h46.2l4.62,43,86.27.37Zm-49,170.65H555.63V63.25h30.43Z"/><path class="cls-1" d="M911.38,173.28H830c-1.69,29.28-12.52,44.47-26.12,44.47-19.72,0-24.82-34.23-24.82-76.44s6.23-76.44,24.82-76.44c16.35,0,22.15,19.32,24,46.83H910.7c-5.16-46.13-19.63-69.37-22.56-73.45C871.09,14.48,843.71.5,804.93.5,724.06.5,694.52,63.41,694.52,141s27.8,140.48,110.41,140.48c53,0,82-22.29,96.79-56.7a94.73,94.73,0,0,0,6.71-24.3C909.76,191,910.71,181.9,911.38,173.28Z"/><path class="cls-1" d="M932.9,3.13V278.7h83.84V215l14.13-14.52,27.82,78.24H1152l-55.63-144.78L1152,3.27h-91.15l-44.5,102.23-.43-102.23Z"/><path class="cls-1" d="M1269.52,0c-83.29,4-109,63-109,140.64,0,67.66,20.76,124.3,80.72,137.65l25.58-112.54-71-10.12L1296.26,3.27l-12.78,118.19,58.6,18.62L1241.26,278.29a123.51,123.51,0,0,0,28.24,3c79.88,0,109-63,109-140.64S1350.25,0,1269.52,0Z"/><path class="cls-1" d="M1610,141.85c0,88.42-4.16,139.43-107.1,139.43s-107.1-51-107.1-139.43c0-47.21,1-138.7,1-138.7h83.52l.16,217h45.73l-1.38-217h84.69l.41,138.7Z"/><path class="cls-1" d="M166.89,136.82s41.94-14.17,40.24-67.91c-6-65.78-78.33-65.78-78.33-65.78H0V278.27H136.08s78.08,5.15,77.88-83.4C210.1,144.56,166.89,136.82,166.89,136.82ZM131.07,218.7H83.88V165.42h47.19Zm0-102.56H83.88V62.87h47.19Z"/><path class="cls-1" d="M1627.78,3.13V67.21h64.46V278.56h87.89v-211h64.1V3.13Z"/></g></g></svg>