<svg xmlns="http://www.w3.org/2000/svg" viewBox="0 0 221.74 742.75"><defs><style>.cls-1{fill:#fff;}</style></defs><g id="Capa_2" data-name="Capa 2"><g id="abierto"><path class="cls-1" d="M165.94,703.1a15.76,15.76,0,0,1,2.56.6c6.91,3.65,13.79,7.35,20.7,11,3.07,1.62,2.2,4.1,1,6.07-1.37,2.23-3.29,5-6.51,2.91-4.2-2.73-8.05-6-12.19-8.83-1.77-1.21-3.85-2.54-5.87-2.69-3.61-.28-3.43-2.53-2.73-4.6C163.48,705.77,165.06,704.32,165.94,703.1Z"/><path class="cls-1" d="M221.73,660.4c.24,5.56-4.29,8.62-8.39,6.33-6.25-3.5-12.49-7.06-18.37-11.12-1.14-.78-1.45-4.4-.64-5.91,1-1.89,2.93-2.59,5.88-.75,5.7,3.54,12.19,5.8,18.27,8.76A15.84,15.84,0,0,1,221.73,660.4Z"/><path class="cls-1" d="M201.39,698.57c-1.59,2.21-2.86,4.5-4.67,6.21-.58.54-2.83-.06-3.91-.76-4.9-3.15-9.66-6.53-14.47-9.82a23.84,23.84,0,0,1-2.44-1.6c-1.1-1-3.08-2.34-2.89-3.1a8.75,8.75,0,0,1,3.14-4.75c.72-.51,2.78.7,4.14,1.34,1.6.76,3.09,1.76,4.64,2.63,5,2.8,9.94,5.58,14.89,8.4A9.63,9.63,0,0,1,201.39,698.57Z"/><path class="cls-1" d="M211.4,679.8c-.13,3.92-5.85,7.71-8.36,6.2-3.68-2.23-7-5-10.59-7.46-2.2-1.49-4.9-2.4-6.74-4.22-1.18-1.16-2.14-4-1.49-5.17.75-1.3,3.84-2.59,5.11-2,5.9,2.6,11.57,5.73,17.21,8.88A35.22,35.22,0,0,1,211.4,679.8Z"/><path class="cls-1" d="M101,127.49c3.92,1.58,7.89,3.06,11.74,4.8,1.26.56,3.3,2.38,3.18,2.59-1.34,2.31-3.06,6.25-4.63,6.23-4.06-.07-8.16-1.71-12.12-3.08-2.84-1-5-4.38-8.76-2.1-.31.19-2.82-2.35-3.47-4-.49-1.22.36-3,.62-4.49Z"/><path class="cls-1" d="M104.52,162.14c-4.16-1.4-8.31-2.85-12.5-4.17-1.53-.47-3.2-.51-4.75-.94-1.33-.38-3.47-.8-3.69-1.62a6.64,6.64,0,0,1,.62-5.15c.67-.91,3-.76,4.59-.78a41.5,41.5,0,0,1,5.88.48c5.16.69,10.35,1.31,15.42,2.43.55.12.9,3.38.54,5C109.7,161.58,109.34,161.67,104.52,162.14Z"/><path class="cls-1" d="M100.7,115.14c-5.2-.65-11-1.11-16.62-2.27-1.24-.26-2.76-3-2.71-4.58,0-1.39,2-3.85,3.24-3.89,6.75-.24,13.54.47,20.28.14,4.87-.25,5.23,2.12,5.21,5.87,0,4.19-1.92,5.54-5.79,5C103.3,115.22,102.26,115.23,100.7,115.14Z"/><path class="cls-1" d="M98.92,90.64c-1.78-.38-4.73-1.17-7.73-1.54a12,12,0,0,0-4.54.72c-2.58.73-4.84.34-4.81-2.64,0-1.87,1.22-5.11,2.41-5.36a180.51,180.51,0,0,1,19-2.74c5.41-.57,7.17,1.13,6.78,6.58C109.53,92.71,104,89.81,98.92,90.64Z"/><path class="cls-1" d="M82.76,58.72c5.41-1.4,10.79-3,16.25-4.16,6.55-1.4,9,1.08,7.7,7.65-.16.82-1,2.08-1.66,2.14-5.19.48-10.39.71-15.59,1.05-1.71.11-3.41.37-5.13.49-1.44.1-3.6.7-4.16,0a6.43,6.43,0,0,1-1.06-4.7c.21-1.26,1.66-2.31,2.56-3.45Z"/><path class="cls-1" d="M87.87,41.67c-2.82.68-5.66,1.93-8.45,1.83-1.69-.06-4.28-2-4.68-3.49s1.15-4.76,2.47-5.16C83.15,33.07,89.3,32,95.39,30.72c5.4-1.14,7.28-.07,7.38,5,0,1.67-1.57,4.39-3,4.86C96.06,41.8,92,42,88.14,42.65Z"/><path class="cls-1" d="M88.09,19.32c-4.49.69-9,1.77-13.46,1.8-1.11,0-2.87-3.27-3.15-5.22-.19-1.23,1.62-3.82,2.83-4,6.81-1.1,13.7-1.71,20.57-2.39,2.74-.27,4.81-.08,5.23,3.78s-1,5.65-4.15,6.38a54.55,54.55,0,0,1-7.7.71C88.2,20,88.14,19.67,88.09,19.32Z"/><path class="cls-1" d="M60.22,132.48c6.15,2,11,3.61,15.79,5.12,1.41.45,3,.5,4.37,1,1.56.53,4.16,1.16,4.31,2.06a8.54,8.54,0,0,1-1.35,6c-.58.77-3.3,0-5-.18-1.42-.19-2.79-.83-4.21-.93-4.59-.29-9.22-.17-13.77-.71-3.66-.43-3.9-3.47-3.13-6.25C57.75,136.49,59.08,134.69,60.22,132.48Z"/><path class="cls-1" d="M61.69,157.68c3.69,1.06,7.35,2.2,11.06,3.16a30.43,30.43,0,0,0,4,.26c1.4.17,4,.37,4,.73a27,27,0,0,1-.42,7.28c-.05.28-2.33.27-3.57.22-5.72-.23-11.44-.57-17.17-.76-3.61-.13-6.65-.19-6.54-5.4.12-5.49,3.42-4.84,6.88-4.62.52,0,1,0,1.55,0Z"/><path class="cls-1" d="M55,0c3.9.48,7.58,1.1,11.28,1.31,1.34.07,2.39-3.06,4.19.09,1.4,2.46,2.48,4.66.4,6.81-.87.9-2.88.84-4.4.95-1.13.08-2.34-.54-3.44-.38-5.11.78-10.19,1.75-15.29,2.58-3.07.5-5.31-.69-5.09-4C42.81,4.62,41.34.33,47,.72,49.72.9,52.46.26,55,0Z"/><path class="cls-1" d="M57.77,82.55c-5,.23-4.84-3.22-5.58-6.25-.9-3.69,1.59-4.15,4-4.41,4.66-.52,9.35-.66,14-1.07,1.64-.14,3.25-.75,4.89-.84s4-.35,4.68.52a7.15,7.15,0,0,1,1.19,5.56c-.29,1-3.1,1.28-4.82,1.64-1.46.29-3.08,0-4.49.36C67,79.44,62.38,81,57.77,82.55Z"/><path class="cls-1" d="M67.68,31.63C62.18,33.05,56.49,34,51.21,36c-4.3,1.64-5-1.38-5.77-3.67S43.05,26.7,47.56,26c4.85-.73,9.74-1.22,14.61-1.78,1.51-.18,3-.3,4.55-.35,1.69-.05,4.52-.54,4.86.14a9,9,0,0,1,.61,6c-.3,1.08-2.62,1.59-4,2.36Z"/><path class="cls-1" d="M63.57,48.41c2.8-.79,5.56-1.91,8.41-2.21,1.38-.15,3.78.92,4.2,2,.72,1.88.35,4.23.1,6.34,0,.21-2.42.12-3.71.21a18,18,0,0,0-3.46.36c-5,1.31-10,2.92-15.06,4-2.62.57-4.61-.62-5-3.74-.38-2.85-.28-5.17,3.21-5.84,3.68-.72,7.35-1.54,11-2.32Z"/><path class="cls-1" d="M63.22,91.67c3.06.78,6.09,1.72,9.18,2.27,1.35.24,2.85-.53,4.26-.47,1.83.09,4.13,0,5.32,1,.94.82,1.24,3.67.53,4.79a6.85,6.85,0,0,1-4.73,2.55c-5.72.4-11.49.16-17.21.51-4.63.29-6.82-1.89-6.59-6.16.25-4.56,4.05-3.58,7-3.68.69,0,1.37,0,2,0Z"/><path class="cls-1" d="M55.71,111.23C62,113.08,67,114.58,72,116a20.6,20.6,0,0,0,2.86.2c1.69.23,4.49.09,4.82.92.72,1.77.88,4.54-.09,6-.85,1.25-3,3.94-5.72.8-.83-1-3.54-.27-5.38-.45-4.57-.45-9.22-.58-13.62-1.7-1.28-.32-2.51-3.6-2.46-5.48C52.49,114.65,54.42,113.1,55.71,111.23Z"/><path class="cls-1" d="M191.1,663.63c-3.47,2.11-6,4.78-7.35,4.26A180.58,180.58,0,0,1,165.3,659c-5.25-2.77-5.55-7.32-.73-10.71a4.12,4.12,0,0,1,3.7-.12c4.6,2.92,9,6.16,13.51,9.22,1,.67,2.27.92,3.27,1.59C186.64,660.06,188.1,661.31,191.1,663.63Z"/><path class="cls-1" d="M159.16,720.06c-1.82,1.62-3,3.06-4.59,3.9-.55.29-1.9-.84-2.86-1.37a53.44,53.44,0,0,0-5.56-3.11c-3.84-1.58-7.89-2.7-11.68-4.39-3.5-1.55-4.91-3.72-2.85-8,2.23-4.64,4.9-2.88,7.47-1.42,3.93,2.24,7.54,5.05,11.38,7.46,1.94,1.22,4.22,1.94,6.12,3.22C157.57,717,158.06,718.41,159.16,720.06Z"/><path class="cls-1" d="M145.68,685c4.1,2.16,8.34,4.31,12.49,6.61a42.38,42.38,0,0,1,7.94,5c1.19,1.06,2.12,3.73,1.59,5-.61,1.53-3.52,3.68-4.45,3.28-6.74-2.87-13.32-6.15-19.75-9.67-4-2.19-4.21-5.6-.92-8.59A17.47,17.47,0,0,1,145.68,685Z"/><path class="cls-1" d="M177.88,680c-.4,5.51-2.64,6.5-6.13,4.74-5.68-2.85-11.55-5.32-17.38-7.85-3.46-1.5-4.54-3.6-2.9-7.23,1.73-3.79,4.12-4.24,7.35-2.13,4.22,2.75,8.38,5.59,12.61,8.3.94.6,2.24.66,3.14,1.29A33.48,33.48,0,0,1,177.88,680Z"/><g id="cremallera_arriba" data-name="cremallera arriba"><path class="cls-1" d="M87.05,218.91c-4.4,8.54-8.71,17.28-13.36,25.85S64,262,59,270.47a57.69,57.69,0,0,1-5.3,6.76c-.89,1.1-1.94,1.76-2.18,3.63-.16,1.3-3,2.71-4.85,3.24-8.1,2.32-16.06,1.3-23.89-1.66-5.48-2.07-10.48-4.81-14.5-9.18C4,268.62.77,263.26.11,257a17.76,17.76,0,0,1,5.27-14.79c6-6.11,11.39-12.81,17.48-18.82,5.42-5.33,11.52-10,17.15-15.1,4-3.66,7.69-7.64,11.53-11.47-3.33-10.38-1.23-19.66,5.31-27.85,7.81-9.77,18.13-13.49,30.51-11.62,1,.15,2,.49,3.08.59,7.24.68,12.78,4.83,18.42,8.87a29.06,29.06,0,0,1,11.39,17.33c1.69,6.87,1.17,13.69-2.62,19.79C110.54,215.35,99.63,219.09,87.05,218.91Zm-10.4-29a4.64,4.64,0,0,0-6.23-1.55,18.48,18.48,0,0,0-4.15,2.93c-6.06,5.23-12.31,10.26-18,15.84-12.72,12.39-25.18,25-37.7,37.62-3.88,3.91-5.21,12.37-2.54,17.2a33,33,0,0,0,12.88,12.84c7.61,4.42,15.78,5.53,24.26,4.78A13.1,13.1,0,0,0,51.49,277a22.37,22.37,0,0,0,4.89-5.65c9-13.69,16.59-28.23,24-42.83,3.31-6.5,6.59-13,8.47-20.13.69-2.6,1.53-5.34-1.63-7.64l-7.85,10.5c.8.61,2,1.14,1.92,1.54a10.12,10.12,0,0,1-1.09,4Q72.38,230.48,64.32,244a6.1,6.1,0,0,1-1.77,1.57L38.2,225.34c3.25-3.74,6.7-8.07,10.54-12a123.07,123.07,0,0,1,11.16-10c1.48-1.18,3.59-1.57,5.78-2.48ZM88.11,216a29.81,29.81,0,0,0,16.13-3.39c6.48-3.6,11.49-8.6,13.29-16.15,2.75-11.54-4.11-23.7-14.25-30-7.07-4.41-14.74-5.6-22.75-5a28.08,28.08,0,0,0-17.37,8.22,23.28,23.28,0,0,0-6.83,12.59c-.56,3.15-1.55,6.48-.41,9.74A30,30,0,0,0,60,189.29a8.92,8.92,0,0,0,2.71-3.65A20.66,20.66,0,0,1,74,172c11-5.33,21.88-3.47,30.63,5.27a18.71,18.71,0,0,1,.26,26.25c-4.1,4.39-9.48,6.31-15.21,7.29C89.13,212.52,88.66,214.13,88.11,216ZM76.64,192.15l-.35-.29c-4.49,5.47-9.16,10.81-13.41,16.46-2.55,3.4-5.49,6.76-6.11,11.24a6.92,6.92,0,0,0,7.51,8.55c1.75-.19,3.58-2.43,4.76-4.18,2.32-3.42,3.95-7.33,6.33-10.7,4.07-5.74,8.46-11.27,12.82-16.81,1.49-1.9,3.48-3.44,4.82-5.43a3.91,3.91,0,0,0,0-3.6c-2.53-3.54-7.81-3.71-11-.57C80.18,188.57,78.42,190.37,76.64,192.15Zm14.25,10.08c1.07-.47,2.26-1,3.42-1.53,5.1-2.53,9.44-5.88,10.39-11.88.37-2.34.55-5.4-.64-7.16a27.31,27.31,0,0,0-7.72-7.22c-5.49-3.59-11.77-3.84-17.83-2.06a20.06,20.06,0,0,0-14.06,13.54c5.51-2.56,10.47-3.5,15.11.82a11.44,11.44,0,0,0,1.54-1.39c1.94-2.5,4.65-2.8,7.49-2.53,5.54.51,8,5,5.22,9.77a73,73,0,0,1-4.38,6,5.66,5.66,0,0,0-.45,1ZM53.1,212.49,40,225.54c3.24,2.34,6.24,4.88,9.58,6.82S55,238,58.8,239.17l4.83-7.58c-6.52,2.58-9.74-2.08-12.41-5.69C47.94,221.47,50.63,216.76,53.1,212.49Z"/><path class="cls-1" d="M22.49,241.47c10.8,6,21.2,11.74,30,20.81-1.64,2.84-3.14,5.83-5,8.52a4.87,4.87,0,0,1-3.51,1.45c-9.21.15-17.85-1.6-24.24-9-4.3-5-4.86-10.46-1.22-16.28C19.56,245.21,20.91,243.62,22.49,241.47Zm-1.41,5.65c-1,2.3-3.64,3.57-3.36,6.75.53,6,4.43,9.18,8.83,12.14a4.68,4.68,0,0,0,2.82,1.05,37.67,37.67,0,0,0,7.21-1.56c1.61-.53,3-1.64,5-2.78C35,256.28,27.93,251.86,21.08,247.12Z"/></g><g id="cremallera_abajo" data-name="cremallera abajo"><path class="cls-1" d="M99.7,653.75q13.06-11.34,26.15-22.66c4.1-3.55,8.23-7.07,12.3-10.65q4-3.5,7.75-7.18a2,2,0,0,0,.37-1.68c-3.06-9.71-.06-17.86,6.24-25.29,10.92-12.86,31.59-13.49,44.71-5.46,12,7.33,17,18.25,18.64,31.29a19.35,19.35,0,0,1-3.76,14.19c-3.08,4-5.93,8.56-9.87,11.6-5.87,4.54-12.64,7.93-20.56,7.18-3.31-.32-5.24.67-7.09,3.79-11.17,18.83-22.68,37.46-34.05,56.16q-9.75,16-19.44,32.07a11.08,11.08,0,0,1-10.47,5.63c-14.4-.52-26.9-6.19-37.25-15.75-8.17-7.54-13-17.33-12.44-28.92a23,23,0,0,1,7.22-15.7c3.56-3.47,6.88-7.18,10.31-10.79a19.32,19.32,0,0,1,1.42-1.44q9.84-8.29,19.68-16.55Zm73.37-33.14c-4,4.5-7.83,8.66-11.49,12.95a2.54,2.54,0,0,0-.09,2.46c1.76,1.87,1.59,3.42,0,5.33-1.35,1.64-2.23,3.66-3.5,5.39-7.76,10.6-15.67,21.11-23.3,31.8-1.8,2.51-3.41,3.17-6,1.6-1.25-.77-2.54-1.48-3.81-2.22-7-4.09-10.75-10.74-14.13-17.66a3.57,3.57,0,0,1,.58-3.16c4.64-4.87,9.41-9.61,14.18-14.34,6.76-6.68,13.84-12.94,22.49-17.15a4.81,4.81,0,0,0,1.27-1.34c3.35-4,6.72-8,10-12a11.14,11.14,0,0,0,1.16-2.49c-1-.13-2.19-.67-3-.31a41.83,41.83,0,0,0-8.06,4.47c-5.77,4.54-11.38,9.28-16.87,14.15-8.3,7.36-16.37,15-24.68,22.31a229.08,229.08,0,0,1-18.16,15.12c-7.47,5.36-13,12.64-19.66,18.69-4.63,4.19-4.92,9.06-2.85,14.65a48.3,48.3,0,0,0,13.91,19.61c7,6.16,14.87,10.74,24.17,12.49,4,.75,6.74-.67,8.87-4.09,4.76-7.65,9.74-15.17,14.57-22.79,13.6-21.46,27.38-42.8,40.59-64.5C172.59,634.21,178.38,628.72,173.07,620.61Zm7.62,13c5.57-.18,10.36-2,15-4.63,7.95-4.43,12.52-11.39,13.24-20,.86-10.14-3.43-18.61-11.8-24.8-12-8.84-29.48-10.24-42.55,2.83A25.82,25.82,0,0,0,147,609.6c.34,2.51,1.7,2.65,3.27,1.33,2-1.68,5.84-2.43,4-6.53,0-.11,0-.27,0-.4.8-9,6.13-14.81,13.75-18.76,11-5.71,26.7,2.28,30.34,13.64,4.16,13-2.74,23.88-14,29.73C182.14,629.75,180.36,630.66,180.69,633.64Zm-37.34,1.55c-1.38,1.08-2.72,1.95-3.86,3-7.68,7.36-15.38,14.7-22.88,22.24-.79.8-.91,3.22-.29,4.27,3.16,5.37,8.09,8.92,13.5,11.81,1.41.76,2.3.92,3.54-.89,4.7-6.84,9.77-13.43,14.71-20.1,2.8-3.77,5.63-7.51,8.83-11.78C148.42,644.34,145.07,642.13,143.35,635.19Zm20.59-27.08c1.44-1,2.91-1.85,4.31-2.85,4.27-3,8.85-2.68,12,1,4,4.56,4.25,9.12.76,13.13a25.68,25.68,0,0,0-2.27,2.84,6.91,6.91,0,0,0-.55,2,4.45,4.45,0,0,0,1.8.09,22.23,22.23,0,0,0,8.65-5.6c5.46-5.88,7-15.73.65-22.79-4.64-5.17-11.36-6.16-17-2.05C167.55,597.32,165.41,602.44,163.94,608.11ZM155.88,638c2.39-3,4.34-6,6.73-8.48,4.82-5.06,10-9.75,14.74-14.9a7.76,7.76,0,0,0,1.65-5.86c-.19-1.09-2.83-2.09-4.52-2.48-3.71-.86-6.79,1.6-9,3.64a126.68,126.68,0,0,0-13.52,14.9c-2.48,3.09-4.85,6.47-5,10.81-.12,2.68,1.49,4,3.56,4C152.34,639.69,154.25,638.56,155.88,638Zm-9.65,44.36c-2.51,4-5,7.74-7.31,11.57-3.16,5.14-6.19,10.36-9.39,15.47a2.46,2.46,0,0,0,.82,3.78c.27.18,1.69-.91,2.19-1.67,5-7.49,9.81-15,14.71-22.55C148.8,686.61,148.61,684.51,146.23,682.39Zm46.35-42.2c7.39-4.72,14.44-9.64,18.1-18.11-2-.74-2.84-.38-4.26,1.12a54.77,54.77,0,0,1-11,9.28C191.17,635.06,190.89,634.59,192.58,640.19Zm-14.24-10.6c-3.49.32-2.7,3.25-3.66,4.95-2.82,5-5.63,10-8.23,15.16-.47.92.07,2.35.14,3.54,1-.6,2.43-1,2.87-1.84,3-6,5.82-12.1,8.56-18.23C178.47,632.16,178.25,630.86,178.34,629.59Zm-19.81,40.58c2-3.33,4.12-6.57,5.92-10,.4-.75-.27-2.08-.45-3.15-.78.45-1.8.71-2.29,1.37-1.6,2.13-2.91,4.48-4.51,6.6S155.92,668.81,158.53,670.17Zm27.25-27.86c1.86-.7,4.31-1,4.49-1.82.37-1.62-.24-4.92-.93-5.06-2.28-.45-2.73,1.8-3,3.68C186.19,639.92,186.05,640.72,185.78,642.31Z"/><path class="cls-1" d="M118.26,701.39c-2.56,3.59-5.07,7.22-7.74,10.73a3.4,3.4,0,0,1-2.49,1.27c-8.16-.88-15.34-3.92-21.09-10a14.41,14.41,0,0,1-.61-19.58c1.5-1.71,2.89-3.52,4.33-5.29s2.68-2.16,4.07.08C100.49,687.92,111.17,696.74,118.26,701.39ZM93.59,687.07c-.36.38-1.29,1.31-2.17,2.28s-2,2.19-2.89,3.33c-2.93,3.64-3,5.19.08,8.74,4.08,4.75,9.68,6.44,15.54,7.8,3.79.88,5.93-.43,7.81-3.59.78-1.31.65-1.72-.27-2.54C105.66,697.79,99.66,692.45,93.59,687.07Z"/></g></g></g></svg>