<svg xmlns="http://www.w3.org/2000/svg" viewBox="0 0 387.54 709.61"><defs><style>.cls-1,.cls-2{fill:#fff;}.cls-2{stroke:#fff;stroke-miterlimit:10;}</style></defs><g id="Capa_2" data-name="Capa 2"><g id="abierto"><path class="cls-1" d="M246.67,558c-2.29-2.3-5-3.51-6.83-7-4.62-8.72-8.74-18.86-13.33-27.71-.71-1.39-1.44-2.75-2.17-4.1a1.21,1.21,0,0,1-.8.48c-.87.1-1.59-.8-2.09-2.12a80.5,80.5,0,0,1-14.35-21.49c-5.94-12.45-12.4-23.61-18.58-35.5-3.65-7-7.2-14.32-10.76-21.59-4.8-9.8-9.4-20.14-14.38-29.4a132.89,132.89,0,0,1-10.8-25q-1.58-5.16-3.11-10.33c-.67-1.29-1.29-2.71-1.89-4.22l-.42.7c-3.29-8.2-6.47-16.62-9.91-24.52s-7.1-15.92-10.9-23.2c-3.62-6.93-7.64-12.72-11.29-19.54-2.44-4.55-4.56-10-7.18-15.88l1.14.76a17.85,17.85,0,0,1-.94-2.09,9.45,9.45,0,0,1-.46-1.62,54.46,54.46,0,0,1-9.49-8.38c-6.2-6.94-11.2-17.76-15.54-30.07-1.74-4.94-3.72-9.72-5.07-15a100.33,100.33,0,0,1-2.2-14.51c0-.41-.06-.81-.07-1.19-.43-1.65-.83-3.29-1.18-5-.06.48-.09.87-.11,1-2-6.73-4-13.78-6.14-20.72a9.72,9.72,0,0,0-1.61-2.58c.22-6.24.68-12.38.58-18.75a31.13,31.13,0,0,1,.2-5.07c-.13-.91-.25-1.81-.37-2.72l-.06.26c-.77-4.18-1.4-7.6-2.09-11.38L69,142.83A31.43,31.43,0,0,1,71,138.64c0-1.62.89-3,1.33-4.44.7-2.3,1.29-4.8,2.12-6.81a3.59,3.59,0,0,1,.63-1c.16-1,.3-2.1.46-3.15l-.13-.09c1.1-5.6,2.08-10.77,3.13-15.85C79,104.7,80,103,81.28,103.12a4.56,4.56,0,0,1,.42-1.2l.46-.59a.77.77,0,0,1,.87-.2.93.93,0,0,1,.58.23l0-.14c3.43,0,5.76-3.18,7.52-8.35s3.78-10.36,5.67-15.52c-.06,1.19-.11,2.38-.17,3.57.56-2,1.18-3.91,1.66-6q1.15-5.16,2.47-10.07c-.63-.53-1.22-1-1.63-.67-.79.6-1.19,2.88-1.74,4.36l-5.6-10.93A22.35,22.35,0,0,1,91,60.49c-1.21,2.54-.82,4.87.71,7.57,1.31,2.29,2.49,5,3.92,7.83-.87,1.73-1.66,3.3-2.47,4.89-1.55-3.41-2.89-6.44-4.27-9.35C88,69.5,87.09,68.88,86.32,71a6.31,6.31,0,0,0,.4,5.64c1.38,2.63,2.7,5.4,4,8.1-.47,1.8-.86,3.25-1.31,5-1.59-3.39-3.1-6.27-4.41-9.51-1.23-3-2.23-2.13-2.87-.54a11,11,0,0,0,.2,5.07c1.4,3.67,3,6.9,4.71,10.55L85,97.45c-.73-1.73-1.36-3.29-2-4.75s-1.39-2.88-2.08-4.31c-2.64-5.38-3.34-5.25-4.75,1,1.59,3.14,3.19,6.32,4.87,9.65-.68.49-1.23.6-1.59,1.21-1.3,2.21-2.5,1-3.87-1.7-1-2.11-2.26-3.83-3.48-5.85l-1.32,7c1.13,4.35,5.64,4.64,4,12.8L68,104.94c.1,2.27.42,4.08.18,5.06-.88,3.64.41,4.82,1.67,6.32s2.41,3.07,3.62,4.63c-.54,2.38-.91,4-1.25,5.54-1.13-1.07-2.24-2-3.32-3.17-2.82-3.09-2.94-3-2.92,3.12a36.52,36.52,0,0,1-.36,3.68L70.15,134c-.6,1.41-1.06,2.26-1.4,3.33s-.65,2.58-1,3.85c-5.44-8.07-5.84-8.13-6.74-1.31l3.27,5c0,4.24-.09,7.35-.13,10.94a2.65,2.65,0,0,0-.87-.09c-1.47.14-3,.08-4.33.84-.18.1.48,4.44.77,6.82,0,.38.14.76.21,1.1l5.94,0a30.57,30.57,0,0,0,0,3.54c.53,3.59,0,4.2-1.58,3.49s-3.11-.49-4.77-.69a31.77,31.77,0,0,1,.35,3.73c-.21,3.65.58,4.59,2.09,4.73,1.2.11,2.46.94,3.9,1.53-.23,2.25-.4,3.92-.58,5.7-1.11-.68-2.08-1.37-3.06-1.85-3.52-1.75-4.83,1.38-3.48,7.73l5,1.83-.05.21a3.21,3.21,0,0,1,1,1.23c.49-2.51,1-5,1.47-7.47l3.66,11-4.07,2.22c0,.28,0,.55-.06.8a7.52,7.52,0,0,1,.43,1.42c.25,2,.44,3.93.65,5.89a21.43,21.43,0,0,1,2.74-.55c1.25-.09,2.75-1.48,3.27,4.16a30.86,30.86,0,0,0-3.89.53A1.66,1.66,0,0,0,67.78,215c.1,3.36.4,6.79.64,10.46,5.16-3.84,6.21-3.58,6.78,1.29a34.23,34.23,0,0,0-3.55,2.93c-2.63,2.74-2.48,7,.47,12.6.22-.58.43-1.18.66-1.75,3-7.45,5-6.63,8.12,3.28,0,.12,0,.3,0,.19l-4.55,5.38c1,3.79,1.85,7,2.83,10.74.89-1.44,1.61-2.54,2.29-3.71,2.48-4.2,2.48-4.21,5.23,2.28-.36.94-.71,2-1.13,3-2.07,4.49-2.12,3.36.38,10.59.89,2.55,1.59,2.86,2.31.7.64-2,1.39-3.73,2-5.42,1.67,2.73,3.16,5.15,4.7,7.68-.57,2.43-1.17,4.71-1.63,7.16a6.75,6.75,0,0,0,.24,2.86c1,2.2,2.17,4.14,3.42,6.47.31-1.64.63-3.49,1-5.26s.89-3.78,1.29-5.5l4.45,4.37-2.08,5.76c.69,2.4,1.37,4.75,2.07,7.16,1.55-2.92,3-5.6,4.39-8.29,1,2.44,1.93,4.81,3,7.58-1.06,2-2.73,3.48-2.91,6.09s1.18,6.29,2,10.28c1.66-3.46,2.93-6.1,4.1-8.55l3.34,5.51c-3.27,5.07-3.3,7-.08,15.81,1.38-3.13,2.75-6.21,4.17-9.42l3.77,6.75c-4.12,6.32-4.12,6.32-.84,15.28,1.42-2.68,2.81-5.34,4.22-8l2.95,6.38-4,3.95c.79,4.11,1.61,8.37,2.63,13.7l4.95-10.44c.88,2.26,1.59,4.05,2.44,6.25-1.23,1.79-3,2.8-3.4,5.38s.52,6.89.87,10.43l.71.48,4.8-9.54c.56,1.59,1.18,3.37,1.82,5.21-1.14,1.83-2.82,3-3.27,5.66-.56,3.3,1,6.78,2.43,9.69,1.23-3,2.35-5.69,3.54-8.57l1.75,4.68c-1,2.42-2,4.76-3,6.95-1.19,2.58.08,4.76.88,6.83,1,2.57,1.25.31,1.7-.73.94-2.16,1.91-4.24,2.9-6.45l1.71,3.89a46.78,46.78,0,0,1-2.53,5.39c-.93,1.44-1.14,2.92-.21,5.35.67,1.76,1.36,3.48,2.12,5.44.75-1.71,1.31-2.86,1.8-4.14s1-2.95,1.55-4.61c.58,1.56,1.07,2.89,1.59,4.26-.35.86-.57,1.48-.82,2-2.11,4.61-2,5.7.38,12.05.87,2.25,1.4,2.42,2,.64s1.47-3.68,2.24-5.58l3.58,5.15c-1,2.65-1.86,4.62-2.51,7-.9,3.27.72,5.45,1.67,7.54.36.78,1.49,1.1,1.77.5,1.06-2.28,1.92-5,2.86-7.61,3.25,5.95,3.25,5.95,1.36,11.52-1.48,4.35-1.36,5.51,1.26,11.09,1.17-3.08,2.33-6.16,3.53-9.33,1.16,2.5,2.28,4.89,3.4,7.32l-3.21,8.41c.6,1.88,1.16,3.72,1.77,5.49,1,3,1.89,3.75,2.75.73.69-2.42,1.65-4.42,2.5-6.65l5.2,9.83c-.66,2.11-1.18,3.73-1.68,5.39-1.52,5.06-1.49,5.36,1,10.55.89,1.9,1.66,2.49,2.26.16.66-2.51,1.41-4.87,2.19-7.58.72,1.56,1.22,2.72,1.75,3.77,2.53,5,2.53,5,.53,9.23a6.19,6.19,0,0,0-.69,1.79,7.94,7.94,0,0,0,0,2.79,29.34,29.34,0,0,0,1.7,4.38c.77,1.66,1.5,2.48,2.16.42.78-2.42,1.71-4.58,2.55-6.77l2.78,5.12c-.76,1.66-1.41,3.36-2.2,4.68a6.3,6.3,0,0,0-.29,6.36c1.56,3.67,3.41,4.81,4.35,2.85s1.82-4,2.82-6.23c.85,1.79,1.61,3.41,2.39,5.07-1.24,3.59-2.41,7-3.7,10.77,1.5,2.25,3.13,6,3.87,5.51,1.78-1.09,3.14-4.15,4.76-6.55l3.17,5.08a27.89,27.89,0,0,0-1.81,4.67c-.37,1.66-.81,4.38-.41,5.81,1.7,6.16,4.32,7.18,6,2.82.16-.4.27-.89.41-1.31,1.84-5.56,3.34-5.11,5.77,1.7Q223,533,220.8,538.74a60.12,60.12,0,0,1,2.89,5.61c1.2,3.09,2.21,3.3,3.24,1.24s2-4.12,3-6.12c.79-1.54,1.62-2.29,2.62.87a20,20,0,0,0,1.29,2.71c-1,2.05-1.88,3.93-2.78,5.78-1.62,3.35-1.57,5.17.29,9.54.45,1,.92,2,1.46,3.23,1.3-2.42,2.59-4.64,3.78-7.09,1.27-2.61,2.56-3.56,4.28.87-.85,2.48-2.17,4.57-2.46,7.59-.43,4.49,1.85,5.94,3.58,9.21.51-2.24,1-4.11,1.36-6.08,1-5.07,2.45-8.12,5.55-4.05a10.73,10.73,0,0,0,.4-1.15C248.36,559.86,247.52,558.88,246.67,558Z"/><g id="cremallera_arriba" data-name="cremallera arriba"><path class="cls-1" d="M83.41,59.4C79.19,67.59,75.06,76,70.6,84.17s-9.26,16.5-14.08,24.64a57,57,0,0,1-5.08,6.48c-.86,1-1.86,1.68-2.09,3.47-.16,1.25-2.86,2.6-4.65,3.11-7.76,2.22-15.39,1.24-22.9-1.59-5.24-2-10-4.61-13.89-8.79C3.81,107,.74,101.9.11,95.93A17,17,0,0,1,5.16,81.76c5.75-5.85,10.91-12.28,16.74-18,5.19-5.11,11-9.55,16.43-14.47,3.83-3.51,7.38-7.32,11.06-11-3.2-10-1.18-18.84,5.08-26.68C62,2.22,71.85-1.35,83.71.45c1,.15,2,.47,2.94.56,6.94.65,12.25,4.63,17.66,8.51a27.83,27.83,0,0,1,10.91,16.6c1.62,6.58,1.12,13.12-2.52,19C105.91,56,95.46,59.58,83.41,59.4Zm-10-27.81a4.43,4.43,0,0,0-6-1.48,17.8,17.8,0,0,0-4,2.8c-5.81,5-11.8,9.84-17.29,15.18C34,60,22.09,72.08,10.09,84.14c-3.72,3.74-5,11.85-2.44,16.48A31.68,31.68,0,0,0,20,112.92c7.29,4.23,15.11,5.3,23.24,4.58A12.62,12.62,0,0,0,49.33,115,21.6,21.6,0,0,0,54,109.62c8.66-13.12,15.9-27.05,23-41,3.17-6.23,6.31-12.48,8.11-19.29.67-2.5,1.47-5.11-1.56-7.32L76.07,52c.77.59,1.87,1.09,1.84,1.48a9.61,9.61,0,0,1-1,3.85Q69.35,70.49,61.63,83.49a5.89,5.89,0,0,1-1.7,1.5L36.6,65.57C39.71,62,43,57.84,46.7,54.06a117.21,117.21,0,0,1,10.7-9.58c1.41-1.14,3.44-1.51,5.53-2.37Zm11,25a28.53,28.53,0,0,0,15.45-3.25c6.21-3.45,11-8.24,12.74-15.47,2.63-11.06-4-22.71-13.67-28.77C92.18,4.9,84.84,3.76,77.16,4.35a26.92,26.92,0,0,0-16.64,7.88A22.3,22.3,0,0,0,54,24.29c-.54,3-1.48,6.21-.39,9.33a29.39,29.39,0,0,0,4-2.6,8.39,8.39,0,0,0,2.59-3.49A19.81,19.81,0,0,1,70.87,14.41c10.49-5.1,21-3.33,29.34,5.05a17.91,17.91,0,0,1,.25,25.15c-3.93,4.21-9.08,6-14.57,7Zm-11-22.85-.33-.27c-4.3,5.24-8.78,10.36-12.85,15.77C57.8,52.52,55,55.74,54.39,60a6.65,6.65,0,0,0,7.2,8.2c1.68-.19,3.43-2.34,4.56-4,2.22-3.28,3.78-7,6.07-10.25,3.9-5.51,8.11-10.8,12.28-16.11,1.43-1.82,3.33-3.3,4.62-5.2a3.75,3.75,0,0,0,0-3.45c-2.43-3.4-7.49-3.56-10.59-.56C76.82,30.33,75.14,32.06,73.43,33.76Zm13.66,9.67c1-.46,2.17-.93,3.27-1.47,4.89-2.43,9-5.63,10-11.39.36-2.24.52-5.17-.61-6.86a26.27,26.27,0,0,0-7.4-6.91c-5.26-3.44-11.28-3.69-17.09-2a19.22,19.22,0,0,0-13.46,13c5.27-2.45,10-3.35,14.47.79a11.9,11.9,0,0,0,1.48-1.34c1.86-2.4,4.45-2.68,7.17-2.43,5.31.5,7.66,4.81,5,9.37A70.85,70.85,0,0,1,85.69,40a4.69,4.69,0,0,0-.44.94ZM50.88,53.25,38.37,65.76c3.1,2.24,6,4.67,9.18,6.53s5.18,5.44,8.79,6.53L61,71.56c-6.24,2.47-9.32-2-11.88-5.46C45.93,61.86,48.51,57.35,50.88,53.25Z"/><path class="cls-1" d="M21.55,81C31.9,86.75,41.86,92.27,50.28,101c-1.57,2.73-3,5.59-4.83,8.17a4.69,4.69,0,0,1-3.36,1.39c-8.83.14-17.11-1.53-23.24-8.64-4.12-4.78-4.65-10-1.16-15.59C18.74,84.61,20,83.08,21.55,81Zm-1.35,5.4c-1,2.21-3.49,3.42-3.22,6.48.51,5.7,4.24,8.79,8.46,11.63a4.64,4.64,0,0,0,2.7,1,36.85,36.85,0,0,0,6.91-1.5,31,31,0,0,0,4.81-2.66C33.55,95.21,26.76,91,20.2,86.43Z"/></g><g id="cremallera_abajo" data-name="cremallera abajo"><path class="cls-1" d="M264.91,655.05q-2-14.76-4.06-29.52c-.64-4.62-1.24-9.25-1.91-13.87-.44-3-1-6-1.54-9a1.7,1.7,0,0,0-1-1.05c-8.36-2.36-12.79-8.35-15.18-16.39-4.13-13.92,5-29.12,16.83-34.81,10.8-5.2,21-3.72,31,1.25a16.64,16.64,0,0,1,8.4,9.38c1.46,4.13,3.37,8.3,3.72,12.57.51,6.37-.2,12.85-4.41,18.21-1.76,2.23-1.95,4.1-.58,6.89,8.28,16.91,16.26,34,24.36,51q6.93,14.55,13.91,29.09a9.63,9.63,0,0,1-.83,10.19,48.37,48.37,0,0,1-28.54,19.47c-9.18,2.35-18.44,1.26-26.45-4.61a19.93,19.93,0,0,1-7.88-12.59c-.82-4.19-1.94-8.34-2.92-12.5a14.52,14.52,0,0,1-.38-1.71q-1.37-11-2.7-22Zm10.35-68.5c1.35,5,2.56,9.72,3.93,14.37a2.16,2.16,0,0,0,1.71,1.22c2.16-.38,3.19.46,3.82,2.5.54,1.74,1.58,3.33,2.23,5.06,4,10.58,7.82,21.22,11.92,31.75,1,2.47.69,3.95-1.63,5.07-1.13.54-2.23,1.14-3.36,1.7-6.14,3.09-12.65,2.71-19.17,1.9a3,3,0,0,1-2-1.91c-1.33-5.63-2.51-11.29-3.67-17-1.65-8-2.84-16.06-1.84-24.28a4.16,4.16,0,0,0-.36-1.54c-1.31-4.3-2.59-8.6-4-12.88a9.66,9.66,0,0,0-1.24-2c-.56.66-1.5,1.27-1.6,2a36.4,36.4,0,0,0-.54,7.91c.57,6.3,1.36,12.58,2.29,18.83,1.41,9.44,3.11,18.84,4.5,28.28a202.8,202.8,0,0,1,2.39,20.21c.36,7.9,3,15.27,4.24,23,.84,5.31,4.19,7.8,9.15,8.94a40.83,40.83,0,0,0,20.48-.82c7.64-2.15,14.57-5.69,20.14-11.57,2.36-2.5,2.64-5.17,1.18-8.32-3.26-7-6.32-14.16-9.53-21.22-9-19.89-17.9-39.86-27.28-59.59C284.76,593.29,283.52,586.53,275.26,586.55Zm12.85.62a28.06,28.06,0,0,0,3.66-13c.52-7.81-2.34-14.38-8.17-18.95-6.85-5.38-14.89-6.27-23.2-3.14-11.86,4.47-21,16.46-17.71,32a22.24,22.24,0,0,0,12.58,16.13c2,.93,2.69,0,2.47-1.74-.27-2.24,1-5.35-2.82-5.93-.1,0-.18-.15-.27-.22-6.08-4.82-7.75-11.38-7-18.73,1-10.64,14-18.19,23.82-15.47,11.24,3.11,15.8,13.19,14.77,24C286,584.3,285.83,586,288.11,587.17ZM271.9,614.84c.13,1.5.13,2.88.38,4.21,1.7,9,3.38,18,5.29,27a3.9,3.9,0,0,0,2.92,2.23c5.31.23,10.12-1.65,14.7-4.19,1.2-.67,1.72-1.24,1-3-2.71-6.61-5.08-13.36-7.55-20.06-1.4-3.78-2.76-7.59-4.32-11.9C280.79,615.48,277.66,616.86,271.9,614.84Zm-9.81-27.58c0-1.48,0-3,0-4.45-.19-4.5,2.19-7.64,6.27-8.23,5.11-.74,8.49,1.22,9.74,5.62a22,22,0,0,0,1,3,6.21,6.21,0,0,0,1.15,1.33c.31-.42.81-.8.9-1.26a19.26,19.26,0,0,0,0-8.87c-1.67-6.7-8-12.45-16-11.18-5.85.92-9.68,5.3-9.34,11.29C256.05,579.59,258.72,583.54,262.09,587.26Zm17.65,19.87c-1.07-3.15-2.26-5.93-2.94-8.83-1.38-5.86-2.31-11.82-3.82-17.64a6.69,6.69,0,0,0-3.42-3.95c-.87-.37-2.81,1.06-3.87,2.1-2.33,2.27-2,5.65-1.59,8.24a110.94,110.94,0,0,0,4.38,16.75c1.06,3.24,2.38,6.53,5.39,8.71a2.92,2.92,0,0,0,4.52-.68C279.29,610.47,279.37,608.56,279.74,607.13ZM307,634.94c1.66,3.67,3.23,7.21,4.88,10.71,2.21,4.69,4.54,9.33,6.7,14a2.09,2.09,0,0,0,3.09,1.18c.24-.1.13-1.64-.19-2.36-3-7.09-6.19-14.14-9.29-21.21C311.18,635.07,309.59,634.22,307,634.94Zm-8.68-53.26c.06-7.56-.18-14.95-4.54-21.57-1.45,1.07-1.59,1.87-1.18,3.6a47.49,47.49,0,0,1,1.53,12.3C294,580.28,293.52,580.27,298.3,581.68ZM284.13,587c-1.39,2.67,1.07,3.48,1.84,5,2.27,4.39,4.56,8.78,7,13.06.44.77,1.72,1.06,2.6,1.57,0-1,.44-2.21,0-2.94-2.9-5-5.95-9.88-9.06-14.74C286,588.08,285,587.63,284.13,587ZM304,620.33c-1.45-3-2.79-6.06-4.38-9-.36-.64-1.62-.78-2.46-1.16a6.45,6.45,0,0,0-.09,2.3c.78,2.15,1.85,4.2,2.63,6.35S301.76,621.57,304,620.33Zm-7.28-32.75c.36-1.68,1.28-3.58.78-4.1-1-1-3.63-2.14-4.05-1.7-1.37,1.43,0,2.81,1.23,3.91C295.15,586.15,295.66,586.63,296.67,587.58Z"/><path class="cls-1" d="M307.59,664c1.38,3.54,2.81,7.05,4.08,10.62a2.92,2.92,0,0,1-.25,2.4c-4.42,5.47-9.92,9.22-16.91,10.53a12.31,12.31,0,0,1-14.28-8.76c-.53-1.89-1.18-3.74-1.77-5.61s-.3-3,1.94-2.9C289.71,670.53,301,667,307.59,664Zm-21.68,11.07c.1.44.33,1.55.62,2.64s.65,2.44,1,3.65c1.24,3.82,2.33,4.57,6.28,4,5.29-.71,9.1-4,12.79-7.54,2.39-2.32,2.44-4.48,1.06-7.32-.58-1.18-.93-1.28-1.94-1C299.17,671.44,292.57,673.26,285.91,675.11Z"/></g><path class="cls-1" d="M315.82,209.81c1.21-2.89,2.51-5.74,3.59-8.67,1.32-3.6,3.15-7.22,3.41-10.91.18-2.62,2.59-5,.57-8.18-1.17-1.85,0-5,0-7.6a12.22,12.22,0,0,0-.13-2c-.24-1.43-.53-2.85-.8-4.28l1-.51c-1.23-.15-2.48-.23-3.7-.46-6.8-1.26-11.92-5.61-17.72-8.75s-7.85-9.76-14.4-13q-1.39,5.75-2.78,11.51a21.06,21.06,0,0,1-1.31,4.65,3,3,0,0,1-2.79.42c-3.34-3-6.86-5.82-7.88-10.61-.54-2.55-2.15-5-3.73-7.2-2.88-4-6-7.9-9.2-11.65-3.39-3.93-3.52-3.86-8.23-.58-1.23.85-2.22,2-3.48,2.81a9.09,9.09,0,0,1-2.64.73,9.11,9.11,0,0,1-.15-2.07c.67-4.42-2.37-7.26-4.83-10.26-2.81-3.43-6.44-3.2-9.89-1.08-1.14.71-1.68,2.39-2.35,3.69-1.07,2.09-2,4.23-3,6.33-2.53-1.53-4.48-4.56-8.47-4.41-.9,0-1.71-2-2.84-2.7-2.66-1.6-5.56-2.84-8.22-4.45-2.25-1.36-4.17-3.23-6.46-4.5a7.75,7.75,0,0,0-4.88-1.11c-1.13.25-1.79,2.2-2.79,3.28-.39.43-1.25.9-1.68.75a3.56,3.56,0,0,1-1.84-1.49c-1.31-2.21-3.08-2.61-5.6-2.13-2.25.42-3.52,1.75-5.21,3-6.69,4.9-7.35,12.35-9.62,19.12-1,3.15-1.52,3.28-4.72,2.26-2.79-.89-5.9-.88-8.76-1.25v17l-.92.05q-1-16-1.93-32.06l-.55-.07c-1.58,3.34-3.48,6.57-4.65,10-2.53,7.52-4.88,15.11-6.91,22.76-1.1,4.15-1.22,8.53-2.09,12.75-1.15,5.52.74,10.7,1.39,16,.19,1.53-.49,3.24-1.05,4.76-1.9,5.19.32,10,1.65,14.76A73.74,73.74,0,0,0,143.81,216c1,2,2.45,3.87,5.46,3.3.45-.09,1.2,1.28,1.81,2-1,.36-2.39,1.31-2.89,1-1.81-1.21-2.3-.43-2,1.08,1.14,5.39,2.46,10.75,3.71,16.12l1-.07c0-1.17.1-2.35,0-3.52-.44-4.62,1.38-8.57,3.95-12.26.92-1.32,2.22-2.43,3.73-.55a58.62,58.62,0,0,1,4.2,5.65c1.37,2.19,2.25,4.67,3.69,6.8,3.13,4.63,6.42,9.17,9.77,13.65,3.76,5,8.35,9.14,14.66,11.1-.23,6.22-.62,12.44-.65,18.67-.08,12.85,4,24.92,8.07,37.86.22-2.25.37-3.7.51-5.14,0,2.19-.33,4.5.27,6.54.38,1.29,2.05,2.47,3.42,3.21,1.69.91,3.78,1.11,5.49,2s2.74.67,2.88-1.29a17,17,0,0,0-.24-3.09c-.37-3.32-.83-6.64-1.08-10-.1-1.21.44-2.46.41-3.69-.12-4.7-.31-9.39-.54-14.08-.19-3.62,1-7.44-1.87-11.85-1.4,4.05-2.44,7.25-3.64,10.4a12.82,12.82,0,0,1-1.72,2.57c.4-6.48,3.71-11.87,6.35-17.51l1.18.23q.95,22.26,1.9,44.53l1.05,0q2.72-9.34,5.42-18.68c3-10.34,5.43-15.19,9.06-17.63a7.66,7.66,0,0,0-.68,2.46c.77,7.24,1.81,14.45,2.41,21.7.31,3.74,2.11,7.44.51,11.32-.29.71.54,1.84.86,2.77l2-1a12,12,0,0,1,1.91-.93c5.21-1.51,6.47-3.26,6.79-8.33.31-4.87,1.05-9.71,1.54-14.57a7,7,0,0,0-.3-1.88c-.53.34-1.27.56-1.56,1-2,3.22-3.94,6.48-5.89,9.73.42-1.95,1.6-3.58,2.15-5.38a156.14,156.14,0,0,0,4-15.24c.25-1.27-.9-3.43-2.09-4.22a69.63,69.63,0,0,0-9-4.58c-.74-.34-2-.73-2.47-.39-3.12,2.45-6,1.88-8.87-.29l-7.93-5.94c-3.24,3.54-9.5,3.23-12.21-.56-2.06-2.89-6.07-4.65-5.88-8.92,0-.11-.63-.24-1-.36-.63-3.93-1.45-7.84-1.84-11.79-.59-6.11-.22-12,3.18-17.64.81-1.35.15-4.73-1.1-5.78a58.08,58.08,0,0,0-11-6.93c-5.12-2.6-9.86-1.32-14.15,2.18-.56.46-1.57.43-2.37.62.23-.85.2-2.25.72-2.47,6-2.59,1.9-6.46.82-9.2a20,20,0,0,1-1-11.66,10.68,10.68,0,0,1,1.37-2.69c.12,4.4.15,8.81.38,13.2.14,2.6,3.46,7,5.06,6.8,5.19-.67,9.48,1.21,13.45,4.1,1.68,1.22,2.12.32,2.11-1.15a10.26,10.26,0,0,0-.42-2.37c-1.28-5,1.74-9.74,7-11,.49,2.46.23,5.45,1.63,7.28,3.78,5,10.08,3.89,12.77-1.81.28-.6,1-1,1.48-1.53,1.72,1.69,4.56,3.21,4.89,5.12a11.15,11.15,0,0,1-1.89,8c-4.12,5.26-3,4.79,1.7,8.22,1.26.92,2.43,1.23,3.43-.63,1.19-2.22,3-4.14,4.06-6.41,1.84-4.06,4.44-8,3.79-12.72-.14-1-1.44-2.8-2.16-2.79-7.28.19-12.37-3.65-17.25-8.05a5.47,5.47,0,0,0-2-1.32c-4.11-1.07-6.57-4.71-11-5.8s-8.14-4.09-12.4-6-7.64-2.21-11,1.18c-.11.11-.46,0-.69,0a12.29,12.29,0,0,0,.08-2.37,28.26,28.26,0,0,0-3.7-.27c-1.13-.08-2.25-.22-3.37-.32.84-.71,1.68-2,2.52-2,5.27,0,10.88-.73,15.74.74,7.79,2.35,15.12,6.15,22.57,9.5,1.69.76,3,2.27,4.58,3.28,3.52,2.26,6.9,4.93,10.75,6.46a15.38,15.38,0,0,0,8.92.35c1.46-.36,2.65-3.17,3.18-5.08,1-3.58,1.44-7.31,2.3-12,1.06,1.4,1.8,1.92,1.83,2.48.15,3.08.42,6.28.7,9.24.39,4-3.46,5.28-3.67,8.38,0,.17-.31.49-.44.48-5.27-.58-2.46,3.25-3.2,5.22-1.56,4.19-.55,8.78-3.76,13-1.92,2.5-2.93,5.95-5.47,8.45-.6.59-.43,2.1-.28,3.15.24,1.63.77,3.23.45,5.08-.47-1.07-1-2.11-1.4-3.21-2-5.91-6.94-8.65-12.47-10.94-3.05-1.26-5.11.3-7.07,1.77-5.39,4-6.86,9.63-6.27,16,.23,2.47-.1,5,.21,7.44.83,6.67,3.56,12.32,9.52,16.35,3.22,2.17,6,1,9.15-.18a58.21,58.21,0,0,1-6.53-4.27c-2.06-1.77-2.12-6-.55-8.15s3.16-.71,4.15.13c4,3.4,7.85,7,11.74,10.6l-3.68-1.92c-.75,1.62-2.35,3.59-2.44,5.62-.11,2.2,7.84,6.44,10.19,5.76a9,9,0,0,0,2.45-1.77c-.58-.49-1.2-.95-1.75-1.47-1-.93-1.93-1.9-2.89-2.85,3.72,2.19,7.47,4.34,11.16,6.56,3,1.83,5.92,3.93,9.08,5.56,1.36.7,3.24.4,4.85.71,5,1,10,3.19,14.86,2.76,6.22-.56,12.92,1.72,18.77-2.08a2.25,2.25,0,0,1,1.72-.29c5.58,2,10.32-.92,15.25-2.46,4.77-1.5,9.51-3.16,14.11-5.07,3.72-1.56,7.2-3.65,10.83-5.42,2.7-1.33,5.68-2.24,8.18-3.85,6-3.89,11.86-8.08,17.78-12.15a14.64,14.64,0,0,1,2.05-1.37c6.76-3.21,11.1-9,16.07-14,2.58-2.63,4.78-5.62,7.46-8.13,5.86-5.5,8.36-12.35,10-19.84,1-4.57,2.06-9,1.17-13.66s-5.68-7.67-10.59-7.36A20.8,20.8,0,0,0,363,192.78c-3.35,2.36-8.09,4.19-9.79,7-2.2,3.72-5.81,5.67-8.28,8.86-2.88,3.72-7.28,6.34-11,9.48-1.31,1.1-2.43,2.4-3.76,3.48-6.33,5.17-12.42,10.66-19.15,15.29-4.67,3.21-10.21,5.27-15.43,7.73a48.93,48.93,0,0,1-7.95,3.16,148.1,148.1,0,0,1-15.57,3.58c-5,.8-8.37-2.87-11.6-5.63a12,12,0,0,1-4.15-12.58c1.48-5.89,3.54-11.8,3.81-17.76.24-5.42-.6-11.18-4.47-15.89l.91-.54c1.1,1.52,2.31,3,3.27,4.58a29.74,29.74,0,0,0,3.15,5.09c.75-6.32,2.63-12.69-2.6-18.27,4.87,2,2.94,7.56,6.68,10.1l1.39-.68c-1.91,4-3.87,7.87-5.64,11.83-1,2.21,1.73,5.63,4.21,5.59a92.29,92.29,0,0,0,16.68-2,73.64,73.64,0,0,1,17.74-1.18c2.43.1,5.22,2.2,7,4.12,2.6,2.78.73,5.54-1.34,8-.54.64-.52,1.71-.75,2.58a15.84,15.84,0,0,0,2.58,0,6.46,6.46,0,0,0,1.61-.74l2.58-1.18a9,9,0,0,1-6.31,3.69c-1.44.19-2.55,2.55-3.88,3.87a27.07,27.07,0,0,1-2.28,1.85,86.53,86.53,0,0,0,4.71-8.38c1.88-4.37.14-8.56-4.18-9.88a23,23,0,0,0-7.29-.51c-6.79.2-13.59.38-20.06,2.81a5.62,5.62,0,0,1-3.09.23c-3.2-.78-6.35-1.75-9.38-2.61a17.42,17.42,0,0,1-.33,3.8c-.76,2.77-2.24,5.41-2.57,8.2a50.19,50.19,0,0,0,.3,10.24c.07.76,1.26,2.05,1.88,2a23.1,23.1,0,0,0,4.82-1.19c-.35-.83-.68-1.67-1.07-2.49-.49-1-1-2-1.53-3-1.22-2.27-1.4-4.72.61-6.39,2.49-2,5.32-4,8.36-3.23-.42,2-1.17,3.53-.95,5,.32,2.19,2,3.3,4.45,3a6.28,6.28,0,0,0,5.95-5.28c.27-1.13.37-3.47,2.66-2.1a27.84,27.84,0,0,1,4.82,4.22,1.73,1.73,0,0,1,0,1.56c-1.9,4.15-4.91,7.11-9.67,8.21-.62.14-1.54.63-1.62,1.07s.5,1.29,1,1.67c1.29.94,3.31,1.43,3.94,2.64,1.19,2.27,2.82,1.39,4.1.88,3.28-1.3,6.43-2.94,9.63-4.44.42-.2,1.19-.58,1.18-.59-1.48-2.92,1.83-3.35,2.8-5l-.88,5.05c4.91-3,9.81-5.81,14.4-9s8.75-6.52,12.92-10c5.41-4.54,10.68-9.23,15.91-14,5.89-5.34,11.45-11,17.56-16.12a32.83,32.83,0,0,1,16.33-7.7,9,9,0,0,1,6,2c6.58,5.23,5.28,12,4.39,19.16-.85,6.88-3.75,12.58-7.2,18.22-2,3.21-4.67,6-7.07,9-.36.45-1.07.74-1.22,1.22-1.75,5.76-7.36,8.27-11.3,12.1-4.36,4.24-9.44,7.83-14.42,11.43a185.77,185.77,0,0,1-16.07,10.75,190.25,190.25,0,0,1-18.64,9.28c-3.32,1.45-7.09,1.92-10.64,2.9-2.87.8-5.67,1.87-8.58,2.5-4.82,1-9.69,1.92-14.57,2.67-2.3.35-3.88,1-4.82,3.34-.69,1.77-2.36,3.24-3.8,4.66-1.9,1.87-.34,7.45,2.42,8.43,3.76,1.35,6.46,3.5,6.7,7.76.05.95,1.1,1.81,1.39,2.8.5,1.69.77,3.46,1.13,5.19l.05-.05h-4.08c-.73-2.66-1.45-5.69-2.45-8.62-.24-.7-1.41-1.15-2.22-1.6-2.54-1.41-5.07-2.83-7.7-4.08a3,3,0,0,0-2.49,0c-5,3.85-9.54,8.21-14.77,11.67-5,3.28-10.29,6.48-16,8.19-6,1.8-12.38,3.18-18.9,1.83a2.2,2.2,0,0,0-1.86.94c-1,2.89-1.88,5.85-2.78,8.8-2.49-3.89-4.63-8.23-7.73-11.81-2.83-3.28-6.84-5.58-10.07-8.58-3.76-3.49-7.22-7.26-10.81-10.91l3.51,1.58c-1.28-3.88-2.54-7.42-3.59-11s-1.94-7.29-2.84-10.95-1.77-7.13-2.5-10.73-1.37-7.17-1.87-10.79c-.48-3.46-.72-7-1.07-10.45,1.14,10.46,7.61,41.92,11.57,46,0-3-.39-5.43.08-7.69,1.14-5.46-.55-11.25,3-16.51,2-3,2.68-6.87,3.37-10.46.22-1.1-1.43-2.59-2.37-3.8-.25-.32-1.22-.07-1.51-.39q-5.55-6-10.95-12.13c-1.05-1.18-1.84-1.7-2.91,0-3.27,5.08-4.36,10.76-4.65,16.56-.25,5.3-.05,10.61,0,15.92-.56-1.83-1.62-3.67-1.56-5.48a132.48,132.48,0,0,1,1.28-15.8c.63-4.17.62-8.62,3.94-12.12.56-.6.17-2.46-.32-3.49-2.44-5.07-4.94-10.11-7.7-15-.63-1.13-2.33-1.77-3.66-2.37a4.35,4.35,0,0,0-1.64,2.31c-.18,1.77-2.3,2.27-2.45,3.69-.41,3.65-.6,7.34-.65,11a21.36,21.36,0,0,0,.69,5.44c1.5,6,3.36,12,4.67,18,1.7,7.91,3.26,15.87,4.42,23.86,1,7.1,1.57,14.27,2.05,21.43.2,3-.33,6-.57,9.63-3.82-3.4-5.81-7.26-5.85-11.37-.09-9.94-1-19.77-2-29.65a101.13,101.13,0,0,0-6.49-28.08C147,244.27,145,236.59,139.06,231c-2.07-2-3.32-4.76-5.42-6.69-1.29-1.19-3.49-1.49-5.27-2.19-.65,1.67-1.64,3.29-1.88,5-.78,5.7-1.38,11.43-1.84,17.17-.14,1.72-.12,3.8.75,5.18a26.11,26.11,0,0,1,4.14,16.13c-.1,1.52,1.13,3.09,1.6,4.68,1.39,4.7,2.77,9.41,4,14.15.54,2.05.74,4.18,1.09,6.28.65,3.89,1.12,7.83,2,11.68a65.73,65.73,0,0,0,2.67,7.37c.5,1.37.94,2.75,1.4,4.12l-1.33.41c-.79-2.09-1.45-4.25-2.4-6.27-2.05-4.36-4.42-5.2-9.38-3.94a6.07,6.07,0,0,1-4-.42c-6.32-3.51-10.62-8.79-13.63-15.11l0,0c2.57,2.74,5.17,5.45,7.7,8.21,2.82,3.07,6.06,4.41,10.39,3.22,1.63-.45,3.53.16,5.27,0a2.82,2.82,0,0,0,2-1.58c1.38-5.07-2.36-10.27-7.59-12a29,29,0,0,1-8.77-5,46.31,46.31,0,0,1-13.15-16.09c2.31,2.68,4.52,5.47,7,8s5,5.38,8,7.38c2.74,1.83,6.12,2.79,9.28,4,.38.14,1.75-.83,1.69-1.14-.86-5-.19-10.55-6.46-13.38-8-3.62-13.54-10-18.18-17A59.76,59.76,0,0,1,103,242c1.8,2.67,3.74,5.26,5.37,8,2.79,4.73,5.89,9.18,10.54,12.42a64.92,64.92,0,0,0,6.21,4,1.94,1.94,0,0,0,3-1.88c-.56-4.37-.16-9-3-12.9a6.78,6.78,0,0,0-2.67-2.55c-6.62-2.46-11-7.27-14.53-12.81-2.54-4-4.64-8.16-6.9-12.28-.18-.32,0-.8,0-.52,3.49,5.48,6.89,11.62,11.16,17.12,1.94,2.5,5.58,3.84,8.6,5.43.46.24,2.47-.92,2.54-1.55.44-4.29.44-8.61.81-12.91.39-4.46.94-8.92,1.76-13.33.07-.37,2.88-.68,4.23-.34,3.46.87,5,.11,4.65-3.35-.74-7.7-1.78-15.37-2.85-23-.08-.59-1.2-1.2-2-1.51-3-1.22-6-2.29-9-3.47-2.63-1-2-2.76-.27-3.74,4.19-2.31,5.17-6.63,6.6-10.25,2.57-6.49,4-13.41,5.84-20.15,1.28-4.58,2.68-9.14,3.7-13.77a5,5,0,0,0-1.32-3.68c-2.08-2.45-4.59-4.56-6.68-7a48.19,48.19,0,0,1-3.62-5.49l.06,0c1.79-1.42,5.19-1.39,4.46-4.71l3.92,1.8a23.22,23.22,0,0,1-1.53,1.88c-3.2,3.24-3.27,5-.16,8.29,1.45,1.52,3,3,4.44,4.48,1.85-1.64,2.68-3.21.21-5a3.72,3.72,0,0,1-1-2.12c-.54-2.34-1-4.7-1.43-7.06,4.7-3.41,9.59-6.6,14-10.29a138.6,138.6,0,0,0,17.48-17A22.28,22.28,0,0,0,171.33,81c.26-1.62-.22-5.76,4.85-3.85,2.2.84,5.58-1.29,8.45-2,3.92-1,7.82-2.06,11.8-2.68,4.23-.67,8.39-6,7.61-10.52-.31-1.77-.89-3.5-1.5-5.87,2.84,1.28,5.58.77,8.51,2.93,3.24,2.37,6.29,4.95,9.46,7.39.26.19,1.11-.27,1.66-.49,1.58-.67,3.22-2.1,4.4.55.1.24,1,.25,1.47.22,1.58-.13,3.16-.46,4.75-.47,6.14,0,10.68,5,17,5,1.83,0,3.85,2.22,5.48,3.73,3.06,2.84,5.08,2.82,7.66-.3,3.73-4.52,7.5-9,11.36-13.44.54-.61,1.69-.73,2.56-1.07a6.7,6.7,0,0,0,.49,2c.36.6,1.08,1.43,1.62,1.41,2.76-.11,3.7,1.73,4.65,3.64.09.19,0,.52.12.66,3.14,3.3,6.18,6.69,9.54,9.77.77.7,2.74.67,4,.33,4.12-1.11,8.13-2.56,12.22-3.76.55-.17,1.8.19,1.87.48a4.36,4.36,0,0,1-.44,2.12c-.45,1.33-.95,2.64-1.43,4a29.45,29.45,0,0,0,5-1.23c2.38-1,4.47-2.76,6.91-3.56a91.25,91.25,0,0,1,12-2.89c1.62-.29,3.4.27,5.11.44a16.37,16.37,0,0,1-1.2,3.86C333.82,83.16,331,89.09,331,95.86a25.32,25.32,0,0,0,1.2,5.78c.41,1.69.41,4.14,1.55,4.87a6.12,6.12,0,0,1,2.88,4.33c.23.89,2.26,1.4,3.53,2s2.38.91,3.58,1.35c-.05.37-.1.73-.14,1.1l-9-1.56c1.56,2.08,2.49,3.36,3.48,4.6a6,6,0,0,0,1.05.81c-3,4,3.63,4.18,3,7.18,4.6,2.62,7.06,8.06,13,9,1.23.2,2.32,1.14,3.53,1.6,3.44,1.31,6.92,2.54,11.47,4.2l-8.26,4.21a2.55,2.55,0,0,0-.65.28c-6,5.69-13.48,5-20.91,4.59a1.54,1.54,0,0,0-1.1.52,11,11,0,0,0,2.82,14.83c.56.43,1.18,1.43,1,1.93s-1.18,1.08-1.92,1.29c-4.33,1.19-8.72.58-13.09.19-1.39-.13-2.8-.29-2.44,1.81.32,1.86,1.25,3.93.71,5.54-1.22,3.68,1.95,7.86-1.67,11.25-.74.69-.15,2.55-.47,3.8-.89,3.51-1.56,7.13-3,10.42C319.87,204.65,317.64,207.14,315.82,209.81Zm-54.89,84.55c-.3,2-.59,3.93-.89,5.89l1,.51,10.22-13.17c-5.74-1.31-6.81-.58-7.51,4.09-.12.8-1.42,1.43-2.17,2.14.79-2.41,1.57-4.82,2.19-6.74a50.2,50.2,0,0,0-6.11-1.1c-1.14-.07-2.88-.42-2.48,2,.68,4.22.91,8.51,1.32,12.77l.91.31Zm46.95-189.8c-1.24-.66-2.1-1.43-3.07-1.57-4.07-.61-8.18-1.43-12.26-1.38-3.06,0-3.86-1.74-4.29-3.63-.2-.89,1.21-2.19,2.05-3.18a18.17,18.17,0,0,1,2.57-2,11.2,11.2,0,0,0-2.81-.5c-2.28.29-4.52.83-6.8,1.11-2.88.36-5.86-1.57-8.72.33a1.45,1.45,0,0,1-1.17-.4c-.06-.52.31-1.06.3-1.6,0-2.17-.12-4.34-.19-6.5-1.13.71-2.25,1.45-3.39,2.13a4.38,4.38,0,0,1-1,.3c-4.35,1.33-8.64,3-13.09,3.83-1.42.27-3.87-1.2-4.83-2.55-2.92-4.09-5.42-5-9.8-2.91a8.11,8.11,0,0,1-2,.57c-2.81.54-6.08.36-8.35,1.73-3,1.8-3.44.54-3.85-1.71-.7-3.79-2.34-4.73-6.08-3.29-2.12.82-4.21,1.72-6.2,2.53-.8-1.62-2-3.24-2.39-5-.65-2.73-1.9-2-3.52-1-2.35,1.47-4.56,3.35-7.14,4.23a105.87,105.87,0,0,1-13.69,3.45c-2.1.42-4.36.07-6.33.07-2.66,3.39-5.75,7.13-8.61,11a28.39,28.39,0,0,0-3,5.6c-.26.59.18,1.49.38,2.23a1.7,1.7,0,0,0,1-.11q4-3,8-6c4.27-3.29,4.76-3.21,7.11,1.35a6.38,6.38,0,0,1,.35,1.4l1.37-.52c.58-2.25.88-4.63,1.86-6.71.6-1.27,2.26-2.09,3.44-3.11.22,2.81,2.95,3.69,4.47,5.5,2.69,3.22,4.94,6.78,7.52,10.08a2.5,2.5,0,0,0,2.3-.17c2.94-3.15,5.72-6.43,9.33-10.56a74.13,74.13,0,0,0,.44,7.77c.13.8,1.2,1.61,2.05,2.08.39.22,1.46-.18,1.89-.61,2.41-2.42,4.61-5,7.09-7.39,1.84-1.75,3.85-3.1,5.71.32.53,1,2.24,1.29,3.25,2.09,1.41,1.12,2.69,2.39,4,3.63.36.35.47,1,.88,1.22,2.37,1.21,4.85,2.22,7.18,3.5,1.33.73,1.94,1,2.48-.78a2.34,2.34,0,0,1,4.24-.92c2,2.53,3.79,5.25,5.81,8.08.62-1.46,1.34-3.25,2.14-5,.45-1,1.05-1.92,1.58-2.88.87.66,2.11,1.15,2.55,2,2.54,4.94,4.9,10,7.28,15a11.29,11.29,0,0,1,1.28,3.29c.37,2.84.49,5.71.71,8.56l1.27.08c.44-1.88.76-3.79,1.33-5.62,1.78-5.71,3.48-11.44,5.58-17,.66-1.78,2.47-2.5,4.33-.61,2.42,2.47,5.11,4.7,7.44,7.23,2.9,3.16,5.52,6.56,8.35,9.78.48.55,1.44.7,2.11,1.13,1.65,1,3.27,2.14,5.42,3.56.16-.94,1.21-3.17.55-3.85-1.89-1.92.16-3.17.18-4.69a39.65,39.65,0,0,1,4,1.64c3.58,1.94,7.05,4.06,10.67,5.9.86.44,2.16.07,3.26.08-.52-.78-1-1.58-1.58-2.33-2.52-3.39-5.31-6.62-7.49-10.2a14.37,14.37,0,0,1-1.89-6.76c-.1-2.79-1.35-4.71-4.13-5.26-4.49-.9-8.94-2-13.74-3.08ZM197.29,319.21l.85-.53c-7.81-16.59-8.63-34.37-10.31-52.15-2,5.49-4.08,11-4.68,16.58-.72,6.8-.33,13.73-.1,20.6.07,2.15.59,4.78,2,6.29,2.45,2.69,5.68,4.74,8.64,7C194.79,317.83,196.07,318.47,197.29,319.21ZM225,288.78c-1.67,3.11-3.35,5.46-4.24,8.05-2.22,6.47-4,13.06-6.09,19.58-2.26,7.18-2.39,8.12,6.17,7.09,2.14-.26,5.2.34,6.19-.79s.06-4,.21-6.1,1-4.11.86-6.11c-.46-5.65-1.26-11.28-2-16.91C225.89,292.17,225.44,290.79,225,288.78Zm18.5,25.55a5.56,5.56,0,0,0,2-.65c2.61-1.82,5.95-3.32,7.46-5.81a18,18,0,0,0,2.28-9.89c-.13-2.5.89-5.91-2.39-7.8-.3-.17-.06-1.06-.28-1.53-.56-1.2-.93-2.85-1.92-3.37-1.41-.75-3.31-.63-5-.9-3.63-.57-4.26.22-3.59,3.79.77,4.14,2.4,8.06,1.64,12.56S243.47,309.68,243.47,314.33Zm38.12-67.87c-4.26-2.46-8.3-4.41-13.15-3.3-1.66.39-3.28,1-4.92,1.48a27.9,27.9,0,0,0,4,2.93C272.09,249.9,278.24,249.43,281.59,246.46ZM151.08,119l-1.07-1c-2,1.45-3.93,3.24-6.19,4.26-2.95,1.32-3.26,3.37-2.79,5.94.12.65.37,1.28.55,1.92.71-.3,1.7-.42,2.1-.94C146.22,125.79,148.63,122.37,151.08,119Z"/><path class="cls-1" d="M177,428.36c.83,1.35,1.63,2.72,2.48,4,4.72,7.41,9.39,14.87,14.23,22.17,2.78,4.22,5.71,8.33,8.8,12.21,7.61,9.57,14.57,20.07,24,27.12,2.71,2,5.45,4.22,8.36,5.51,4.81,2.16,8.77,1,11.94-4.5,2.81-4.93,3.34-10.65,4.63-16.17.75-3.2,1.84-6.23,2.74-9.35.23-.77.29-1.63.45-2.43l2.82-14.1,1.35.39c-.05,2.56-.11,5.12-.12,7.69,0,4.63-.1,9.26,0,13.9a163.11,163.11,0,0,1-1.34,22.29,50.92,50.92,0,0,1-4.62,15.37c-1.54,3.4-7.28,4.68-10.53,3.49-6.57-2.4-11.25-8.43-16.49-13.43-2.55-2.43-5.32-4.54-7.74-7.16-1.19-1.3-1.67-3.58-2.73-5.17-5.07-7.64-10.32-15.12-15.34-22.82q-9.19-14.07-18.09-28.42c-2-3.18-3.59-6.69-5.37-10.05Z"/><path class="cls-1" d="M288,372.53c-.56.92-1,2.29-1.69,2.68-2.74,1.63-5.54,3-8.77,4.63.83.74,1.23,1.38,1.64,1.39,2.16.07,4.33,0,6.5-.06a2.08,2.08,0,0,0,1.47-.42c2.76-2.7,5.49-5.54,8.24-8.26a10,10,0,0,1,1.81-1.23,19.26,19.26,0,0,1,2.22-1.42,7.85,7.85,0,0,1,1.83-.43,12.48,12.48,0,0,1,0,3.1c-.52,1.72-1.4,3.08-1.88,4.81a21.42,21.42,0,0,0-.32,4l0,0c-.86.25-1.88.05-2.55.83-2.37,2.78-4.48,6.41-7,8.69-1.33,1.21-3.26.46-4.89.18-.38-.06-.88-1.73-.94-2.74,0-.6.62-1.45,1-2a9.21,9.21,0,0,0,1.85-3.17,24.36,24.36,0,0,0-2.67-.34c-2.6-.07-5.22.32-7.78-.22-1.69-.35-3.26-2.51-5-2.91-2.24-.52-4.55-.13-6.53-.13,1.47-3.39,3.63-3.91,6.21-1.86,4.2,3.33,8.16.46,12.11-1.9,1.66-1,3.29-2.18,4.93-3.28Z"/><path class="cls-1" d="M260.87,415.74c-1.4-7.48.56-13.27,5-14,2.66-.44,5.37,0,8-.21,1.9-.13,3.8-.66,5.69-1,3-.46,5.92-.74,8.87-1.37a4.55,4.55,0,0,0,2.7-1.94c1.8-2.68,3.18-6.78,5.2-8.32,2.23-1.7,2.26-4.64,2.8-7.62l0,0c1.68,2.51.18,5.13-.28,7.07a27.6,27.6,0,0,0-.35,8.54c.25,3.95.27,7.95.13,12.12-.47-5.39-.93-10.79-1.41-16.34-2.28,2.32-4.46,4.86-6.79,6.79a9.63,9.63,0,0,1-5,2.39c-5.66.52-11.34.54-17,.93a23.08,23.08,0,0,0-4.65,1.34l0,1c.37.17.73.48,1.1.47,2.31,0,3.85,2.78,3.24,6.56a3.74,3.74,0,0,1-2.23,2.43,30.39,30.39,0,0,1-5,1.19Z"/><path class="cls-1" d="M141.12,318.28c.69,5.09,1.25,10.2,2.13,15.26a10.47,10.47,0,0,0,2.22,5c1.48,1.69,3,3.42,6.25,2.2a12.79,12.79,0,0,1,7.82.27c4.15,1.38,5.31,5.34,6.31,9,1.62,5.85.11,11.4-3,16.42-2.28,3.72-5.29,4.21-8.74,1.69a127.12,127.12,0,0,1-10.65-8.85c-.72-.66-.51-2.25-.11-3.65a52.53,52.53,0,0,0,5.28,5.27,31.8,31.8,0,0,0,7.19,4.15,5.57,5.57,0,0,0,4.31-.57c5.28-3.32,6.7-14.81,1.25-19.26-1.08-.88-2.85-1.06-4.35-1.36a6.94,6.94,0,0,0-2.5.25c-8.08,1.54-10-1.53-12-8.38-1.63-5.51-1.2-11.58-1.69-17.4Z"/><path class="cls-1" d="M113.29,297.43c-2.08-3.52-4-7.18-6.34-10.49-.88-1.23.56-5.45-3.54-3.39-.39-1-.8-1.94-1.17-2.93-1.68-4.52-3.47-9-5-13.58a41.58,41.58,0,0,1-2.2-11.25,61.1,61.1,0,0,1,3.17,5.84c1.34,3.25,2.23,6.69,3.62,9.92,3.74,8.65,7.65,17.23,11.49,25.84Z"/><path class="cls-1" d="M129.22,96.81l-2-1.33a9.61,9.61,0,0,0-.55,2.58c.06,1,.5,2,0,3.12q-2.13-8.87-4.25-17.71l.07-.08c2.41,2.7,4.52,2.35,6.18-.73.91-1.7,1.78-2.64,3.84-1.47,2.27,1.3,1.48,2.4.28,3.93-1.05,1.34-1.38,3.45-2.64,4.37-3.12,2.28-3.13,4.53-.88,7.26Z"/><path class="cls-1" d="M112.06,54.66l3,7.05a33.57,33.57,0,0,1,3.31-2.57c1.42-.86,3-1.5,4.48-2.23.61,2.51,1.74,5.13-1.22,7-2.09,1.31-4.22,2.56-6,3.66l-4.17-12.67Z"/><path class="cls-1" d="M122.44,83.47c-2.64-3-3.13-10.83-.53-13.34.83-.8,3.21-1.26,3.89-.69,1.36,1.15,4,3,.69,5-3.49,2.11-4.35,5.24-4,9Z"/><path class="cls-1" d="M129.06,99.66l3,7a33.57,33.57,0,0,1,3.31-2.57c1.42-.86,3-1.5,4.48-2.23.61,2.51,1.74,5.13-1.22,7-2.09,1.31-4.22,2.56-6,3.66l-4.17-12.67Z"/><path class="cls-1" d="M86.81,217.31q4.6,13.27,9.22,26.54c-5.41-8.08-8.18-17.09-10.45-26.28Z"/><path class="cls-1" d="M317.22,220.86c-.75-7.41-4.91-11.52-13.12-11.84,3.46-2.17,6.16-1.82,8.43.48.58.59,1.84.57,2.8.83a67.38,67.38,0,0,1,2.64,7.14C318.24,218.48,317.5,219.72,317.22,220.86Z"/><path class="cls-1" d="M288,372.47a49.59,49.59,0,0,1,3.8-5.59c2.35-2.6,4.84-4.77,7.28-7.13l0,.08c-1.48,2-2.87,4.27-4.43,6-2.15,2.42-4.43,4.46-6.65,6.67Z"/><path class="cls-1" d="M170.5,265.71q-2.94-13.32-5.87-26.64l.94-.2q2.88,13.33,5.74,26.67Z"/><path class="cls-1" d="M225.69,169.08c0,6.08-1.57,7.31-5.67,7.91-1.83.27-4-.79-5.85-1.63-5.1-2.35-8.12-6.72-11.11-11.06-1.16-1.68-1.16-4.39-4.27-4.36-.27,0-.65-.63-.8-1a52.26,52.26,0,0,1-2.22-6.64,50.55,50.55,0,0,1-1.1-8.65c-.08-2.3,3.92-4.19,7-3.52.8.17,1.94.26,2.29.78,2.49,3.63,7.77,3.9,10,8,1.2,2.24,3.44,4,5,6.07a48.05,48.05,0,0,1,2.48,4.85c.67,1.23,1.64,2.31,2.21,3.57C224.39,165.22,225,167.17,225.69,169.08Z"/><path class="cls-1" d="M279.13,194.86c1.14-1.32,2-2.82,3.25-3.66,3.54-2.3,7.25-4.38,11-6.37.67-.36,1.81.17,2.74.18,2.38,0,4.92.49,7.1-.15a5.69,5.69,0,0,1,6.63,2.61c.67,1-.75,3.84-1.94,5.31-3,3.73-7.47,4.89-12.21,5.27a11.47,11.47,0,0,0-3.07.79c-4.16,1.56-8.1.76-11.85-1.13C280,197.34,279.8,196.07,279.13,194.86Z"/><path class="cls-1" d="M160,190.16c-4.11-3.86-6.68-8.52-6-14,.77-6.18,8.28-11.07,14.92-10.93,5.86.12,11.23,2,16.57,3.71,2.06.66,5.31,2,4.86,4.88-4.21-1.78-8.48-3.77-12.88-5.4-7.56-2.81-14.36-1.49-20.22,4-.39.36-1,.9-.91,1.29.6,4.61,1.24,9.22,2.05,13.8C158.54,188.41,159.43,189.26,160,190.16Z"/><path class="cls-1" d="M146.9,168c0,6.08-.06,12.16,0,18.25,0,2.75.53,5.5.61,8.25a30.37,30.37,0,0,1-.57,4.62c-.32,2.4-.58,4.81-1,7.2a1.79,1.79,0,0,1-1.1,1c-.24.07-.93-.42-1-.76-1.22-4.2-2.83-8.37-1.56-12.89,3.94,1.66,3.78,1.67,3.63-2.74-.11-3.26.4-6.53.37-9.8,0-2.83-.5-5.65-.68-8.48-.1-1.56,0-3.13,0-4.7Z"/><path class="cls-2" d="M251.85,436.62c2.56.61,5.4-.22,7.38-4.37a56.94,56.94,0,0,1,3.49-5.63c.33,6.85.65,13.66,1,20.47.14,2.89.8,6,.36,8.61a31.78,31.78,0,0,0-.22,9c.45,4.17-.06,8.19-.4,12.27-.5,6-.12,12.38-2.13,17.88a3.94,3.94,0,0,0-.14.94c-.42,7-.91,14-1.22,21.07-.17,4,.32,8.18-.17,12a44.12,44.12,0,0,0,.3,13.5,3.22,3.22,0,0,1,.05,1.4l1.25.19c-.77-.86-1.21-2.1-.85-4.53l3.87,2c-.06-4.24-1.65-6.25-3.29-7.53s-.84-3.56-.65-4.92c.3-2.2,1,0,1.51.2a14.82,14.82,0,0,0,2.52.51,36.63,36.63,0,0,0-.24-5,2.37,2.37,0,0,0-1.47-1.72c-2.12-.37-2.51-2.6-2.32-5.68,0-.71,0-1.43,0-2.15a13,13,0,0,1,1.38.62c.29.18.54.61.83.75a16,16,0,0,0,1.72.61c0-1.35.34-3.07,0-4a14.08,14.08,0,0,0-2.53-3.72,5.77,5.77,0,0,1-.67-5.64c1-2,1.38.37,2.07,1,.52.45,1.29.06,1.95,0-.2-1.49,1.67-2.81,0-4.51a41,41,0,0,1-3.24-4.37c1.51-5.46,1.51-5.46,4.8-2.66.05,0,.09.16.14.22,1,1.07,1.22.3,1.28-1.32a8.47,8.47,0,0,0-3.29-6.86,3.48,3.48,0,0,1-1-2.23c.13-5,.31-5.09,2.88-2.39.32.33.7,1,.94.9a2.22,2.22,0,0,0,1-1.48c.09-4.82-.28-5.52-3-6.59-.4-.16-1.09-.59-1.1-.94-.08-3.45,0-6.91,0-11,.75.76,1,1.15,1.18,1.17,1.1.1,2.2.11,3.3.15-.57-2-1.09-4-1.72-5.85-.13-.37-.74-.14-1-.47-.89-1.08-2.37-1.56-1.64-4.52a8,8,0,0,0-.13-1.9c-.05-1-.07-2-.1-3a6.86,6.86,0,0,1,1.81.16c.41.14.77.86,1.18.93a1.08,1.08,0,0,0,1-.71c.4-1.45-1-5.84-2-5.69-2.65.41-2.65-2.41-2.56-5.69.83-.06,1.64-.1,2.46-.19,1.91-.21,2.48-2.23,1.73-5.34S266,429,265,429.18c-1.87.3-2-2-2.05-3.83s.43-3.62,2-2.69c.52.32,1.12.27,1.65.53,1.24.61,2.66,1.79,1.68-2.38-.13-.56.37-1.52.27-2.15-.19-1.14-.47-2.63-1-3.12a2.45,2.45,0,0,0-2.54-.72c-2.52,1.22-2.74-1.41-2.82-4.53l0-.07q.09,3.88.2,7.77c0,1.27.39,2.83.09,3.76-1.74,5.33-3.59,10.55-7.45,12-4.13,1.6-6.14-.16-7.42-7.06a83.71,83.71,0,0,1-1.11-8.63c-.3-3.63,1.28-5.81,3-4.44a19.37,19.37,0,0,0,3.08,2.24c2,1,5-2.17,5.23-5.72a19.79,19.79,0,0,0-.48-6.65c-2.44-7.56-1.2-14.07,1.44-20.43a12.81,12.81,0,0,0,.42-1.93,8.76,8.76,0,0,0-1.12.53,7,7,0,0,0-.82.82,17.79,17.79,0,0,1-.91-2.77c-.41-2.66-1.5-6.4-.88-7.84,1.22-2.83.54-4.58.17-7.12-.67-4.64-.15-5.84,2.11-8.25a20,20,0,0,0,2-3.61c.82-1.47,1.55-3.9,2.49-4.16,2.31-.64,4.72-.39,7.09-.32,2.73.1,5.19-1.46,7.46-3.78,1.91-2,3.6-4.56,5.44-6.75.44-.52,1.42-1,1.6-.66,1.24,2.42,1.89.8,2.65-.85a6.84,6.84,0,0,1,1.46-2.42c2.54-1.82,2.92-6.56,3.77-9.9s1.48-4.44,2.95-4.24c.27,1.63.47,2.8.65,4a17.62,17.62,0,0,1,.32,2.18,33,33,0,0,1-2.88,14.94,67.37,67.37,0,0,1-13.36,19.17,6.75,6.75,0,0,1-4.05,2.25c-3.21.22-6.44-.25-9.67-.23a11.11,11.11,0,0,0-3.22,1l.15,1c.58-.54,1.16-1.51,1.75-1.54a29.27,29.27,0,0,1,6.55.25c3.33.59,6.56,1.18,9.45-2.86,1.47-2.07,3.16-3.66,4.74-5.5,2-2.28,4.15-4.19,5.85-7,2.18-3.61,4-7.95,6-12.2a23,23,0,0,1,.71,2.72,10.31,10.31,0,0,1-.16,2c.52-.18,1.27-.06,1.52-.61,1.16-2.55,2.2-5.25,3.22-8,.52-1.37.9-2.88,1.33-4.34a7.17,7.17,0,0,0,.48-1.9c0-2-.1-4.06-.08-6.09,0-.42.39-1.21.56-1.18.76.12,1.92.08,2.16.83a31.67,31.67,0,0,1,.64,5.55,2.1,2.1,0,0,0,.39-.3,106.87,106.87,0,0,1,.33,11.23c0,.49,0,1-.05,1.48a102.08,102.08,0,0,0-3.79,10.87,21,21,0,0,1-3.92,8.23c-.56.77-.79,2.54-1.17,3.86l0,.07c1.53-2.55,3.17-4.89,4.57-7.7,1.75-3.55,3.23-7.65,5-11.21.87-1.77,1.3-3.29.85-4.84a41.13,41.13,0,0,0,.18-5.16,33,33,0,0,0-.31-5,10.47,10.47,0,0,0-1.33-3.47c-.05-2.37-1.07-6.37-2.08-6.61-1.39-.33-3.43,0-4.24,1.55-1.52,2.89-2.34,6.86-3.46,10.37-.25.8-.54,1.56-.81,2.34a17.1,17.1,0,0,1-.9-2.58c-.13-.66.14-1.52.07-2.25-.2-2.28-.06-5.26-.84-6.64-1.05-1.88-.59-2.69-.16-4.4,1-4.1,1.7-8.49,2.81-12.53.84-3.09.18-5.63-.48-8.17a6.43,6.43,0,0,0-1.77-2.92c-1.77-1.66-2.54,1.91-3.88,2.46-4,1.61-4.25,9-6.79,12.81a.62.62,0,0,0-.06.31,17.7,17.7,0,0,1-2.48,9.18,41.58,41.58,0,0,0-1.94,5.33c.74-1.12,1.52-2.15,2.2-3.37.46-.83.59-1.84,1.41-.43.33.56,1.77.21,2.15-.55,1.71-3.43,3.95-6.17,4.24-11.46.13-2.52,1.39-4.85,2.07-7.31a11.28,11.28,0,0,0,.59-3.34c-.09-2.7.86-2.29,1.69-1.82,1.25.72,2.3,4.29,2,6.84-.44,3.82-.92,7.64-1.55,11.38a45.1,45.1,0,0,1-1.57,5.92c-.12.39-.63.76-.9.65-3-1.2-4.54,2.89-6.08,5.83s-2.53,7-3.75,10.58a2.38,2.38,0,0,1-.33.81c-3.22,2.85-5.26,8.34-9,10.47-3.18,1.8-6.4,1.61-9.52,3.07-.93.44-2.31-1-3-.23A58.17,58.17,0,0,0,257,354.6c-1-6.06-.47-12.69,3.85-14.29a45.4,45.4,0,0,0,11.2-6,21.29,21.29,0,0,0,7.21-10,33.38,33.38,0,0,1-2.43,2.89,30.78,30.78,0,0,1-2.74,2.18,8.34,8.34,0,0,1-.91,2.05c-3.7,3.95-8,4.92-12.08,6.65-4.69,2-6.82,7.36-5.35,15.43a4.84,4.84,0,0,1-.23,2.47,11.11,11.11,0,0,0-1.35,7.28c.28,1.95,1.35,4.3,1,5.63-1.11,4.23.1,7.65.58,11.43a34.94,34.94,0,0,1,0,7c-.23,2.93-1.27,5.66-.66,8.8.54,2.78.94,5.66,1.6,8.35a14.05,14.05,0,0,1-.29,8.09c-.75,2.11-2.27,2.17-3.55,1.62a22.83,22.83,0,0,1-3.51-2.46c-2-1.47-3.55,0-3.38,3.8a109.81,109.81,0,0,0,1.33,13.06C247.9,432.52,249.68,436.11,251.85,436.62Z"/><path class="cls-2" d="M274,329.38h0l0-.05Z"/></g></g></svg>