<svg xmlns="http://www.w3.org/2000/svg" viewBox="0 0 217.61 724.42"><defs><style>.cls-1{fill:#fff;}</style></defs><g id="Capa_2" data-name="Capa 2"><g id="abierto"><path class="cls-1" d="M142.94,703.1a15.76,15.76,0,0,1,2.56.6c6.91,3.65,13.79,7.35,20.7,11,3.07,1.62,2.2,4.1,1,6.07-1.37,2.23-3.29,5-6.51,2.91-4.2-2.73-8.05-6-12.19-8.83-1.77-1.21-3.85-2.54-5.87-2.69-3.61-.28-3.43-2.53-2.73-4.6C140.48,705.77,142.06,704.32,142.94,703.1Z"/><path class="cls-1" d="M212.19,612.43c-.2,8-1.14,8.78-7.06,7.44-6.34-1.44-12.76-2.66-18.95-4.61-1.5-.47-3.13-3.51-3-5.24.11-1.52,3.43-4.34,3.91-4.07,6.73,3.79,14.41.6,21.13,3.16C210.11,609.84,211.51,611.84,212.19,612.43Z"/><path class="cls-1" d="M198.73,660.4c.24,5.56-4.29,8.62-8.39,6.33-6.25-3.5-12.49-7.06-18.37-11.12-1.14-.78-1.45-4.4-.64-5.91,1-1.89,2.93-2.59,5.88-.75,5.7,3.54,12.19,5.8,18.27,8.76A15.84,15.84,0,0,1,198.73,660.4Z"/><path class="cls-1" d="M203.33,647.28c-5.63-3-9.88-5.39-14.2-7.63-2.39-1.23-5-2.07-7.28-3.46-1.39-.84-3.25-2.36-3.28-3.61,0-1.45,1.42-3.42,2.78-4.25.86-.52,2.74.63,4.16,1,4.84,1.36,9.69,2.7,14.52,4.07,1.82.52,4.07.62,5.28,1.79a6.31,6.31,0,0,1,1.41,5C206.29,642.42,204.79,644.39,203.33,647.28Z"/><path class="cls-1" d="M173.73,534.64c-1.31.71-2.64,1.39-3.94,2.14s-3.73,2.55-3.95,2.31c-1.45-1.57-3.07-3.49-3.32-5.46-.12-1,2.52-2.33,4-3.46,1.16-.9,2.38-1.73,3.59-2.58,4.56-3.18,9-6.61,13.84-9.27.78-.42,4.12,2.33,5.08,4.22.77,1.51.41,5.19-.63,5.75-4.67,2.53-9.76,4.3-14.7,6.34Z"/><path class="cls-1" d="M178.39,698.57c-1.59,2.21-2.86,4.5-4.67,6.21-.58.54-2.83-.06-3.91-.76-4.9-3.15-9.66-6.53-14.47-9.82a23.84,23.84,0,0,1-2.44-1.6c-1.1-1-3.08-2.34-2.89-3.1a8.75,8.75,0,0,1,3.14-4.75c.72-.51,2.78.7,4.14,1.34,1.6.76,3.09,1.76,4.64,2.63,5,2.8,9.94,5.58,14.89,8.4A9.63,9.63,0,0,1,178.39,698.57Z"/><path class="cls-1" d="M180.76,552.8c-2.55,3.94-5.48,3.13-7.47-.11-.74-1.21.11-4.89,1.27-5.52A215.6,215.6,0,0,1,194.15,538c1.39-.58,4.86.18,4.91.59.29,2.65,4.92,5.33.47,8-4.64,2.78-8.86,6.76-15.08,5.48-1.16-.24-2.54.55-3.82.87Z"/><path class="cls-1" d="M191.76,571.8c-2.55,3.94-5.48,3.13-7.47-.11-.74-1.21.11-4.89,1.27-5.52A215.6,215.6,0,0,1,205.15,557c1.39-.58,4.86.18,4.91.59.29,2.65,4.92,5.33.47,8-4.64,2.78-8.86,6.76-15.08,5.48-1.16-.24-2.54.55-3.82.87Z"/><path class="cls-1" d="M194.94,592c-3.81,2.74-6.24.91-6.91-2.83-.25-1.39,1.89-4.51,3.2-4.67a213.38,213.38,0,0,1,21.6-1.39c1.51,0,4.46,1.94,4.35,2.34-.69,2.57,2.63,6.77-2.49,7.62-5.33.89-10.72,3-16-.42-1-.64-2.57-.41-3.88-.58Z"/><path class="cls-1" d="M188.4,679.8c-.13,3.92-5.85,7.71-8.36,6.2-3.68-2.23-7-5-10.59-7.46-2.2-1.49-4.9-2.4-6.74-4.22-1.18-1.16-2.14-4-1.49-5.17.75-1.3,3.84-2.59,5.11-2,5.9,2.6,11.57,5.73,17.21,8.88A35.22,35.22,0,0,1,188.4,679.8Z"/><path class="cls-1" d="M78,127.49c3.92,1.58,7.89,3.06,11.74,4.8,1.26.56,3.3,2.38,3.18,2.59-1.34,2.31-3.06,6.25-4.63,6.23-4.06-.07-8.16-1.71-12.12-3.08-2.84-1-5-4.38-8.76-2.1-.31.19-2.82-2.35-3.47-4-.49-1.22.36-3,.62-4.49Z"/><path class="cls-1" d="M87,298.13c-5.21-.65-11-1.11-16.62-2.27-1.25-.26-2.77-3-2.72-4.58,0-1.39,2-3.85,3.25-3.89,6.75-.24,13.54.48,20.28.14,4.87-.24,5.22,2.12,5.21,5.87,0,4.19-1.93,5.54-5.79,5C89.6,298.22,88.56,298.23,87,298.13Z"/><path class="cls-1" d="M85.23,273.63c-1.78-.37-4.73-1.17-7.74-1.54a12.17,12.17,0,0,0-4.53.72c-2.58.73-4.85.34-4.82-2.64,0-1.87,1.23-5.11,2.41-5.36a183.35,183.35,0,0,1,19-2.74c5.41-.57,7.16,1.13,6.77,6.59C95.84,275.7,90.29,272.8,85.23,273.63Z"/><path class="cls-1" d="M81.52,162.14c-4.16-1.4-8.31-2.85-12.5-4.17-1.53-.47-3.2-.51-4.75-.94-1.33-.38-3.47-.8-3.69-1.62a6.64,6.64,0,0,1,.62-5.15c.67-.91,3-.76,4.59-.78a41.5,41.5,0,0,1,5.88.48c5.16.69,10.35,1.31,15.42,2.43.55.12.9,3.38.54,5C86.7,161.58,86.34,161.67,81.52,162.14Z"/><path class="cls-1" d="M74.17,224.66c-2.82.68-5.66,1.93-8.45,1.83-1.69-.06-4.27-2-4.67-3.48s1.15-4.76,2.47-5.16c5.93-1.79,12.09-2.85,18.17-4.14,5.4-1.14,7.28-.07,7.38,5,0,1.67-1.56,4.39-3,4.86-3.7,1.22-7.73,1.44-11.63,2.07Z"/><path class="cls-1" d="M74.39,202.31c-4.48.7-9,1.77-13.45,1.81-1.12,0-2.87-3.28-3.16-5.22-.18-1.23,1.63-3.83,2.83-4,6.81-1.11,13.7-1.72,20.57-2.4,2.74-.27,4.82-.07,5.23,3.78s-.94,5.65-4.15,6.39a56.07,56.07,0,0,1-7.7.7C74.5,203,74.45,202.66,74.39,202.31Z"/><path class="cls-1" d="M77.47,182.52c-3.7-.93-7.37-2.06-11.12-2.67-1.46-.23-3.29,1.37-4.62,1-1.64-.46-4.16-2.16-4.12-3.26.06-1.87,1.64-5.12,2.89-5.27,5.5-.67,11.11-.47,16.68-.52a13.81,13.81,0,0,1,4.07.39c2.59.8,5.79.84,4.77,5.41-.86,3.88-2.61,5.17-6.31,4.3a12.74,12.74,0,0,0-2.06-.12Z"/><path class="cls-1" d="M69.06,241.71c5.42-1.4,10.79-3,16.25-4.15,6.56-1.4,9,1.07,7.7,7.64-.16.82-1,2.08-1.66,2.14-5.18.48-10.39.71-15.58,1.06-1.71.11-3.42.36-5.13.48-1.44.11-3.6.71-4.17,0a6.43,6.43,0,0,1-1-4.7c.21-1.26,1.66-2.31,2.56-3.46Z"/><path class="cls-1" d="M77.7,115.14c-5.2-.65-11-1.11-16.62-2.27-1.24-.26-2.76-3-2.71-4.58,0-1.39,2-3.85,3.24-3.89,6.75-.24,13.54.47,20.28.14,4.87-.25,5.23,2.12,5.21,5.87,0,4.19-1.92,5.54-5.79,5C80.3,115.22,79.26,115.23,77.7,115.14Z"/><path class="cls-1" d="M75.92,90.64c-1.78-.38-4.73-1.17-7.73-1.54a12,12,0,0,0-4.54.72c-2.58.73-4.84.34-4.81-2.64,0-1.87,1.22-5.11,2.41-5.36a180.51,180.51,0,0,1,19-2.74c5.41-.57,7.17,1.13,6.78,6.58C86.53,92.71,81,89.81,75.92,90.64Z"/><path class="cls-1" d="M59.76,58.72c5.41-1.4,10.79-3,16.25-4.16,6.55-1.4,9,1.08,7.7,7.65-.16.82-1,2.08-1.66,2.14-5.19.48-10.39.71-15.59,1.05-1.71.11-3.41.37-5.13.49-1.44.1-3.6.7-4.16,0a6.43,6.43,0,0,1-1.06-4.7c.21-1.26,1.66-2.31,2.56-3.45Z"/><path class="cls-1" d="M64.87,41.67c-2.82.68-5.66,1.93-8.45,1.83-1.69-.06-4.28-2-4.68-3.49s1.15-4.76,2.47-5.16C60.15,33.07,66.3,32,72.39,30.72c5.4-1.14,7.28-.07,7.38,5,0,1.67-1.57,4.39-3,4.86C73.06,41.8,69,42,65.14,42.65Z"/><path class="cls-1" d="M65.09,19.32c-4.49.69-9,1.77-13.46,1.8-1.11,0-2.87-3.27-3.15-5.22-.19-1.23,1.62-3.82,2.83-4,6.81-1.1,13.7-1.71,20.57-2.39,2.74-.27,4.81-.08,5.23,3.78s-1,5.65-4.15,6.38a54.55,54.55,0,0,1-7.7.71C65.2,20,65.14,19.67,65.09,19.32Z"/><path class="cls-1" d="M41.28,183c3.89.48,7.57,1.1,11.28,1.3,1.33.07,2.38-3.06,4.18.09,1.41,2.47,2.48,4.66.41,6.81-.87.91-2.89.85-4.4,1-1.13.08-2.34-.55-3.45-.38-5.1.77-10.18,1.74-15.28,2.58-3.07.5-5.32-.69-5.1-4,.19-2.8-1.28-7.09,4.41-6.7C36,183.89,38.77,183.25,41.28,183Z"/><path class="cls-1" d="M37.22,132.48c6.15,2,11,3.61,15.79,5.12,1.41.45,3,.5,4.37,1s4.16,1.16,4.31,2.06a8.54,8.54,0,0,1-1.35,6c-.58.77-3.3,0-5-.18-1.42-.19-2.79-.83-4.21-.93-4.59-.29-9.22-.17-13.77-.71-3.66-.43-3.9-3.47-3.13-6.25C34.75,136.49,36.08,134.69,37.22,132.48Z"/><path class="cls-1" d="M44.07,265.54c-5,.23-4.84-3.22-5.57-6.24-.91-3.7,1.58-4.15,4-4.42,4.66-.51,9.36-.66,14-1.06,1.65-.14,3.26-.76,4.9-.84s4-.35,4.67.52a7,7,0,0,1,1.19,5.55c-.29,1-3.09,1.29-4.82,1.64-1.46.3-3.08-.05-4.49.37C53.28,262.43,48.69,264,44.07,265.54Z"/><path class="cls-1" d="M38.69,157.68c3.69,1.06,7.35,2.2,11.06,3.16a30.43,30.43,0,0,0,4,.26c1.4.17,4,.37,4,.73a27,27,0,0,1-.42,7.28c0,.28-2.33.27-3.57.22-5.72-.23-11.44-.57-17.17-.76-3.61-.13-6.65-.19-6.54-5.4.12-5.49,3.42-4.84,6.88-4.62.52,0,1,0,1.55,0Z"/><path class="cls-1" d="M54,214.62C48.48,216.05,42.8,217,37.52,219c-4.31,1.65-5-1.38-5.77-3.67s-2.39-5.66,2.12-6.34c4.85-.74,9.73-1.22,14.6-1.79,1.51-.17,3-.3,4.56-.34,1.69,0,4.51-.55,4.86.14a9.06,9.06,0,0,1,.61,6c-.3,1.08-2.62,1.59-4,2.36Z"/><path class="cls-1" d="M49.87,231.4c2.8-.79,5.57-1.91,8.42-2.21,1.38-.15,3.77.92,4.19,2,.72,1.88.36,4.23.1,6.34,0,.22-2.41.12-3.7.21a19,19,0,0,0-3.47.36c-5,1.31-10,2.92-15.06,4-2.61.56-4.6-.63-5-3.75-.38-2.85-.29-5.16,3.2-5.84,3.69-.72,7.35-1.54,11-2.32Z"/><path class="cls-1" d="M49.52,274.66c3.06.78,6.09,1.72,9.19,2.27,1.35.24,2.84-.53,4.25-.46,1.84.09,4.13,0,5.32,1,1,.83,1.25,3.67.53,4.79a6.77,6.77,0,0,1-4.73,2.55c-5.72.41-11.48.16-17.21.51-4.63.29-6.82-1.89-6.58-6.15.25-4.57,4-3.58,7-3.69.68,0,1.36,0,2,0Z"/><path class="cls-1" d="M42,294.23c6.27,1.84,11.28,3.34,16.32,4.76a22.43,22.43,0,0,0,2.87.19c1.69.23,4.48.1,4.82.92.71,1.77.87,4.54-.1,6-.84,1.25-3,3.95-5.71.8-.83-1-3.55-.27-5.39-.45-4.56-.45-9.22-.57-13.61-1.69-1.28-.33-2.52-3.6-2.47-5.49C38.79,297.65,40.72,296.09,42,294.23Z"/><path class="cls-1" d="M32,0c3.9.48,7.58,1.1,11.28,1.31,1.34.07,2.39-3.06,4.19.09,1.4,2.46,2.48,4.66.4,6.81-.87.9-2.88.84-4.4.95-1.13.08-2.34-.54-3.44-.38-5.11.78-10.19,1.75-15.29,2.58-3.07.5-5.31-.69-5.09-4C19.81,4.62,18.34.33,24,.72,26.72.9,29.46.26,32,0Z"/><path class="cls-1" d="M34.77,82.55c-5,.23-4.84-3.22-5.58-6.25-.9-3.69,1.59-4.15,4-4.41,4.66-.52,9.35-.66,14-1.07,1.64-.14,3.25-.75,4.89-.84s4-.35,4.68.52a7.15,7.15,0,0,1,1.19,5.56c-.29,1-3.1,1.28-4.82,1.64-1.46.29-3.08,0-4.49.36C44,79.44,39.38,81,34.77,82.55Z"/><path class="cls-1" d="M44.68,31.63C39.18,33.05,33.49,34,28.21,36c-4.3,1.64-4.95-1.38-5.77-3.67S20.05,26.7,24.56,26c4.85-.73,9.74-1.22,14.61-1.78,1.51-.18,3-.3,4.55-.35,1.69-.05,4.52-.54,4.86.14a9,9,0,0,1,.61,6c-.3,1.08-2.62,1.59-4,2.36Z"/><path class="cls-1" d="M40.57,48.41c2.8-.79,5.56-1.91,8.41-2.21,1.38-.15,3.78.92,4.2,2,.72,1.88.35,4.23.1,6.34,0,.21-2.42.12-3.71.21a18,18,0,0,0-3.46.36c-5,1.31-10,2.92-15.06,4-2.62.57-4.61-.62-5-3.74-.38-2.85-.28-5.17,3.21-5.84,3.68-.72,7.35-1.54,11-2.32Z"/><path class="cls-1" d="M40.22,91.67c3.06.78,6.09,1.72,9.18,2.27,1.35.24,2.85-.53,4.26-.47,1.83.09,4.13,0,5.32,1,.94.82,1.24,3.67.53,4.79a6.85,6.85,0,0,1-4.73,2.55c-5.72.4-11.49.16-17.21.51-4.63.29-6.82-1.89-6.59-6.16.25-4.56,4.05-3.58,7-3.68.69,0,1.37,0,2,0Z"/><path class="cls-1" d="M32.71,111.23C39,113.08,44,114.58,49,116a20.6,20.6,0,0,0,2.86.2c1.69.23,4.49.09,4.82.92.72,1.77.88,4.54-.09,6-.85,1.25-3,3.94-5.72.8-.83-1-3.54-.27-5.38-.45-4.57-.45-9.22-.58-13.62-1.7-1.28-.32-2.51-3.6-2.46-5.48C29.49,114.65,31.42,113.1,32.71,111.23Z"/><path class="cls-1" d="M168.1,663.63c-3.47,2.11-6,4.78-7.35,4.26A180.58,180.58,0,0,1,142.3,659c-5.25-2.77-5.55-7.32-.73-10.71a4.12,4.12,0,0,1,3.7-.12c4.6,2.92,9,6.16,13.51,9.22,1,.67,2.27.92,3.27,1.59C163.64,660.06,165.1,661.31,168.1,663.63Z"/><path class="cls-1" d="M175.53,646.66c-1.79.54-4.27,2.1-6.44,1.75-3.3-.55-6.48-2.25-9.56-3.76-3.64-1.8-7.52-3.49-10.5-6.13-1.25-1.11-.76-4.58-.35-6.85.09-.52,3.41-1.17,4.77-.61,4.54,1.9,8.85,4.33,13.28,6.51,1.05.52,2.26,1.38,3.26,1.22C175.31,637.94,175.23,641.69,175.53,646.66Z"/><path class="cls-1" d="M152.76,571.8c-2.55,3.94-5.48,3.13-7.47-.11-.74-1.21.11-4.89,1.27-5.52A215.6,215.6,0,0,1,166.15,557c1.39-.58,4.86.18,4.91.59.29,2.65,4.92,5.33.47,8-4.64,2.78-8.86,6.76-15.08,5.48-1.16-.24-2.54.55-3.82.87Z"/><path class="cls-1" d="M154.49,587.12c-3.39,3.24-6.05,1.76-7.23-1.85-.44-1.34,1.24-4.72,2.52-5.07A214.57,214.57,0,0,1,171,575.83c1.49-.24,4.69,1.31,4.64,1.72-.33,2.64,3.54,6.33-1.41,7.89C169,587.06,164,590,158.26,587.25c-1.07-.51-2.6,0-3.92,0Z"/><path class="cls-1" d="M155.72,601.38c-4,2.45-6.3.45-6.69-3.33-.14-1.41,2.22-4.36,3.54-4.42a214,214,0,0,1,21.64.2c1.5.08,4.3,2.27,4.16,2.66-.88,2.51,2.13,6.94-3,7.41-5.38.5-10.92,2.26-16-1.59-.94-.72-2.53-.6-3.82-.87Z"/><path class="cls-1" d="M152.38,618.73c1-4.22,1.91-6.67,5.75-5.68,5.42,1.39,10.8,2.94,16.19,4.43a16.58,16.58,0,0,1,3.91,1.17c1.36.79,3.26,1.89,3.47,3.11a8,8,0,0,1-1.36,5.4c-.49.72-2.79.59-4.13.27-6.17-1.47-12.35-2.95-18.4-4.85C155.8,622,154.18,620.05,152.38,618.73Z"/><path class="cls-1" d="M136.16,720.06c-1.82,1.62-3,3.06-4.59,3.9-.55.29-1.9-.84-2.86-1.37a53.44,53.44,0,0,0-5.56-3.11c-3.84-1.58-7.89-2.7-11.68-4.39-3.5-1.55-4.91-3.72-2.85-8,2.23-4.64,4.9-2.88,7.47-1.42,3.93,2.24,7.54,5.05,11.38,7.46,1.94,1.22,4.22,1.94,6.12,3.22C134.57,717,135.06,718.41,136.16,720.06Z"/><path class="cls-1" d="M122.68,685c4.1,2.16,8.34,4.31,12.49,6.61a42.38,42.38,0,0,1,7.94,5c1.19,1.06,2.12,3.73,1.59,5-.61,1.53-3.52,3.68-4.45,3.28-6.74-2.87-13.32-6.15-19.75-9.67-4-2.19-4.21-5.6-.92-8.59A17.47,17.47,0,0,1,122.68,685Z"/><path class="cls-1" d="M154.88,680c-.4,5.51-2.64,6.5-6.13,4.74-5.68-2.85-11.55-5.32-17.38-7.85-3.46-1.5-4.54-3.6-2.9-7.23,1.73-3.79,4.12-4.24,7.35-2.13,4.22,2.75,8.38,5.59,12.61,8.3.94.6,2.24.66,3.14,1.29A33.48,33.48,0,0,1,154.88,680Z"/><path class="cls-1" d="M162.66,534.63a33.19,33.19,0,0,1,4.38,3.68c.88,1,1.91,2.83,1.54,3.78-.5,1.32-2.19,2.26-3.49,3.19-1.73,1.25-3.58,2.33-5.38,3.49-4,2.59-7.75,5.65-12.05,7.49-1.35.58-4.1-2.1-6.21-3.29.79-1.31,1.27-3.07,2.42-3.84,4.64-3.08,9.62-5.64,14.18-8.82,1.93-1.35,3.12-3.74,4.66-5.67Z"/><g id="cremallera_arriba" data-name="cremallera arriba"><path class="cls-1" d="M87.05,372.91c-4.4,8.54-8.71,17.28-13.36,25.85S64,416,59,424.47a57.69,57.69,0,0,1-5.3,6.76c-.89,1.1-1.94,1.76-2.18,3.63-.16,1.3-3,2.71-4.85,3.24-8.1,2.32-16.06,1.3-23.89-1.66-5.48-2.07-10.48-4.81-14.5-9.18C4,422.62.77,417.26.11,411a17.76,17.76,0,0,1,5.27-14.79c6-6.11,11.39-12.81,17.48-18.82,5.42-5.33,11.52-10,17.15-15.1,4-3.66,7.69-7.64,11.53-11.47-3.33-10.38-1.23-19.66,5.31-27.85,7.81-9.77,18.13-13.49,30.51-11.62,1,.15,2,.49,3.08.59,7.24.68,12.78,4.83,18.42,8.87a29.06,29.06,0,0,1,11.39,17.33c1.69,6.87,1.17,13.69-2.62,19.79C110.54,369.35,99.63,373.09,87.05,372.91Zm-10.4-29a4.64,4.64,0,0,0-6.23-1.55,18.48,18.48,0,0,0-4.15,2.93c-6.06,5.23-12.31,10.26-18,15.84-12.72,12.39-25.18,25-37.7,37.62-3.88,3.91-5.21,12.37-2.54,17.2a33,33,0,0,0,12.88,12.84c7.61,4.42,15.78,5.53,24.26,4.78A13.1,13.1,0,0,0,51.49,431a22.37,22.37,0,0,0,4.89-5.65c9-13.69,16.59-28.23,24-42.83,3.31-6.5,6.59-13,8.47-20.13.69-2.6,1.53-5.34-1.63-7.64l-7.85,10.5c.8.61,2,1.14,1.92,1.54a10.12,10.12,0,0,1-1.09,4q-7.84,13.7-15.9,27.26a6.1,6.1,0,0,1-1.77,1.57L38.2,379.34c3.25-3.74,6.7-8.07,10.54-12a123.07,123.07,0,0,1,11.16-10c1.48-1.18,3.59-1.57,5.78-2.48ZM88.11,370a29.81,29.81,0,0,0,16.13-3.39c6.48-3.6,11.49-8.6,13.29-16.15,2.75-11.54-4.11-23.7-14.25-30-7.07-4.41-14.74-5.6-22.75-5a28.08,28.08,0,0,0-17.37,8.22,23.28,23.28,0,0,0-6.83,12.59c-.56,3.15-1.55,6.48-.41,9.74A30,30,0,0,0,60,343.29a8.92,8.92,0,0,0,2.71-3.65A20.66,20.66,0,0,1,74,326c11-5.33,21.88-3.47,30.63,5.27a18.71,18.71,0,0,1,.26,26.25c-4.1,4.39-9.48,6.31-15.21,7.29C89.13,366.52,88.66,368.13,88.11,370ZM76.64,346.15l-.35-.29c-4.49,5.47-9.16,10.81-13.41,16.46-2.55,3.4-5.49,6.76-6.11,11.24a6.92,6.92,0,0,0,7.51,8.55c1.75-.19,3.58-2.43,4.76-4.18,2.32-3.42,3.95-7.33,6.33-10.7,4.07-5.74,8.46-11.27,12.82-16.81,1.49-1.9,3.48-3.44,4.82-5.43a3.91,3.91,0,0,0,0-3.6c-2.53-3.54-7.81-3.71-11-.57C80.18,342.57,78.42,344.37,76.64,346.15Zm14.25,10.08c1.07-.47,2.26-1,3.42-1.53,5.1-2.53,9.44-5.88,10.39-11.88.37-2.34.55-5.4-.64-7.16a27.31,27.31,0,0,0-7.72-7.22c-5.49-3.59-11.77-3.84-17.83-2.06a20.06,20.06,0,0,0-14.06,13.54c5.51-2.56,10.47-3.5,15.11.82a11.44,11.44,0,0,0,1.54-1.39c1.94-2.5,4.65-2.8,7.49-2.53,5.54.51,8,5,5.22,9.77a73,73,0,0,1-4.38,6,5.66,5.66,0,0,0-.45,1ZM53.1,366.49,40,379.54c3.24,2.34,6.24,4.88,9.58,6.82S55,392,58.8,393.17l4.83-7.58c-6.52,2.58-9.74-2.08-12.41-5.69C47.94,375.47,50.63,370.76,53.1,366.49Z"/><path class="cls-1" d="M22.49,395.47c10.8,6,21.2,11.74,30,20.81-1.64,2.84-3.14,5.83-5,8.52a4.87,4.87,0,0,1-3.51,1.45c-9.21.15-17.85-1.6-24.24-9-4.3-5-4.86-10.46-1.22-16.28C19.56,399.21,20.91,397.62,22.49,395.47Zm-1.41,5.65c-1,2.3-3.64,3.57-3.36,6.75.53,6,4.43,9.18,8.83,12.14a4.68,4.68,0,0,0,2.82,1.05,37.67,37.67,0,0,0,7.21-1.56c1.61-.53,3-1.64,5-2.78C35,410.28,27.93,405.86,21.08,401.12Z"/></g><g id="cremallera_abajo" data-name="cremallera abajo"><path class="cls-1" d="M95.24,490.91q-.87-17.28-1.76-34.56c-.27-5.41-.5-10.83-.82-16.24-.21-3.52-.52-7-.89-10.53a1.92,1.92,0,0,0-1.09-1.32c-9.55-3.57-14.12-10.95-16.09-20.49-3.42-16.53,8.8-33.2,23.21-38.6,13.15-4.93,24.87-2.19,36.14,4.57a19.3,19.3,0,0,1,8.86,11.69c1.29,4.93,3.1,9.95,3.07,14.92,0,7.43-1.53,14.85-7,20.63-2.28,2.41-2.69,4.55-1.37,7.92,8,20.39,15.56,40.93,23.3,61.41q6.63,17.54,13.31,35.06a11.09,11.09,0,0,1-2,11.71c-9.28,11-21.44,17.4-35.35,19.67-11,1.79-21.68-.4-30.44-8a23,23,0,0,1-7.94-15.35c-.54-4.95-1.42-9.85-2.15-14.77a17.27,17.27,0,0,1-.26-2q-.5-12.86-.94-25.7Zm19.05-78.22c1.07,5.94,2,11.5,3.13,17a2.51,2.51,0,0,0,1.88,1.59c2.57-.23,3.68.85,4.21,3.27.46,2.08,1.52,4,2.1,6.08,3.58,12.64,7,25.34,10.72,37.94.87,3,.4,4.64-2.43,5.7-1.37.52-2.73,1.1-4.1,1.64-7.49,3-15.07,1.86-22.61.26a3.55,3.55,0,0,1-2.13-2.4c-1-6.65-1.78-13.32-2.57-20-1.11-9.44-1.68-18.87.32-28.28a4.71,4.71,0,0,0-.27-1.82c-1.09-5.1-2.16-10.21-3.32-15.3A10.9,10.9,0,0,0,98,415.94c-.72.71-1.88,1.32-2.07,2.14a41.34,41.34,0,0,0-1.43,9.11c0,7.34.31,14.68.76,22,.69,11.06,1.73,22.11,2.4,33.18A236,236,0,0,1,98.37,506c-.38,9.18,2,18,2.63,27,.44,6.22,4.1,9.45,9.78,11.26a48.46,48.46,0,0,0,24,1.11c9.16-1.72,17.62-5.12,24.73-11.37,3-2.65,3.61-5.72,2.23-9.5-3.1-8.47-6-17-9-25.51-8.54-23.93-16.89-47.93-25.85-71.7C124.71,421.44,124,413.5,114.29,412.69Zm15,2c3.29-4.5,4.77-9.41,5.59-14.69,1.4-9-1.27-16.87-7.62-22.75-7.46-6.91-16.77-8.75-26.81-6-14.32,4-26.21,16.93-24,35.28A25.81,25.81,0,0,0,89.53,426.5c2.2,1.28,3.14.29,3.07-1.76-.09-2.62,1.68-6.1-2.7-7.15-.12,0-.2-.19-.3-.28-6.62-6.18-7.9-13.94-6.32-22.38,2.3-12.21,18.23-19.64,29.43-15.51,12.82,4.73,17.13,16.85,14.82,29.32C127.08,411.17,126.7,413.13,129.25,414.7Zm-21.76,30.39c0,1.75-.14,3.35,0,4.91,1.07,10.58,2.12,21.17,3.45,31.72.14,1.11,2,2.71,3.18,2.86,6.18.81,12-.88,17.62-3.37,1.46-.64,2.13-1.25,1.47-3.34-2.49-7.91-4.57-16-6.78-24-1.25-4.52-2.46-9-3.85-14.21C117.82,446.73,114,448,107.49,445.09Zm-8.67-32.9c.14-1.72.33-3.43.41-5.15.23-5.23,3.32-8.63,8.16-8.9,6-.34,9.81,2.27,10.81,7.48a26.45,26.45,0,0,0,.85,3.54,7.18,7.18,0,0,0,1.22,1.65c.4-.45,1-.84,1.17-1.36a22.16,22.16,0,0,0,.91-10.27c-1.27-7.92-8.08-15.2-17.56-14.54-6.93.48-11.85,5.16-12.06,12.12C92.54,402.71,95.26,407.55,98.82,412.19ZM117.44,437c-.93-3.76-2-7.09-2.55-10.52-1-6.91-1.5-13.91-2.66-20.8a7.78,7.78,0,0,0-3.61-4.9c-1-.52-3.39.94-4.74,2-2.95,2.4-2.92,6.34-2.69,9.37A127.51,127.51,0,0,0,104.61,432c.91,3.86,2.12,7.8,5.41,10.62,2,1.75,4.07,1.28,5.36-.33S116.85,438.57,117.44,437Zm29,34.91c1.58,4.41,3,8.67,4.62,12.89,2.11,5.65,4.36,11.24,6.41,16.91a2.46,2.46,0,0,0,3.49,1.68c.3-.1.31-1.89,0-2.75-2.85-8.51-5.81-17-8.72-25.47C151.36,472.44,149.59,471.3,146.46,471.87Zm-4.74-62.5c.84-8.74,1.3-17.32-3.12-25.42-1.8,1.09-2,2-1.74,4.05a54.7,54.7,0,0,1,.53,14.39C136.82,407.32,136.28,407.26,141.72,409.37Zm-17.11,4.69c-1.89,2.95.9,4.13,1.65,5.93,2.21,5.31,4.44,10.61,6.88,15.82.44.94,1.89,1.4,2.88,2.08.13-1.15.73-2.52.31-3.4-2.9-6.06-6-12-9.1-18C126.72,415.55,125.56,414.92,124.61,414.06Zm19.79,40.6c-1.39-3.64-2.64-7.29-4.21-10.8-.35-.79-1.81-1.08-2.76-1.59a7.12,7.12,0,0,0-.33,2.65c.69,2.57,1.74,5,2.42,7.61S141.72,455.87,144.4,454.66ZM139.22,416c.59-1.9,1.85-4,1.32-4.66-1-1.29-4-2.84-4.55-2.38-1.76,1.52-.27,3.26,1,4.65C137.58,414.23,138.13,414.83,139.22,416Z"/><path class="cls-1" d="M144.22,505.61c1.25,4.23,2.57,8.44,3.69,12.7a3.4,3.4,0,0,1-.53,2.75c-5.72,5.88-12.53,9.67-20.84,10.48A14.42,14.42,0,0,1,110.73,520c-.43-2.23-1-4.44-1.5-6.67s0-3.44,2.56-3.16C122.66,511.32,136.18,508.33,144.22,505.61Zm-26.47,10.63c.08.52.24,1.82.46,3.11.25,1.45.51,2.9.84,4.33,1.07,4.55,2.27,5.53,6.94,5.31,6.26-.29,11-3.66,15.72-7.44,3-2.45,3.31-4.94,2-8.37-.55-1.42-1-1.57-2.16-1.34C133.62,513.32,125.73,514.77,117.75,516.24Z"/></g></g></g></svg>