<svg xmlns="http://www.w3.org/2000/svg" viewBox="0 0 345.19 823.37"><defs><style>.cls-1{fill:#fff;}</style></defs><g id="Capa_2" data-name="Capa 2"><g id="abierto"><path class="cls-1" d="M274.89,592.27a36.23,36.23,0,0,0,4.73-.75c.53-.14,0-2.61,1.64-.56,1.25,1.6,2.3,3,2.12,4.94-.07.8-.87,1.06-1.42,1.37s-1.06,0-1.43.24c-1.75,1.35-3.42,2.83-5.15,4.22-1,.83-2.24.29-3.1-2.14-.74-2.09-2.55-5-.24-5.59A10.6,10.6,0,0,0,274.89,592.27Z"/><path class="cls-1" d="M278.19,601.48a37.58,37.58,0,0,0,4.72-.74c.54-.15,0-2.62,1.64-.57,1.26,1.6,2.3,3.05,2.13,4.94-.08.8-.87,1.06-1.42,1.37s-1.06,0-1.44.25c-1.74,1.34-3.42,2.82-5.14,4.21-1,.83-2.25.29-3.11-2.14-.73-2.08-2.54-5-.23-5.59A10.76,10.76,0,0,0,278.19,601.48Z"/><path class="cls-1" d="M281.49,610.7a39.79,39.79,0,0,0,4.72-.75c.53-.15,0-2.61,1.64-.57,1.25,1.6,2.3,3,2.12,4.94-.07.8-.86,1.06-1.41,1.37s-1.06,0-1.44.25c-1.75,1.34-3.42,2.82-5.14,4.21-1,.83-2.25.3-3.11-2.14-.74-2.08-2.54-5-.24-5.59A10.78,10.78,0,0,0,281.49,610.7Z"/><g id="cremallera_arriba" data-name="cremallera arriba"><path class="cls-1" d="M71.25,50.74c-3.6,7-7.13,14.15-10.94,21.16s-7.92,14.09-12,21a47.85,47.85,0,0,1-4.34,5.54c-.73.9-1.59,1.44-1.79,3-.13,1.07-2.44,2.22-4,2.65-6.63,1.9-13.15,1.06-19.55-1.36A29.8,29.8,0,0,1,6.76,95.23C3.26,91.43.63,87,.09,82A14.49,14.49,0,0,1,4.41,69.84c4.91-5,9.32-10.49,14.3-15.4,4.43-4.37,9.43-8.16,14-12.37,3.28-3,6.3-6.24,9.45-9.38-2.73-8.5-1-16.09,4.34-22.79,6.39-8,14.84-11,25-9.52.85.13,1.68.41,2.52.48,5.93.56,10.47,4,15.08,7.27a23.79,23.79,0,0,1,9.32,14.18c1.38,5.63,1,11.21-2.15,16.2C90.47,47.84,81.55,50.89,71.25,50.74ZM62.74,27a3.79,3.79,0,0,0-5.1-1.27,15.25,15.25,0,0,0-3.4,2.39c-5,4.29-10.08,8.41-14.76,13C29.07,51.22,18.87,61.57,8.62,71.87,5.44,75.07,4.35,82,6.54,86A27,27,0,0,0,17.08,96.46c6.23,3.61,12.91,4.53,19.86,3.91a10.79,10.79,0,0,0,5.2-2.11,18.21,18.21,0,0,0,4-4.63c7.41-11.2,13.58-23.1,19.67-35,2.71-5.32,5.39-10.66,6.93-16.47C73.31,40,74,37.74,71.4,35.85L65,44.44c.65.51,1.6.93,1.57,1.27A8.22,8.22,0,0,1,65.66,49q-6.42,11.2-13,22.31A5.17,5.17,0,0,1,51.2,72.6L31.27,56c2.65-3.06,5.48-6.6,8.62-9.83A101.25,101.25,0,0,1,49,38c1.21-1,2.94-1.29,4.73-2Zm9.38,21.37a24.45,24.45,0,0,0,13.2-2.78c5.3-2.94,9.41-7,10.88-13.22C98.45,22.92,92.83,13,84.53,7.79c-5.79-3.6-12.06-4.58-18.62-4.07A23,23,0,0,0,51.7,10.45a19,19,0,0,0-5.6,10.3c-.46,2.58-1.26,5.31-.33,8a24,24,0,0,0,3.37-2.22,7.33,7.33,0,0,0,2.22-3,16.9,16.9,0,0,1,9.17-11.21C69.5,8,78.45,9.47,85.6,16.62a15.31,15.31,0,0,1,.21,21.49c-3.35,3.59-7.75,5.17-12.44,6C73,45.52,72.56,46.84,72.12,48.36ZM62.73,28.84l-.28-.23c-3.68,4.48-7.5,8.84-11,13.47-2.09,2.78-4.5,5.53-5,9.19a6.26,6.26,0,0,0,.31,3.64,6.19,6.19,0,0,0,5.84,3.37c1.43-.16,2.93-2,3.9-3.42,1.9-2.81,3.23-6,5.18-8.76,3.33-4.7,6.93-9.22,10.49-13.76,1.22-1.56,2.85-2.82,3.95-4.44a3.23,3.23,0,0,0,0-2.95c-2.07-2.9-6.39-3-9-.47C65.62,25.91,64.18,27.38,62.73,28.84ZM74.39,37.1c.87-.39,1.85-.79,2.8-1.26,4.17-2.07,7.72-4.81,8.51-9.72.3-1.92.44-4.42-.53-5.86a22.3,22.3,0,0,0-6.32-5.91c-4.49-2.94-9.63-3.15-14.59-1.69A16.42,16.42,0,0,0,52.75,23.75c4.51-2.1,8.57-2.87,12.37.67a9.74,9.74,0,0,0,1.26-1.14c1.59-2.05,3.8-2.29,6.13-2.07,4.53.42,6.54,4.1,4.27,8-1,1.75-2.39,3.29-3.58,4.94a4.14,4.14,0,0,0-.38.8ZM43.46,45.49,32.77,56.18c2.65,1.91,5.11,4,7.85,5.57S45,66.4,48.13,67.33l3.95-6.21c-5.34,2.11-8-1.7-10.16-4.66C39.24,52.84,41.44,49,43.46,45.49Z"/><path class="cls-1" d="M18.41,69.21c8.84,4.9,17.35,9.61,24.54,17-1.34,2.33-2.57,4.77-4.13,7A3.94,3.94,0,0,1,36,94.4c-7.54.13-14.61-1.3-19.84-7.37-3.53-4.08-4-8.56-1-13.32C16,72.27,17.11,71,18.41,69.21Zm-1.15,4.62c-.87,1.89-3,2.93-2.75,5.53.43,4.88,3.62,7.52,7.22,9.94a3.94,3.94,0,0,0,2.31.86,32,32,0,0,0,5.9-1.28,27.14,27.14,0,0,0,4.11-2.27C28.66,81.33,22.86,77.72,17.26,73.83Z"/></g><g id="cremallera_abajo" data-name="cremallera abajo"><path class="cls-1" d="M294.37,773.31q2.86-11,5.74-22.08c.9-3.46,1.83-6.91,2.7-10.38.57-2.25,1.07-4.52,1.53-6.79a1.29,1.29,0,0,0-.42-1c-5.3-4.13-6.71-9.68-6.06-16.07,1.13-11.07,12.12-19.13,22.25-19.67,9.24-.49,16.07,3.55,21.81,10a12.73,12.73,0,0,1,3.25,9.11c-.16,3.35,0,6.87-1,10-1.5,4.66-3.91,9-8.49,11.58-1.91,1.06-2.6,2.32-2.44,4.71,1,14.4,1.68,28.81,2.48,43.22.46,8.23.95,16.45,1.42,24.68a7.3,7.3,0,0,1-3.58,7,37.55,37.55,0,0,1-26.12,5.36c-7.25-1-13.55-4.55-17.56-11.07a15.15,15.15,0,0,1-1.94-11.22c.64-3.22,1.06-6.47,1.57-9.71a11.78,11.78,0,0,1,.24-1.32q2.24-8.18,4.5-16.34Zm27.48-45.4c-.51,3.94-1,7.62-1.41,11.32a1.66,1.66,0,0,0,.87,1.37c1.66.36,2.14,1.26,2,2.89-.13,1.4.15,2.82.11,4.24-.26,8.66-.63,17.31-.78,26,0,2-.67,3-2.66,3.11-1,.05-1.93.15-2.9.21-5.3.38-9.84-1.81-14.26-4.31a2.31,2.31,0,0,1-.87-1.93c.7-4.38,1.52-8.74,2.35-13.09,1.17-6.15,2.68-12.19,5.8-17.71a3.12,3.12,0,0,0,.2-1.2c.32-3.43.67-6.85.94-10.28a7.13,7.13,0,0,0-.3-1.79c-.59.31-1.44.46-1.72.94a27.07,27.07,0,0,0-2.71,5.44c-1.44,4.62-2.71,9.29-3.88,14-1.76,7.09-3.3,14.24-5.07,21.33a153.57,153.57,0,0,1-4.22,15c-2.06,5.7-2.31,11.7-3.7,17.5-.95,4,.71,6.75,3.92,9a32,32,0,0,0,14.88,5.46,33.39,33.39,0,0,0,17.8-2.25,5.18,5.18,0,0,0,3.29-5.53c-.28-5.94-.38-11.88-.6-17.82-.63-16.74-1.11-33.48-2-50.2C326.66,735.47,327.76,730.32,321.85,727.91Zm9,4.22a21.28,21.28,0,0,0,6.43-8.12,16.24,16.24,0,0,0-.28-15.82c-3.32-5.82-8.81-8.82-15.67-9.06-9.8-.34-19.84,5.45-22.06,17.43a17.06,17.06,0,0,0,4.27,15.12c1.13,1.24,1.92.8,2.28-.5.46-1.66,2.26-3.5-.28-5-.07,0-.09-.16-.13-.24-2.94-5.2-2.2-10.33.46-15.32,3.87-7.22,15.36-8.74,21.58-3.92,7.12,5.52,7.43,14,3.5,21.38C330.19,729.48,329.56,730.64,330.85,732.13Zm-19.7,14.8a31.73,31.73,0,0,0-1,3.09c-1.43,6.86-2.87,13.73-4.12,20.62a3,3,0,0,0,1.43,2.43c3.73,1.74,7.72,1.83,11.75,1.38,1-.12,1.59-.37,1.59-1.81,0-5.47.28-10.95.48-16.42.11-3.09.25-6.18.4-9.69C317.32,750,314.67,750.05,311.15,746.93Zm1.07-22.41c.42-1,.89-2.09,1.28-3.15,1.18-3.24,3.8-4.77,6.89-4,3.87,1,5.72,3.37,5.32,6.85a17.35,17.35,0,0,0-.17,2.39,4.33,4.33,0,0,0,.44,1.28c.34-.21.8-.33,1-.62a14.73,14.73,0,0,0,2.6-6.28c.77-5.23-2.07-11.16-8.16-12.63-4.45-1.07-8.47.9-10,5.24C310.15,717.32,310.9,720.9,312.22,724.52Zm6.8,19.27c.16-2.55.12-4.87.48-7.12.73-4.55,1.81-9,2.45-13.61a5.12,5.12,0,0,0-1.3-3.79c-.51-.52-2.32-.08-3.38.34-2.33.92-3.09,3.4-3.55,5.35a84,84,0,0,0-1.78,13.15c-.19,2.6-.22,5.32,1.3,7.75a2.27,2.27,0,0,0,3.43.85C317.71,746,318.33,744.69,319,743.79Zm11.32,27.7c.12,3.08.2,6,.35,9,.21,4,.51,7.93.68,11.9a1.62,1.62,0,0,0,1.86,1.75c.21,0,.57-1.13.56-1.73-.11-5.91-.29-11.83-.43-17.74C333.31,772.82,332.42,771.75,330.34,771.49Zm9.41-40.24c2.26-5.32,4.25-10.62,3.07-16.6-1.34.34-1.68.86-1.89,2.2a36.07,36.07,0,0,1-2.52,9.16C337.07,729,336.75,728.85,339.75,731.25Zm-11.68-.44c-1.78,1.48-.26,2.77-.14,4.06.33,3.77.68,7.55,1.18,11.31.09.67.92,1.25,1.4,1.87.31-.69,1-1.44.87-2.07-.62-4.38-1.36-8.75-2.15-13.1A7.87,7.87,0,0,0,328.07,730.81Zm4.39,29.45c-.15-2.57-.22-5.11-.51-7.63-.07-.56-.92-1-1.42-1.54-.25.53-.71,1-.73,1.6-.08,1.75.09,3.51,0,5.26S330.53,760.49,332.46,760.26Zm4.4-25.31c.75-1.08,2-2.16,1.75-2.67-.4-1-2-2.58-2.39-2.4-1.4.61-.81,2-.27,3.13C336.19,733.49,336.41,734,336.86,735Z"/><path class="cls-1" d="M322.25,792.26c-.06,2.9-.06,5.81-.2,8.71a2.23,2.23,0,0,1-.88,1.62A21.72,21.72,0,0,1,306,805.06a9.5,9.5,0,0,1-7.64-10.41c.17-1.49.25-3,.37-4.49s.65-2.18,2.24-1.48C307.56,791.57,316.65,792.38,322.25,792.26Zm-18.75,1.43c-.06.34-.22,1.19-.33,2s-.25,1.92-.33,2.89c-.23,3.07.33,3.92,3.31,4.71,4,1.06,7.66-.11,11.36-1.56,2.38-.94,3.05-2.45,2.9-4.87-.07-1-.29-1.18-1.1-1.27Z"/></g><path class="cls-1" d="M321.69,685.26c-2.94-.13-5-2.52-4.62-5.88.36-3.08,3-1.7,4.66-1.75,5.91-.18,6,.32,3.74-5.71-.68-1.81-1.56-2.59-3.39-2.57-2.25,0-4.49,0-7,0-.16-1-.31-2.6-.66-4.12-1.32-5.81-1.09-6.16,4.92-6.78,2.94-.3,3.75-2.05,2.09-4.55a5.89,5.89,0,0,0-6.33-2.59c-2.92.46-3.67-1-3.54-3.64.09-1.8.3-3,2.54-3.08,2.82-.1,3.53-2.51,4.44-4.61-1.55-.47-3.1-1-4.66-1.41-.16-.05-.39,0-.52,0-.93-.54-2.62-1.12-2.61-1.66a9.37,9.37,0,0,1,1.37-4,2.32,2.32,0,0,1,1.85-.85c2.87.15,3.27-1.57,2.84-3.73s-1.88-2.65-4-1.85c-1.27.5-3.15,1-3.19-1.12,0-1.74-1.71-4.58,1.83-5,2.17-.27,4.15-1.26,4-3.3s-2.13-3.09-4.39-2.86a4.7,4.7,0,0,1-.53,0c-3.58-.2-1.71-3.28-2.5-4.93-1-2.2,1.17-1.4,2.1-1.71,3.33-1.09,4.74-3.92,3.2-6.8a4.69,4.69,0,0,0-4.86-2.49c-3,.22-2.32-2.7-3-4.16-.79-1.68.87-2.09,2.38-2.55a7.76,7.76,0,0,0,3.71-2.64,4.92,4.92,0,0,0,.7-3.81c-.22-.77-1.86-1.21-2.94-1.6a7.37,7.37,0,0,0-2.11-.07c-1.39,0-3,.19-3-2,0-1.8-.27-3.62,2.35-3.87a5.45,5.45,0,0,0,2.95-.95c.91-.83,2-2.18,1.89-3.21s-1.72-2.8-2.4-2.69c-5.59.95-6.52-2-6.06-6.53a9.09,9.09,0,0,0-.77-2.85l1.94-.46c3.76-.8,5.35-2.25,5.17-4.75-.2-2.89-1.75-4.1-5.34-4.62-1-.14-2.62-.89-2.72-1.54a17.19,17.19,0,0,1,0-6.82c.28-1,2.31-1.74,3.67-2.31,2.26-1,2.29-2.16,1.95-4.54-.36-2.54-1.36-2.95-3.26-2.72-3.16.38-3.78-1.13-3.79-4,0-2.49.81-4,3.07-4.76a4.16,4.16,0,0,0,2.87-4.87c-.43-2.27-2.24-3.46-4.79-2.43a3.11,3.11,0,0,1-1.06,0c-3.91.07-2.71-3.41-3.7-5.36-1.09-2.15.52-2.58,2-3.41s3.05-1.95,3.57-3.33c.59-1.53,0-3.5,0-5.28-1.12.08-2.23.13-3.34.23-1.84.18-3.68.38-5.67.59-.41-2.3-1.78-5.07-.93-6.56.94-1.64,3.86-2.33,6.05-3,2.79-.9,1.59-3.61,2.73-5.21-1.21-.5-2.42-1.42-3.62-1.4a44.53,44.53,0,0,0-6.5,1.09c-.57-2.72-1.05-5.63-1.82-8.46-.57-2.09.39-2.52,2.08-2.52h8c-.83-1.88-1.32-3.25-2-4.52-.37-.66-1-1.54-1.67-1.62-3.51-.43-7.05-.65-10.7-1-.34-1.6-.72-3.39-1.2-5.67,2.54,0,4.64.08,6.73,0,3.61-.19,4-.93,2.67-4.07-1.19-2.73-2.31-5.37-6.12-3.2a2.82,2.82,0,0,1-2.56,0,25.35,25.35,0,0,1-2.91-3.77c.9-.56,1.76-1.2,2.71-1.67.44-.21,1.17.1,1.55-.16,1.08-.74,2.53-1.46,2.95-2.53a2.71,2.71,0,0,0-1.65-3.84c-1.44-.5-2.84-1.11-4.22-1.74-.85-.39-2-.71-2.41-1.41-2-3.15-1.33-4.74,2.47-6,1.5-.48,3.22-.19,3.45-2.65.38-4.14-.47-5.34-4.76-5.92-1.09-.15-3-.64-3-1.16a17.09,17.09,0,0,1,.27-6.73c.18-.64,2.8-.6,4.31-.83.92-.14,1.85-.2,3.66-.4-2.28-2.34-1.25-6.4-5.7-5.72-2.49.38-3-1.18-2.83-3.22.19-1.88-1-4.59,2.67-4.46,2.18.07,3.94-.45,3.47-3.27-.37-2.23-.64-4.52-3.9-3.89-2.54.49-3.43-.84-3.61-3.19a7.08,7.08,0,0,0-1.15-2.93c-1.49-2.5-2.21-4.46,1.87-5,1.58-.19,2.05-1.22.41-2.44-.38-.28-.2-1.29-.28-2a10.19,10.19,0,0,1,2.44-.23c3.86.53,5.73-.16,8.13-3.34-.87.12-1.71,0-2.18.35-3.21,2.48-6.54,1.93-10,.62-3.74-1.45-7.48-2.87-11.21-4.34a25.82,25.82,0,0,0-11.53-2c2.8,1.06,6,1.9,8.69,3.45,1.55.86,2.61,2.79,3.6,4.42,3,4.89,6.38,9.65,8.52,14.9,1.6,3.91,1.84,8.5,2,12.82.33,6.7-.39,13.48.26,20.14a279.16,279.16,0,0,0,4.19,27.89c1.61,8,4.16,15.78,6.26,23.67.75,2.86,1.52,5.72,2.08,8.62,1.35,7,2.57,14,3.86,21,1.54,8.37,3.54,16.69,4.54,25.13.94,8,.84,16.16,1.2,24.25,0,.53.08,1.06.14,1.59,1,9.2,2,18.41,3,27.61.47,4.15,1,8.31,1.6,12.45,1.19,8.1,2.59,16.17,3.65,24.29.9,6.92,1.13,13.94,2.18,20.84,1.89,12.38,4.21,24.69,6.29,37,.51,3.08.81,6.18,1.21,9.28l-1,.17c-.48-1.62-1-3.23-1.44-4.86-2.73-10.24-5-20.62-8.23-30.71-6.77-21.25-14.17-42.31-21-63.54-6.3-19.55-13.19-39-18.06-58.9a326,326,0,0,0-22.54-62.84c-4.4-9.26-7.21-19.27-10.73-28.94-2.87-7.87-5.63-15.79-8.62-23.62-2-5.17-4.27-10.22-6.79-16.2,8.58,2.17,14.28-2.21,19.67-6.6,2.61-2.12,4.27-5.48,6-8.46.32-.53-.88-2-1.37-3a16.51,16.51,0,0,0-2.1,2.34c-.27.43.23,1.35,0,1.79a26.82,26.82,0,0,1-16.16,12.51c-3,.83-6.71-1.6-7.54-4.45-1.06-3.64.18-6,3.75-7.69,2.44-1.17,4.94-2.45,5.77-6l-12.88,8.05c-2.38-4.91-4.86-10.08-7.39-15.23s-4.92-10.05-7.49-15c-2.65-5.13-6.2-9.95-8-15.36-1.69-5.17-5.83-8.95-7.36-14.06l1.72-1.48,2.44,5.46c.71-4.57,1.09-7.88,1.8-11.11.18-.85,1.35-2.12,2.09-2.13A32.24,32.24,0,0,0,204.59,317c7-3.55,14.08-7.19,19.13-13.57,3.13-4,6.19-8,9.38-11.92.53-.66,1.9-1.54,2.25-1.32,5.06,3.22,12.05,4.53,12.54,12.36-7.42,2.42-11.75,12.6-7.91,18.69a20.07,20.07,0,0,1,2.15-12.93c1.47-2.63,3.31-3.71,6.44-2.5a24.26,24.26,0,0,0,7.13,1.4c7.61.44,14.31-2.67,21-5.81.69-.32,1.47-2.22,2.22-.15,1.2,3.3,3.56,1.94,5.07.92,3.12-2.09,6.11-4.58,5-9.36a5.65,5.65,0,0,1,1.65,3c.91,7.91-3.53,13.66-8.19,19.18a6.23,6.23,0,0,1-4.18,1.93c-4.91,0-9.93.26-14.7-.65-10.32-2-18.75,1.19-23.94,10-1.48,2.51-2.73,5.2-1.42,8.69,1.06-10.5,8.32-17.17,18.53-16.95,4.34.09,8.66,1.08,13,1.53s8.52,1.59,12.57-1.15c1.63-1.1,2.54-.29,3.26,1.79,1.47,4.22,2.41,4.49,6.58,2.47a37.89,37.89,0,0,0,5.61-3.91c1-.76,2-1.64,3.22-2.68.78,9.74-2.78,14.49-11.43,16-.7.12-1.8.79-1.82,1.24,0,.7.59,1.93,1.14,2.05a7.56,7.56,0,0,0,4-.05c5.92-2.05,8.72-7.05,10.08-12.55.71-2.92,1.57-6.83-1.83-9.27a19.29,19.29,0,0,0-6-3.32c-1.1-.29-2.65,1.26-4,1.92-1.14.54-2.32,1-3.53,1.48l6-16.31a87.34,87.34,0,0,0,7.31,6.67,77.52,77.52,0,0,0,8.34,4.76,3,3,0,0,0-1.65-2.13c-6-3.69-11.78-7.71-15.4-13.9-2-3.37-5.79-6.23-4.19-11.07.09-.27-.93-.91-1.43-1.37-.36.65-1.16,1.43-1,1.92.72,2.33,1.7,4.57,2.65,7-3.53.89-6.42,2.59-8.2,6a6.89,6.89,0,0,1-3.06,2.81c-5,2.29-10.16,4.41-15.3,6.49-4,1.64-8.1,1.54-11.22-.15a37.77,37.77,0,0,0-.45-5.58c-1.21-5.09-5.16-8.11-9-11.07-4-3.11-4.11-3-2.64-7.67a24.57,24.57,0,0,1,1.24-4,5.19,5.19,0,0,1,2.35-2.43c2.77-1,5.71-1.52,8.51-2.42,12.11-3.89,22.67-10.07,31.05-19.92s15.54-20.29,18-33.14c1.86-9.83,1.15-19.79-4.68-28.28-4.72-6.87-11-8.76-17.87-3a35.24,35.24,0,0,0-9.64,12.68c-3.94,8.8-8.26,17.42-15.07,24.51-2,2.13-3.57,4.75-5.82,7.81-.8-7.28-.8-7.28,2.55-10.1-2.41-.29-3.29-1.53-2.82-4,.77-4-1.87-8.62-5.8-9.3a30.1,30.1,0,0,0-9.75-.09,86.44,86.44,0,0,0-13.12,3.35c-2.81.92-3.84-.34-4.81-2.49-1.53-3.38-.92-6.9-.93-10.4,0-.75,1.07-2-1.16-1.83-1.71.12-1.64.88-1.47,1.86.21,1.31.66,2.58,1.31,4.94l-6.89-7.16-.88.82c3.57,3.66,6.84,7.5,7.58,12.75.5,3.56,1.06,7.11,1.42,10.68.79,7.93,3.4,14.83,10.46,19.36,4.41,2.84,9,2.14,13.28.09a47.36,47.36,0,0,0,10.89-7.1c7.57-6.75,13.32-14.95,18-24a188.24,188.24,0,0,1,9.92-16.53,11.76,11.76,0,0,1,12.34-4.86c2.84.55,5.93,3.84,7.42,6.68,5.4,10.27,5.49,20.9,1,31.73-3.58,8.65-8.9,16.14-14.77,23.25a41.42,41.42,0,0,1-9.8,8.69c-6,3.75-11.51,8.37-18.54,10.51-9.81,3-19.74,4.83-29.93,3.53-8.43-1.08-16.87-2.49-24.43-6.87-.55-.32-1.39-.13-2.1-.17.41.55.69,1.32,1.24,1.6,2.7,1.38.79,2.14-.44,2.48a8.54,8.54,0,0,1-4.17.11c-2.45-.64-4.81-1.67-7.21-2.53l2.76-6.25a17.39,17.39,0,0,0-11.77-5.94c-2.84-.23-3.8,1.25-3.24,4.16,1,5.14,1.21,5.35,7.64,6.62-3.85,3.86-9.33,4.11-13.91,0a20.69,20.69,0,0,1-7.37-14.3,99.15,99.15,0,0,1,0-10.2,11.76,11.76,0,0,1,7.35-10.65,11.61,11.61,0,0,1,13,2.59c1.57,1.52,3,3.19,4.81,4.81-2.54-3.79-1.4-7.16.27-10.9,2.2-4.94,1.81-10.37,1-15.64-.12-.79-1.1-1.45-1.75-2.16.06-.67-.13-1.63.24-1.95,2-1.75,4.25-3.63,3.64-6.47-.86-4.06-1-8.49-5-11.66.15,1.58.27,3.17.45,4.75a42.78,42.78,0,0,1,.67,5.14c0,4.48-2.41,6.54-6.64,5.4-4.68-1.26-9.22-3-13.88-4.36a114.73,114.73,0,0,0-25.38-4.57,22.24,22.24,0,0,0-8.22,1.12c-2.13.72-2.44-.54-3.08-1.66-4.45-7.73-2.18-11.77,6.82-11.43,4.38.16,8.71,1.39,13.25,2.16-.38-.47-.85-1.59-1.64-1.91a26.63,26.63,0,0,0-22.45.63c-3-7.85-5.88-15.59-9.17-24.3h8.13c.7-6.59.17-13.56,3.7-20.91,1.27,2,2.32,3.47,3.14,5,1.14,2.16,2,4.46,3.22,6.56.35.61,1.52.74,2.32,1.09.07-.76.45-1.64.18-2.25q-2.17-5-4.65-9.92c-.68-1.36-2.62-2.48-.55-4.09,2.27-1.77,3.74-.31,5,1.47a15.24,15.24,0,0,1,.77,1.59c.49-1,1-1.58,1-2.17,0-3.31,1.39-3.33,4-2.1,7.22,3.38,14.56,6.5,22.25,9.91.14-1.76.24-3.1.34-4.44.37-5,3.1-6.44,7.4-3.77,3.75,2.33,7.07,5,6.86,11.27,2.21-2.64,3.55-4.15,4.8-5.74,1.06-1.34,2.11-1.62,3.48-.42,1.05.92,2.33,1.62,3.29,2.62,5.81,6.05,11.51,12.2,17.37,18.2,1.3,1.33,3.07,2.19,5.25,3.71-.65-5.27-1.22-9.9-1.94-15.76,3.16,2.6,5.44,4.33,7.56,6.25,5.61,5.09,12.26,8.32,19.15,11.25a9.29,9.29,0,0,1,4.53,3.74c3.12,6.2,6.38,12.38,6.46,19.69,0,4.43.82,8.86,1.3,13.59l-7.84-2.26c5.7,2.82,10.13,6.37,11.5,12.84-.37-2-.13-4.57-1.26-6-2-2.52-2-5.15-1.93-7.94.19-8.28-.38-16.45-3.2-24.32-.81-2.26-1.8-4.46-2.7-6.69,2.47-.17,5-.24,7.41-.55a15.86,15.86,0,0,0,3.26-1.15c-.61-.95-1-2.16-1.88-2.81-3.82-2.94-5.32-6.88-5.82-11.47,11.5-1.6,17.92-5.1,19.45-10.45-14-1.32-24.21-9-34-19.72l6.53.76c-13-6.15-19.41-17-17.7-29.22a18.27,18.27,0,0,0-.24-3.74c-1.5.16-3.15,0-4.48.53-4.64,2-9.17,4.18-13.94,6.39-.33-1.51-.6-2.68-.94-4.2-2,1-3.95,1.75-5.72,2.77-2.52,1.47-4.33,1.69-6.78-.78-3.42-3.43-7.58-6.15-11.55-9s-4-2.72-4.92,2.25A34.48,34.48,0,0,1,169.6,94c-1.74,5-3.24,5.69-7.48,2.32-5.28-4.2-11.25-5.21-17.67-5.71-3-.23-6.47-.11-8.64-3.74-1.85-3.09-5.61-3.67-8.94-4.12a72.2,72.2,0,0,1,2.79,6.86c.72,2.42.32,4.79-2.22,6-3.43,1.69-6.92,3.31-10.5,4.67-.7.27-2.29-.53-2.76-1.27a3.56,3.56,0,0,1,0-3.12c.56-1,1.91-1.43,2.83-2.21,1.25-1,1-5-.71-6.51-.53-.47-2.5-.08-3.22.58-2.16,2-2.81.58-3.8-1.15-1.27-2.22-1.68-4,.67-5.87,1.94-1.5,3.19-3.42,1.33-5.87-2-2.63-3.47-.45-5.2.48a2.55,2.55,0,0,1-2.4-.31c-2.68-2.79-2.51-3.16.68-5.84,1.06-.89,2.63-1.46,2-3.75-1.32-4.43-2.55-5.11-6.58-2.72-3.11,1.84-3.14,1.69-4.72-1.59-1.06-2.2.29-2.54,1.68-3.43s3.28-2.29,3.22-3.37c-.24-4.52-2.3-5.39-6.27-3.12-.74.43-1.46.92-2.57,1.63-1.2-2.28-2.35-4.4-3.43-6.56-.48-1-.87-1.75-1.15-2.41a4.6,4.6,0,0,1-1.85.69c.39,2.72-2.75,1.34-3.87,2.33-1.54,1.38-4.93-.52-5.37,3.24l9-1.49c.8,5.5.79,5.47-4.41,6.38a20.5,20.5,0,0,0-4,1.09,2.85,2.85,0,0,0-1.67,1.55c-.74,3.55,1.9,6.08,5.41,5.38a23.35,23.35,0,0,1,5.11-.82c.68,0,1.73,1.25,1.87,2.06a2.77,2.77,0,0,1-1.35,2.25c-1.39.66-3.07.67-4.49,1.28-1.81.79-4,1.27-2.8,4.43.88,2.29,0,5.65,4.25,4.74l7.45-1.55c.31,5.38.31,5.36-4.14,6.11a22.88,22.88,0,0,0-2.51.7c-4.2,1.2-3.91,1.11-2.74,5.16,1.05,3.66,3.23,2.24,5.31,1.76,4.65-1.07,4.72-1.05,6.32,3.52l-2.47.71c-1,.29-2,.59-3,.86C83,95.23,83,95.92,83.6,101c.42,3.65,2.81,2.27,4.64,2.51a4.56,4.56,0,0,0,1.55-.27c5-1.09,5-1.09,6.28,4.29-2.36.53-4.71,1.22-7.11,1.56-2,.29-2.21,1.44-2,3,.58,3.86,1.9,4.73,5.67,3.91a14.23,14.23,0,0,1,4.6-.66c.85.11,1.82,1.38,2.16,2.34.17.44-.88,1.66-1.63,2a36.56,36.56,0,0,1-4,1.16c-1.93.69-3.89,1.1-3.14,4.22,1.24,5.2,1,5.39,4.6,5,2.37-.29,4.7-1,7.06-1.53.59,5.3.59,5.29-4.28,6.14-.68.12-1.34.38-2,.56-4.52,1.26-4.28,1.28-3,5.56.82,2.67,2.47,2,4.08,1.93s3.11-1,4.56-.79a4.64,4.64,0,0,1,2.76,2.45c.93,1.92-.91,1.75-2,2a16.59,16.59,0,0,0-4,1.11c-1.14.64-2.6,1.7-2.83,2.81-.93,4.59,2,7.19,6.61,6.05a50,50,0,0,0,5.51-2.08,16.07,16.07,0,0,0,.3,1.71c1.47,5.66,1.49,5.71-3.66,8-2.17,1-3.72,2.05-2.65,4.75s3.17,3.49,5.92,2.32a27.05,27.05,0,0,0,3-1.7c1.1,3.82,1,3.67-1.58,5.78-1.25,1-2.76,2.74-2.75,4.13,0,4.49,3.92,6.3,8.09,3.8,1.83-1.1,2.61-1.1,3.62.87s.19,2.89-1.48,3.65c-1.18.53-2.29,1.25-3.5,1.68-2,.7-3.63,1.59-2.54,4a4.27,4.27,0,0,0,5.47,2.54c1.33-.37,2.52-1.3,3.85-1.56a2.64,2.64,0,0,1,2.15,1.15c.4.72.57,2.15.13,2.63a8.12,8.12,0,0,1-3.47,2.23c-3,.89-2.93,2.38-2.27,5.13.77,3.19,2.55,3.52,5,3.12a27.87,27.87,0,0,0,4.59-1.58c.08,1.66.18,3.06.2,4.46,0,2.62.56,5.48-3.26,6.2-.42.08-1,1.55-.84,2.14.75,2.29.72,5,4.62,5,3,0,3.54,2.81,1.33,5.1-.69.71-1.6,1.67-1.59,2.52,0,3.93,3.24,6.76,7.18,5.72,2.73-.73,3.55.42,4.06,2.32.64,2.44-1.36,2.12-2.87,2.56s-3.67,1.27-4.09,2.44a5.74,5.74,0,0,0,1.18,4.83c.72.81,2.87.5,4.37.41a6.11,6.11,0,0,0,2.35-1.12c1.55-.92,1.92-.12,2.59,1.24,1.09,2.22,0,3.94-1.56,4.25-4.72,1-4.69,3.4-2.87,6.86a2.78,2.78,0,0,1,0,1c0,1.74,1,2.09,2.44,1.67.83-.24,1.63-.6,2.47-.83,5.07-1.38,5.07-1.37,6.17,4.11L141.16,270c.24.65.33,1,.48,1.27.81,1.69,1.24,3.95,2.58,4.88,1.59,1.11,3.29-.41,5-1.49s3.32.67,3.63,2.57a3.06,3.06,0,0,1-1.39,2.52c-4.39,2-5.44,6.19-1.57,8.94,2.75,2,3.11,3.49,2.1,6.51-1.27,3.79,1.53,6.45,5.41,5.6a8.81,8.81,0,0,0,2.9-1.15c1.41-.9,2.51-1.15,3.48.56s.34,3-1.23,3.95c-5.33,3.11-5.33,3.1-3.48,8.47.06.16,0,.45.07.51.57.37,1.19,1,1.75,1,1.73-.12,4,.09,5.06-.89,2.85-2.54,3.42-.3,4.31,1.56.57,1.2,1,2.47,1.72,4.34l-7.31-.76c1.42,1.73,2.88,2.64,1.68,5.28-.84,1.86.69,3.79,3.19,3.67,1.52-.06,3.33-.1,4.45-.92,1.83-1.34,1.95.13,2.53,1,1.15,1.73-.21,2.46-1.31,3.38-2.18,1.83-4.28,3.67-.79,6.35.69.52.77,1.85,1.08,2.68,1.71-.31,3.48-.18,4.7-.95,2-1.28,2.51-.15,3.29,1.29,1,1.85.18,2.16-1.5,2.67a5.23,5.23,0,0,0-2.93,2.69,6.42,6.42,0,0,0-.09,4.28c.43,1.18,1.48,2.62,3.37,1.05.84-.69,2.32-.54,3.44-1,1.73-.65,3-.46,3.74,1.41s.05,3.35-1.72,3.77c-2.69.64-3.26,1.9-2.62,4.51.73,3,2.78,4.64,5.22,3.72,5-1.86,6,1.53,7.5,4.62.77,1.56,1.48,3.16,2.25,4.82l-4.29,1.12c.86,3.68,2,6.39,6.22,5.59a1.17,1.17,0,0,1,1,.27c.58.8,1.05,1.68,1.56,2.52-.71.42-1.44.83-2.14,1.27s-1.71.76-1.79,1.28a5.49,5.49,0,0,0,5.07,6.19c3,0,4.48,1.24,4.63,4.53h-5.9c1,6.48,1.52,6.92,7.23,6.26,2.81-.32,3.25,1.79,3.45,3.61.26,2.24-1.5,1.61-2.91,1.66-3,.1-3.23.77-1.83,3.39.23.44.61.94.56,1.38-.35,3.19,1.3,3.73,4.09,3.7,4.76,0,4.76.13,6,5.25a23.88,23.88,0,0,0-4.18.43c-.58.15-1.45,1.3-1.32,1.71a12.72,12.72,0,0,0,2.26,4.59c.63.7,2.27.52,3.47.68.69.09,1.73-.21,2.05.16a8.88,8.88,0,0,1,2.33,3.69c.4,2-1,1.43-2.34,1.26-.7-.08-1.88,1-2.31,1.86-.84,1.66,3.14,8,5,7.8,4-.48,4.63,1.91,4.9,4.9l-2.89.63c-3.61.81-3.62.9-2.5,4.41,1,3.24,3,4.06,6.21,3.14s3.27,2,3.66,3.83c.44,2-.31,2.92-2.73,1.91-.6-.25-3.21,2-3.17,3a10.92,10.92,0,0,0,2.27,6.18c.87,1.05,3.4,1.6,4.82,1.17,3.91-1.19,4.85,1.21,5.85,3.93.46,1.25,1,2.48,1.61,4.09a26.13,26.13,0,0,0-4.6.34c-.83.21-2.16,1.21-2.09,1.67.32,2,.57,4.42,1.82,5.82.87,1,3.06,2.81,5.17.11,1.11-1.42,3.18-.21,3.66,1.5s.8,3.49-1.74,4.17c-3.36.9-4.5,2.49-3.71,4.76,1.48,4.31,4.89,7,7.36,5.17,2.62-2,2.64.24,3.16,1.26.91,1.77.28,2.58-1.87,3.21-3.79,1.11-4.65,3.06-3.52,6,1.38,3.66,1.83,3.79,6.2,2.25a5.51,5.51,0,0,1,2.58-.26,10.13,10.13,0,0,1,.7,4.34,3.24,3.24,0,0,1-2.23,2.05c-3.34.48-2.76,3-2.3,4.8a8.42,8.42,0,0,0,3.17,4.27c2.3,1.62,3.31-.73,4.56-2.28a14.08,14.08,0,0,1,1.53,2.75c.71,2.34,1.22,4.73,1.87,7.34a20.24,20.24,0,0,0-2.51.47c-3.36,1-4,2.1-3.22,5.3,1,4,1.05,4.11,5.2,3.15,2.06-.48,2.61.12,3.24,2.07.69,2.15-.8,2.31-1.8,2.95-4.27,2.74-4.29,2.71-2.22,7.37.28.63.31,1.45.73,1.93s1.47,1.29,1.91,1.12c2-.76,3.95-2.15,5.12.85s-2.1,3.1-3.37,4.44-2.51,6.05-1.18,7c2,1.48,3.56.18,5-1.29a8.85,8.85,0,0,1,1.3-.91c1.64,4,1.55,4.64-1.06,7.19-1.37,1.34-2.2,8.58-1,8.76,1.45.21,3.14-1.15,4.7-1.86.8-.36,1.56-.79,2.19-1.12-.82-3.92-1.61-7.75-2.41-11.58l1-.25,17.28,52.36-.89.33c-.62-1.23-1.24-2.45-2.31-4.54a43.24,43.24,0,0,1-3.1,4c-1.42,1.45-2.43,2.26-.83,4.74s3.11,2.35,4.95,1.84c1.18-.32,2.09-1.63,3.23-2.58,1.7,3.38,3.31,6.41-.84,8.91a2.4,2.4,0,0,0-1,1.73c0,1.28-.11,2.85.56,3.77a3.74,3.74,0,0,0,3.26.88c1.12-.28,2-1.43,3-2.21a6.18,6.18,0,0,1-.79,4.75c-2,2.58-1.65,4.66,0,7.31s3.53-.3,5.11.62c.95,1.84.49,3.33-.73,5-2.66,3.61-2.56,3.68-.56,7.73l4.31-1.32c.87,2.33,2.12,4.22-.53,6.43-1.83,1.53-.42,6.05,2.11,6.77s2.85,2.1,3.26,4.12a42.65,42.65,0,0,0,1.87,6c.89,2.5,3.12,5.44,2.63,7.39a5.08,5.08,0,0,1,1.22-.23,5,5,0,0,1,2.27-.51,4.41,4.41,0,0,1,.52,0c-.36-4.64-.23-4.83,4.21-4.9,3.12,0,4.86-1.72,6.48-3.9C326.35,685.47,326.35,685.47,321.69,685.26ZM232.58,238.75c-3.76,2-8,.83-11.72-3.12,4.19-3,8.19-1.31,12.14.55.49.23.76.93,1.14,1.42A12.28,12.28,0,0,1,232.58,238.75Zm11.17-6.94c-.76,3.07-3.89,4.66-6.86,4.69-1.83,0-3.78-1.59-5.42-2.81-.28-.2.43-2.64,1.27-3.24,2.24-1.59,3.2-3.59,2.65-6.14-.71-3.33-2.7-5.5-6.55-5.8.09,1.39.54,2.73.13,3.73-.52,1.27-1.65,3-2.67,3.15s-2.39-1.42-3.55-2.31c-.21-.16-.13-.67-.26-1-.48-1.17-1-2.34-1.5-3.51-1.44,1.16-3.53,2-4.19,3.54-1.49,3.41.68,5.89,3.13,8.1.54.48,1.18,1.69,1,2a3.82,3.82,0,0,1-2.39,1.8,3,3,0,0,1-2.23-1.75c-1.25-4-2.42-8-3.29-12a68.9,68.9,0,0,1-.76-8.2c3.81,3,7.51,2.36,11.61.92a43.7,43.7,0,0,1,11.75-2.16c6.11-.37,9.57,3.1,9.39,9.11A56.78,56.78,0,0,1,243.75,231.81ZM121,110.14c8,1.89,12.94-2.46,17.49-8.76l4.24,5.89a24.64,24.64,0,0,0,1.87-1.62c2.05-2.11,3.47-1.79,5.11.72,2.68,4.08,2.84,4,7,.91s4.24-3.14,8.11-.59c6.17,4.08,6.27,4.2,12-.51,2.09-1.72,3.6-1.86,4.11.75.57,2.95,2.29,3.15,4.54,3,2.58-.22,5.16-.49,8.21-.79-.52,1.52-1,2.89-1.69,5l16.27,2.83L206,119c3,2.25,6.37,2.46,9.78,2.6a4.91,4.91,0,0,1,5,3.4c2,5,6.39,8,10,11.66.73.74,1.75,1.18,2.25,2.38-5,.59-8.36-3.46-13.79-4.05l4,6.54-.49.61-24.61-17.87c-2.66,5.65,1.45,10.8-.34,16.38a28.4,28.4,0,0,1-1.85-2.24c-1.44-2.15-2.68-4.45-4.27-6.48-2.15-2.74-4.54-5.31-6.89-7.9a6.31,6.31,0,0,0-1.73-1,10.55,10.55,0,0,0-.9,2.08,27.9,27.9,0,0,0-.23,3.44c-2.31-2.18-4-4-6-5.57-.79-.6-2.87-1.83-2.28,1.23.41,2.13-1,1.29-1.78.83-5-3-10-6.07-15.56-9.5l-4.64,10.15c-1.65-3.06-3-5.47-4.6-8.49a64.59,64.59,0,0,0-2.76,7.67c-.74,3.26-1.93,2.24-3.36.65-2.05-2.3-4-4.74-6.13-6.94a60.45,60.45,0,0,0-5.29-4.34c-.15,3.21-.25,5.45-.39,8.5l-3.42-3.62-3.19,3.75C117.8,118.8,122.18,114.18,121,110.14Zm-10.31,9.48a47.83,47.83,0,0,1-3.75,5.87c-3.35-9-6.79-17.78-9.87-26.7A43.74,43.74,0,0,1,94.26,86.7c-.43-9.56-4.1-18.31-6-27.48-.39-1.84-.45-3.75-.67-5.63l1-.22C92,59.77,95,66.48,99.05,72.51c6.51,9.72,10.37,20.4,13.61,31.49C114.34,109.72,112.93,114.67,110.65,119.62Zm118.53,154.8c1.8,0,2.87.56,2.32,2.92a15.8,15.8,0,0,0,.3,6.35,42.66,42.66,0,0,0,1.21-6.44c.13-3.41,1.91-3.15,4.55-2.3-2.11,5.12-2.55,11-7.65,13.58l-4.1-9.71,0,0-1.25-4C226.25,274.65,227.72,274.39,229.18,274.42Zm-11.32-.91c4.68.49,4.82.69,4.86,5.36a62,62,0,0,0,.71,11.1c.14-2.74.12-5.5.51-8.21.15-1,1.17-1.94,1.84-2.89.79,4.69,2.35,9.23,1.66,14.21-.18,1.27.15,2.21-.93,3.37a78.15,78.15,0,0,0-5.15,6.69l-.91-.52c.31-1.08.64-2.16.94-3.26.18-.66.65-1.7.39-2-4.32-4.34-2.55-10.49-4.72-15.44-.69-1.58-1.43-3.14-2-4.77a25.62,25.62,0,0,1-.7-3.29A16.91,16.91,0,0,1,217.86,273.51Zm-81.35-49.75q-3.37-9.56-6.41-19.24c-.87-2.8,2-6.65,4.76-6.36,9.5,1,18.92,2.46,28,5.57,4.25,1.46,8.51,2.92,12.85,4,1.7.44,3.64-.16,5.45,0a5.79,5.79,0,0,1,2.14,1.11c.47,6.14.42,12.25-2.14,18-.53,1.18-.44,4.08-3.32,2.64-2.1-1.06-4.84-1.65-4.12-5a18.89,18.89,0,0,1,.88-1.89c2-5.76.49-8.76-5.59-11.32-1.9,5.88-3.51,7.44-7.45,7.2s-5.51-1.86-6.58-7.39a9.22,9.22,0,0,0-6,7.44c-.39,2.84.74,5.87,1.17,8.61-3.86-.44-7.61-.77-11.31-1.39A3.64,3.64,0,0,1,136.51,223.76Zm19.92,41.15c-2.38-.47-5.23-.44-6.4-3.62-3.6-9.79-7.44-19.49-11-29.29-.91-2.49,1.37-4.18,6.33-4.28,3.18,1.07,7.26,2.42,11.31,3.84,2.52.88,2.18,3.11,1.48,4.71-2.88,6.63-2.31,13.17-.13,19.79a50,50,0,0,1,1.26,5C159.76,263.36,158.53,265.33,156.43,264.91Zm17.62,48.35c-2.17-4.67-4.36-9.32-6.5-14a35.5,35.5,0,0,0-1.52-3.88c-3.84-6.34-4.72-13.39-5.26-20.56-.19-2.58-.65-5.14-.87-7.71-.05-.61.41-1.81.61-1.8a4.15,4.15,0,0,1,2.28.71c1,.73,1.67,1.89,2.69,2.53,4.77,3,9.69,4.68,14.87.86,2.49-1.83,4.76-1.31,7.27.12,3.86,2.18,7.82,3,11.58-.43a2,2,0,0,1,1.68-.21c3.15,1,6.33,1.89,9.37,3.15.84.35,1.46,1.69,1.82,2.71,2.09,5.85.78,11.73,0,17.6-.35,2.58-.79,5.14-1.18,7.72,1.33-5.27,2.67-10.53,4.26-16.84a26.21,26.21,0,0,1,1.24,3.7c.75,4.78,1.3,9.6,2.14,14.37.58,3.28-.93,5.25-3.46,6.84-1.59,1-3.14,2.07-5.56,3.66.56-4.47,1-8.17,1.48-11.86-.51,1.2-1,2.39-1.86,4.38-1.7-4.82-3.17-9.16-4.76-13.45a29.69,29.69,0,0,0-1.88-3.51c.53,2.71,1,5.43,1.6,8.13.88,4.23,1.86,8.43,2.68,12.67.61,3.14-.43,5.44-3.65,6.57-2.28.81-4.49,1.83-6.75,2.7-3,1.18-3.94.68-3.55-2.58.63-5.31,1.49-10.59,2.53-15.83,1.17-5.91,2.64-11.76,4.14-18.36.8,1.39,1.25,2.18,1.7,3-.26-2.47-.52-4.93-.77-7.4l-1.08-.17c-5,12.1-5.16,25.32-8.46,38-1.86-10.07-3.67-20.15-5.63-30.2a31.2,31.2,0,0,0-2-5.14l.08.09-.45-7.08-1.21-.1C175.78,284.76,175.13,298.87,174.05,313.26Zm6.3,6.71c-2.23-.16-4.72-1.08-4.54-4.08.5-8.19.86-16.41,1.88-24.54.6-4.84,2.35-9.53,3.68-14.68l1.9,2.07c1.36,8.58,2.68,17.16,4.09,25.73q1,5.92,2.18,11.81c.38,1.81-.22,2.68-2,2.9C185.15,319.48,182.72,320.15,180.35,320Z"/><path class="cls-1" d="M324.16,336.17c.45-1.76.9-3.53,1.36-5.29l.4.1v19.57a6,6,0,0,1-1.14-1.47,13,13,0,0,1-.18-2.1c-.49-2.9-1.27-3.28-3.66-1.67-3,2-5.89,4.12-9.46,5.41.6-.57,1.11-1.37,1.83-1.68,3.71-1.59,5.16-5,6.94-8.21s1.36-5.64-1.54-7.8c-2.09,2-4,4-6.2,5.74-3.92,3.26-5.49,3.2-10,.19a2.79,2.79,0,0,0-2.29-.43c-7,3.52-13.78.71-20.49-.73-5-1.09-9.86-3.15-14.78-4.78l.36-1.19c4.38,1.22,8.73,2.51,13.14,3.63,4,1,8.08,2.33,12.19,2.59a16.63,16.63,0,0,0,8.5-2c5.31-2.88,11-5.3,15.11-10.1,2.29-2.65,6-1.6,7.69,1.8a17.16,17.16,0,0,1,1.29,4.49,33.79,33.79,0,0,1,.27,4.16Z"/><path class="cls-1" d="M282,386.79c1.73-1.64,3.39-3.38,5.23-4.9,1.35-1.12,3.74-1.42,2.67-4.11a8,8,0,0,1,.9-.57c4-2.75,8.16-5.27,11.86-8.35,2.05-1.71,3.31-4.37,5.17-6.92-3.71.58-6.83,1.4-10,1.47-4.27.1-5.32-1.8-3.86-5.25L264.5,353l.18-1.15c3.58.64,7.17,1.2,10.72,1.93,3.74.76,7.45,2.33,11.18,2.34,4.44,0,8.92-1,13.31-2,3.34-.72,8.58.49,10,3.36.72,1.47.13,3.58.13,5.67l8.53-2.67c.17.38.33.77.5,1.15-6.14,2.26-12,4.86-16.51,11.45,3,.1,5.2.14,7.35.25a8.92,8.92,0,0,1,3.59.46c.66.36.78,1.72,1.15,2.64-.73,0-1.63.34-2.15,0-3.8-2.29-7.57-.95-11.16.23-5.83,1.91-11.4,4.43-15.7,9.11a16.78,16.78,0,0,1-2.83,2.05Z"/><path class="cls-1" d="M238.94,358.34c-4,2-4.74,4.93-4.93,8.51A57.39,57.39,0,0,1,231.9,378c-.31,1.22-1.49,2.27-2.43,3.24-.18.18-1.21-.34-1.71-.72-.17-.12,0-1.07.19-1.21,4.76-2.79,3.94-7.53,4.38-11.91a47,47,0,0,1,1.65-8C234.58,357.29,236.17,356.88,238.94,358.34Z"/><path class="cls-1" d="M245.85,332.19c-1.14,1.16-2.23,2.36-3.42,3.46-4.62,4.29-5.1,6-2.91,12,.54,1.45,1.51,2.74,2.14,4.16a40,40,0,0,1,1.29,4c-3.39-3.25-6.14-9.09-6.39-13-.38-6.13,5.41-7.59,8.32-11.24Z"/><path class="cls-1" d="M168.17,183.09a32.68,32.68,0,0,1-12.61-6.54,37.13,37.13,0,0,1-6.91-7.64,51.73,51.73,0,0,1-4.91-10.19c-.68-1.81-.15-4,2.51-3.91,2.5.1,5.4,0,7.39,1.2a52.1,52.1,0,0,1,15.61,14.1,24.29,24.29,0,0,1,3.45,8.56C173.42,181.71,171.81,183.18,168.17,183.09Z"/><path class="cls-1" d="M229.58,182.3c.7,0,1.53-.24,2.09,0,1.9,1,4.35,1.72,5.38,3.33s-.33,3.72-1.76,5.54c-3.17,4-7.82,3.47-11.9,4.24-1.37.25-4-1.75-4.65-3.31a5.6,5.6,0,0,1,2.1-7c2.59-1.54,5.6-2.4,8.42-3.56C229.37,181.82,229.48,182.06,229.58,182.3Z"/></g></g></svg>