<svg xmlns="http://www.w3.org/2000/svg" viewBox="0 0 507.21 791"><defs><style>.cls-1{fill:#fff;}</style></defs><g id="Capa_2" data-name="Capa 2"><g id="abierto"><g id="montruo"><path class="cls-1" d="M201.13,289c.89,11.69,2.17,22.78,2.42,33.88.16,7.28-.27,14.75-3.87,21.5-.8,1.5-1.54,3-2.3,4.55l-1.92-.53c-2.83-2.85-5.9-5.51-8.39-8.63a6.84,6.84,0,0,1-1.18-5.42c4.45-14.18,5-28.65,3.32-43.21a79.31,79.31,0,0,0-12.83-34.88c-5.54-8.38-11.93-15.86-20.91-20.39-3.31-1.67-7.77-2-11.53-1.48-2,.26-4.2,3.2-5.32,5.43-3.56,7.11-6.62,14.48-10,21.7a65.71,65.71,0,0,1-3.55,6.34c-1.29,2.12-3,2.41-5.07.61,5.94-6.5,8.42-14.6,10.72-22.9A59.46,59.46,0,0,1,136.5,232c2.78-4.84,7.74-5.38,12.85-4.54,3,.5,6,1.1,9.52,1.75q.88-17.87,1.73-35c-5.08-.38-9.14-.65-13.19-1s-7.66-1.45-10.33-5.46c12.28-4.29,18.51-14.23,23.76-24.76s10-21.39,14.56-32.28c2.74-6.58,3.35-13.44-.27-20.15-1.7-3.16-.77-5.11,2.57-7.17a113.39,113.39,0,0,0,34.38-32.55c2.14-3.13,2.47-7.72,2.9-11.72.27-2.48.58-3.84,3.28-4.47,6.75-1.59,13.41-3.55,20.13-5.28,5.84-1.51,8.12-7.21,4.77-12.19-.93-1.38-2-2.66-3.39-4.5,7.87,1.42,14.4,4,19.5,9.66a4.3,4.3,0,0,0,2.85,1.34C276.18,43.45,289,47.5,301,54.54a32.54,32.54,0,0,0,4,1.71,25.77,25.77,0,0,0,8.41-13.65c.67-2.74.84-4.51,4.42-1.7,7.14,5.61,14.88,10.46,22.49,15.45a7.27,7.27,0,0,0,4.83,1,66.56,66.56,0,0,0,9.72-2.91c5.49-2,6.15-1.53,5.49,5,8.18-2.6,16.07-5,23.89-7.63,4-1.34,6.05-1.11,9.41,1.91a19.73,19.73,0,0,0-2,17.58c2.24,5.65,7,10.64,11.6,14.88,3.31,3,8.19,4.36,12.35,6.49A4.44,4.44,0,0,1,417.73,95L404.92,92.2c8.09,8,16.09,14.77,25.64,19,9.26,4.11,19.08,6.92,28.4,10.22-7.35,6.58-21.53,10.46-34.82,9.14-.23,8.74,6.63,13.22,11.88,18.63l-.74,1.41-18.48-.74c1.45,4.47,3.09,8.93,4.34,13.48,2.69,9.74,1.82,19.53-.31,29.22a4.72,4.72,0,0,0,1.11,4.9c4.53,5.27,4.44,10.62.18,16.3-1.69,2.25-3.6,3.61-6.38,1.85a18.92,18.92,0,0,0-1,2.08,38.21,38.21,0,0,0-2.32,9.58c2.69-1.86,5.41-3.69,8.07-5.6a156.91,156.91,0,0,0,28.62-26.42A136,136,0,0,1,465,178.63c5.43-4.59,12.16-7.71,19.49-7.54,9.51.22,18.05,7.52,21,17.52,3.79,12.78,1.11,24.59-6.32,35.4-18.78,27.3-45,43.45-77,50.67-7.62,1.72-15.46,2.48-23.14,3.93a8.54,8.54,0,0,0-4.4,2.69c-1.4,1.56-2.22,3.62-3.3,5.46-3.07,5.19-3.12,5.84,2.45,8.68,6.08,3.09,10.75,7.23,13.62,13.53,2.52,5.54,2.49,6-2.6,8.08-1-2.77-1.46-5.94-3.14-8.2s-4.43-3.59-6.88-5.06c-3.52-2.11-7.18-4-11.07-6.09a109.05,109.05,0,0,1-27.93,21.21c-11.45,6-23.42,10.34-36.22,12.2-4.58.66-9.28.5-13.91,1a4,4,0,0,0-2.71,2.05c-1.94,4.49-3.62,9.09-5.22,13.23-5.65-4.7-11.38-10.25-17.91-14.57-3-2-7.65-1.55-11.52-2.34-21.9-4.43-41.22-13.91-57.14-29.75C207.58,297.13,204.54,293,201.13,289Zm-3.71-178.71-1-.18a4.66,4.66,0,0,0-.72.9c-5.15,12.06-10.34,24.1-15.4,36.18-4.78,11.41-8.15,23.06-6.57,35.69a14.18,14.18,0,0,1-1.25,7,30.05,30.05,0,0,0,1.08,27.1c2.89,5.46,6.92,9.49,14,8.12a16.19,16.19,0,0,1,3.75.17c-1.41,4.38-1.64,4.46-9.45,3.86-.59,8.26.46,16.11,4,21.33,1.64-10.24,5.88-17.7,12.89-22.85,2.55-1.87,5.29-2.41,8-.79a26,26,0,0,1,6.74,5.2c10.12,12.08,22.15,21.4,37.18,26.52,5,1.69,10.07,2.7,15.64.42-7.57-12.75-6.52-24.91,2.32-37.29-3.52-1.62-6.49-3.18-9.6-4.39-9.6-3.72-19.47-4.5-29.34-1.49-3.43,1.05-6.43,3.46-9.67,5.16-1.35.7-2.83,1.17-4.25,1.74.69-1.47,1.08-3.24,2.15-4.33,1.42-1.44,3.38-2.36,5.16-3.53-4.81-5.39-7.31-11.6-6.6-18.59s4-12.82,9.18-18.6l-13.2,2.59-.61-1.78a24,24,0,0,1,4.32-2.43c9.11-3,18.47-3.31,27.95-2.42a178.31,178.31,0,0,1,42.31,9.32,85,85,0,0,0,21.11,4.45c5.92.49,7.78-2.39,7.47-8.26-.18-3.52-.37-7-.56-10.77,2.83-1,3.64,1.47,4.14,3.61,1,4.1,2.62,8.47,2,12.4-.5,3.05-4.07,5.6-6.33,8.44,5,11.94-.69,21.55-7.89,30.41,1.5,2.76,2.94,5.39,4.37,8-13-16.79-29.3-15.66-37.15-9.24-11.08,9.06-11.67,25.5-1.41,37.54,5.19,6.08,19.52,10.36,28.23,2.61a57.7,57.7,0,0,1-6.41.3c-5.18-.32-8.6-4.35-8-9.18.47-3.64,3.38-5.27,8.79-3.53a92.87,92.87,0,0,1,15.74,7.09c27.47,15,56.65,21.85,87.93,18.51a175.26,175.26,0,0,0,23.14-3.81c29.39-7.24,54.29-21.66,72.81-46.21,8.23-10.91,10.07-22.92,6.07-35.5-2.67-8.39-8.13-14.17-19.22-13.46-9.12.59-16.08,4.63-22,11-7.15,7.64-13.51,16.11-21.18,23.18-11.82,10.89-24.34,21.1-40.36,25.57-8.4,2.34-16.62,4.65-25.24-.08-10.88-6-15.72-13.37-14.67-26.33.83-10.26-.85-20-9.52-27.16a7.82,7.82,0,0,1-1.32-2.26l.91-.72,10.61,10.67c.42-9.16-4.69-15-10.79-20.3,6.14,2.66,10.05,7.37,12.41,13.23l4.84-5.49,1.42.85c-5.32,3.62-6,8.86-5.89,14.33s2.39,7.65,7.83,7.13c9.68-.91,19.31-2.3,29-3.14,6-.52,11.52,1.47,16.47,4.81,3.43,2.33,3.68,4.6,1.83,8.77-.43,1-.29,3,.34,3.43.93.6,3,.76,3.75.12,3.51-3.05,6.45-9.9,1.18-14.64-3.67-3.3-7.51-6-12.5-6.88a14.46,14.46,0,0,1-3.14-1.32c.2-.55.4-1.09.61-1.64L419.47,194c.49-8.28,2.32-16.74-.38-25.12-1.87-5.77-4.29-11.36-6-17.16-.9-3-2.84-3.61-5.43-4.44-11-3.54-21.46-8.31-30.73-15.41-3.87-3-7.85-5.77-12.53-9.2l1,19.76c-6.47-2.36-10-7.25-14.34-11-7.88-6.9-15.82-13.72-23.62-20.7-3.08-2.76-5.39-1.93-8,.63-1.78,1.73-4.05,2.94-6.42,4.61-1.81-8.29-8.23-14.31-15.52-15.38-4.23-.62-6.63,1-7.37,5.18-.46,2.6-.62,5.25-.92,7.93-1.2-1-2.16-2.22-3.41-2.74-8.54-3.54-17.14-6.93-25.72-10.35-3.17-1.26-6.36-2.45-9.51-3.72-2.6-1-4.11-.71-4.2,2.57,0,1.07-1.08,2.12-1.88,3.57-3-5.35-6.23-6.32-11.42-4.47-4.49,1.59-7,5.21-8.48,9.12-2.69,6.85-4.63,14-6.56,20L205.19,127c-3-.16-4.14,1.12-3.85,4.16.4,4.3.61,8.62.66,12.94,0,1.53-.7,3.07-1.08,4.61l-1.48-.23ZM272.31,61l-9.79,3.78-5.95-8c-8.55,9.19-18.47,11.54-29,10-1.26,2.79-2.38,5.72-3.86,8.45-2.6,4.8-5.43,9.48-8.17,14.2l.61.54,16.33-12.14,5.93,5.39c.33-4.16.58-7.4.84-10.64l1.68-.71L261,90.27c2.45-4.68,4.65-8.86,7.13-13.61,2.32,4.17,4.32,7.78,6.49,11.71,2.89-3.76,5.44-6.84,7.72-10.11,1.52-2.18,2.59-2,4.85-.67,7.95,4.72,16.16,9,25.17,14-1-2.33-1.64-3.66-2.32-5.2,7.35-1.37,9.56,6.15,14.87,8.09.13-2.65.24-5.06.4-8.36a83.94,83.94,0,0,1,25.17,29c-.38-7.21-.84-13.75-1-20.29-.11-4,1.6-4.86,4.94-2.69,6.8,4.4,13.48,9,20.3,13.34,4.8,3.08,9.74,5.92,14.62,8.87.18-.26.35-.52.52-.79-1.67-2.87-3.33-5.74-5.16-8.9L410.31,115l.43-.92c-.51-.42-1-.83-1.53-1.28-6.38-5.86-13.45-11.16-18.88-17.8-3.09-3.79-5.7-5.63-10.42-6s-9.16-2.09-13.74-3.2l.08-1.1,3.94-2.38c-9.27-1.81-18.59-1.2-27-6l5.32-5.07-20.3,1.07c-1.35-3-2.41-5.45-3.65-8.27-2.3,1.25-4.2,2.46-6.25,3.36-5.44,2.39-10.9,5.46-16.48.2-4.37-4.11-8.66-4.72-14.71-2.21C276.6,69.71,279.29,71.07,272.31,61Zm66.44,254.5c5.28-13.24,13.58-25.6,10.54-40.7l-17.75-5.66c-3.66.88-6.29,1.56-8.94,2.16-6,1.38-11.29-1.05-16.38-3.64a6.58,6.58,0,0,0-6.73,0,26.47,26.47,0,0,1-8.91,2.68c-9.7,1-17.52-2.79-24-10.82-.75,1.49-1.81,2.71-1.93,4-.47,5-1.24,10-.81,14.91a107.63,107.63,0,0,0,9.66,36.42c1.66,3.57,4.09,6.78,6.17,10.16,3.62-20,7.9-39,21-55.83l7,55.63,1,.07c1.51-4.65,2.77-9.41,4.6-13.93,4.21-10.42,8.64-20.75,13.13-31.06.52-1.18,1.94-2,3.48-3.48C329.53,290.88,337.46,302.36,338.75,315.5ZM266.37,193.82c-.92,5.84,2.12,9.47,8,10.14,7.9.9,12.57-2.19,13-8.83,4.55.57,8.22,2.37,10.35,6.63s-.14,7-2.89,9.87c-.67.71-.45,3.57.3,4.09,2.35,1.64,5.15,2.64,7.89,3.94,5.89-6.81,9.6-14.13,9.29-23.06-.09-2.8-1.15-4.25-4.49-4.23A46.09,46.09,0,0,1,295.24,191c-10.53-2.92-20.8-6.86-31.41-9.44-9.61-2.33-19.5-3.59-29.32-5-5.54-.76-8.38,3.42-10.85,7.48-4.11,6.77-6.6,13.81-2.77,21.67,2.7,5.52,5.89,7.71,10,6.55a35,35,0,0,1,21.8.84,29.6,29.6,0,0,0,4.44.61c-3.46-4.61-5.09-8.48-2.16-12.65C257.69,197.25,261.36,195,266.37,193.82Zm-22,117.59c.16-18.23,7.3-33.54,15.82-48.24-5.87-1.68-11.69-2.9-17.14-5.05-5.6-2.2-10.83-5.31-16.24-8C222,256.12,234.19,300.08,244.4,311.41Zm142.34-84.47c8.66,7.32,9.22,7.34,21.47,1.77,1.56-4.1,3-7.61,4.26-11.18,3.25-9.22,0-14.69-9.25-16-6.93-1-14.19.1-21.26.71-7.35.63-14.78,3.69-21.5-1.75,0,3-.22,5.83,0,8.6.4,5.29.2,10.7,3.15,15.53,2.73,4.47,4.76,4.58,8,.17-5.55-4.34-7.44-8.05-5.86-11.51,1.4-3.09,5.63-4.55,10-3.46-.67,5.16.95,8.14,4.78,8.24,1.46,0,3.69-.38,4.26-1.35,1.21-2.08,1.57-4.66,2.28-7.06,4.13.89,9.07,2.26,9.79,7.47C397.66,223.46,391.29,224.42,386.74,226.94Zm-125,39.81a15.35,15.35,0,0,0-1.89,2.71c-3.15,7.29-6.5,14.52-9.23,22a52.21,52.21,0,0,0-3.15,23.45c.58,5.57,1.55,7.87,7.19,9.4,4.64,1.27,9.29,2.51,14,3.56,3.12.69,6.32,1,10.25,1.64C265.44,310.21,260.32,289.57,261.71,266.75Zm37.9,9.88c-.2,0-.4,0-.45,0-9.93,14.65-14.6,31.2-17.36,48.4-.41,2.51.34,4.85,3.85,4.79,3.83-.07,7.67.12,11.5.23,2.63.07,5.26.2,7.53.29C302.94,312,301.27,294.29,299.61,276.63Zm-76.34-21.12c-5,6.72-7.27,14.33-9,22.25S214,293.48,215,302c8.43,6.69,17.65,13.85,29.11,17.45C232,299.74,224.18,278.85,223.27,255.51Zm1.33-7.25c-5.69-5.81-10.74-11.3-16.2-16.32-1.4-1.3-4.51-2.08-6.13-1.41s-3,3.46-3,5.37c-.45,11.47,1.94,22.54,5.46,33.41,2,6.24,4,12.51,5.93,18.77C211.64,273.29,215,259.68,224.6,248.26Zm104,36.15-2.06-.17L309,328.43l1.12,1.4,25.65-5.39C333.31,310.61,331,297.51,328.62,284.41Zm-117,13.43c-6.53-20.44-15.73-40.13-14.37-63.23-7,9.34-8.17,18.64-5.49,28.54,1.22,4.49,2.87,8.87,4.32,13.3C198.93,285.27,205.07,291.67,211.6,297.84Zm141.47-12c-4,13.21-10.79,24.16-14,36.59a110.25,110.25,0,0,0,14-5.84,3.68,3.68,0,0,0,1.8-2.5C355.58,305,355.59,295.88,353.07,285.8Zm14.07-7.89-16.08-2.74A65.84,65.84,0,0,1,359,306.89C364.92,298.14,365.92,288.25,367.14,277.91Zm2,5.26c-1.31,5-2.26,10.21-4,15.09s-4.4,9.68-6.65,14.51a84.17,84.17,0,0,0,12.67-8.28,3.75,3.75,0,0,0,1.12-2.5c.16-2.31-.29-4.73.18-7C373.33,290.5,371.23,286.92,369.1,283.17Zm-60-25.11c-1.38,2.39-2.72,4.75-4.07,7.1,7.44,4.39,15.48,5.69,21.5,2.09Zm67.66,39.24c1.95-6.4,3.76-12.34,5.62-18.47l-12.18-.59C372.35,284.4,374.39,290.34,376.79,297.3Zm15.76-63.83c-6.58-5.2-13.76-6.16-21.79-2.92C376,236,387.47,237,392.55,233.47ZM182.67,124.2l13.53-21.41a74.08,74.08,0,0,0-11.61,7,5,5,0,0,0-1.42,3.31C182.87,116.85,182.81,120.62,182.67,124.2ZM379.11,295.55c5-4.48,9.73-9.39,12.21-16.59-3.16.64-6.51-1.35-7.83,2.57C381.93,286.17,380.56,290.87,379.11,295.55ZM160,175c4.49,2,6.32,1.16,7.47-3.58,1.07-4.36,2.14-8.73,3.16-13.11a19.76,19.76,0,0,0,.07-3.22C166.76,162.35,163.36,168.67,160,175Zm13.93,64.69,1.23-.28L168,225.88,162.08,230Zm-5.75-61.29-1.15-.24L162.79,187l3.39-.56c-.15,2.23-.28,4.19-.41,6.16l1.33.09Z"/><path class="cls-1" d="M383.65,459.32c-1.86,4.16-4,8.21-5.53,12.48-5.53,15.55-15.48,28.5-24.95,41.58-10.11,14-23.13,25.15-40,30.22a62.16,62.16,0,0,1-47.49-4.26c-11-5.66-21.57-12.17-32.18-18.55-3-1.83-5.59-4.49-8.28-6.86-14.38-12.63-29.19-24.81-42.94-38.1-10.8-10.46-21.16-21.52-28.58-34.95-3-5.42-7.33-10.11-11-15.18a33.09,33.09,0,0,1-2.1-3.84l.92-.66c2.48,2.64,5.08,5.18,7.42,7.94,7.64,9,14.72,18.52,22.87,27,20.51,21.42,44.86,38,70.13,53.19a104.86,104.86,0,0,0,44.71,14.25c18.41,1.74,33.68-4.65,46.79-16.65,11-10.06,21.25-20.92,31.78-31.48,5.6-5.61,11.1-11.34,16.64-17Z"/><path class="cls-1" d="M296.12,498.46c6.11-48,7.18-96.06,1.48-144.25C304.84,363.27,303.89,486.63,296.12,498.46Z"/><path class="cls-1" d="M260.16,123.36c7.75-.43,12.76,2.59,17.6,5.44,7.53,4.42,14.48,9.72,19.42,17.14a35.42,35.42,0,0,1,3.59,6.7c1.9,4.91-.58,9.1-7.36,8.27a38.32,38.32,0,0,1-19.26-8.45c-6.76-5.39-13.95-10.6-17.25-19.18a38.71,38.71,0,0,1-1.7-5.18C254.61,125.48,257.51,123.44,260.16,123.36Z"/><path class="cls-1" d="M387.67,181.3c-3.51-.79-7.27-1.06-10.5-2.51-4.72-2.12-4.91-6-.62-9,8-5.59,16.95-6.61,26-3.46,5.27,1.84,5.39,5,1.13,8.95S393.79,180.7,387.67,181.3Z"/><path class="cls-1" d="M255.85,162.57c-1.31-.37-2.65-.64-3.92-1.11-13-4.87-26.05-5.54-39,.2-9.65,4.26-9.17,7.36-7.84,16.74a14,14,0,0,0,.66,2c1.37,4.62,2.33,5.19,7.21,4.36a25.1,25.1,0,0,1,2.7-.15c-8.1,5.71-12.6,1.32-14.09-6.34a31.53,31.53,0,0,1-.94-8c.44-6.47,5.7-9.05,10.64-11.08,13.3-5.45,26.9-5.31,40.47-.84,1.73.56,3.23,1.79,4.84,2.72Z"/><path class="cls-1" d="M185.13,195.21c3.33-13,2.23-27.16,1.08-42,6.71,14.4,2.72,53.27-4.83,59.53-4.89-3.21-5.62-12.39-3.49-16.16C178.61,195.33,182.22,195.69,185.13,195.21Zm-4.45,11.3c3.86-4.72,3.62-6.17-.37-6.91Z"/></g><g id="lado_inzquierdo" data-name="lado inzquierdo"><path class="cls-1" d="M18,246.51,6.88,260.82c-1.42-2.13-1.42-2.13,4.08-8.89L.26,249.65c-1.31-6.1,2.45-8.89,9.86-6.85,2,.56,4,1.32,6.34,2.08l2.81-5.28c-3-.71-5.63-1.62-8.29-1.87-3.35-.3-4.85-1.27-3.39-4.66.36-.84.14-1.91.23-3.53,3.65.37,7.17.34,10.46,1.18s4.69.33,4.47-3.1c-.05-.77.43-1.57,1-3.3l-13.27-.72a6.77,6.77,0,0,1-.17-1c0-2.26-.31-6.4.13-6.47,3.21-.57,6.57-.33,9.89-.3a13.46,13.46,0,0,1,1.93.18l3.24-10.23-5.95-5.1c3.85-6.28,4.74-6.18,14.7,2a45.3,45.3,0,0,1,3.17-3.5,49.43,49.43,0,0,1,4-3l-9.12-4.11a19.29,19.29,0,0,0,1.8-3.42c1.6-5.7,1.91-5.8,7.38-2.59,2.09,1.23,4.33,2.22,6.55,3.35l4.3-5c-2.3-1.6-4.53-3.24-6.85-4.74s-5-2.8-2-6.11c.8-.9.57-2.63,1-4.76l13.08,7.88c5.88-7.46-4.13-8.23-5.47-12.44,1.5-2,2.93-3.87,4.84-6.41a78.05,78.05,0,0,1,6.2,5.88c2.32,2.7,4.7,4,8.2,2a17.39,17.39,0,0,1,3.86-1l-8.26-9.59c4.84-5.73,6.44-5.77,10.87-.43,1.18,1.42,2.4,2.8,3.51,4.27s2.07,3,3.24,4.68l5.22-1.84C87,158.2,84.14,155,82,151.39a4.85,4.85,0,0,1,.93-4.77c1.85-1.42,4.32-2.15,6.25.83,2.06,3.18,4.66,6,7.3,9.4,1.47-1.55,2.73-2.86,4.27-4.49-2.27-2.68-4.48-5.43-6.85-8-1.89-2.1-1.44-3.65.63-5.34,2.28-1.87,4.06-1.19,5.6.73,2.31,2.88,4.47,5.86,7,9.24l6.84-4.3c-2.42-2.86-4.36-5.49-6.65-7.78-2.71-2.71-2.94-4.93.45-7.17a18.46,18.46,0,0,0,2.5-2.64l9.57,10.87c1.61-1.32,3.13-3.42,5.07-3.88,1.62-.4,3.74,1.1,5.85,1.83-2.92,2.71-5.63,5.26-8.39,7.76-5.5,5-7.84,11.55-10,18.23-3.13,9.81-6.39,19.58-9.45,29.4a63.1,63.1,0,0,0-1.51,7.77c-.89,5.1-2.21,10.18-2.48,15.31-.3,5.49.41,11,.31,16.58-6.2-17.57-.39-36.18-5.94-53.81l1.78-.23c1.35,6.89,2.7,13.78,4.29,22,3.55-18.89,9.65-35.72,16.75-52.71-5.63,4.62-11.37,9.13-16.86,13.9s-11.37,7.31-19.06,7a7.73,7.73,0,0,0,.57,1.71c5.6,8,4.85,16.78,4,25.85C83.41,210.72,86,226,98.93,238c3.17,2.94,6.31,5.91,9.58,8.75,7,6.06,16.07,6.56,24.6,8.52,7.68,1.77,13.14,10.67,10.89,18.11-.87,2.9-2.06,5.72-3.14,8.65,6.51,4,8.65,9.68,6.06,17.53-.86,2.63-1,4.4.89,7.11,3.72,5.4,3.36,11.41-.93,17,.92,1.3,1.9,2.63,2.83,4,3.9,5.75,3.47,11.34-.12,17.19-2.38,3.89-4.63,7.89-3.27,13,2.41,9,7.67,12.09,17.48,10.26,8.55-1.6,17.19-2.94,25.85-3.85,5.55-.58,9.65,2.44,12.59,6.87,3.12,4.7,1.43,9-1.09,13.34-8.11,13.93-26.31,20.68-45.47,15.18-6.05-1.74-11.87-4.22-16.46-5.88,5.9,14.64,12.14,30.65,18.79,46.5,3.93,9.36,10.38,17.1,17.41,24.64,8.62,9.24,16.12,19.44,24.19,29.16,6,7.21,12,14.45,18.24,21.44,10.59,11.83,22,23,31.94,35.34,8,10,17.89,17.48,29.45,23.47-5.59-5.55-11.36-11-16.71-16.71A198.83,198.83,0,0,1,246.73,539c-4.61-6.38-8.18-13.45-12.2-20.22s-7.86-13.32-11.79-20l.84-.65a39,39,0,0,1,4.08,4.8c6.86,11.27,13.44,22.7,20.44,33.89a82.47,82.47,0,0,0,9.8,12.73c9.17,9.74,19,18.89,27.93,28.85,7.85,8.81,14.32,18.78,22.31,27.46,3.21,3.5,8.85,4.93,13.37,7.35,1.66.89,3.26,1.9,5.1,3a10.52,10.52,0,0,1-1.21,1c-5.84-4.16-9.88-1.46-13.49,3.17-1.41,1.8-3,3.5-4.68,5.54-3-3.26-7.69-4.87-5.52-9,1.47-2.8,5-4.61,7.55-6.84-2.66-4.34-5.81-3.6-9.34-1.3-3.32,2.16-6.81,4.1-10.36,6.22-.88-1.17-1.66-2.16-2.38-3.2-3-4.29-2.62-6,1.92-9,2.51-1.63,5-3.29,7.76-5.1a14.51,14.51,0,0,1-2.15-2.69c-1.37-3.07-3.43-2.46-5.62-1.1-2.82,1.75-5.57,3.61-8.36,5.39s-5.05,1.5-6.91-1.53c-1.09-1.79-2.8-3.22-4.93-5.58q6.44-5.12,12.84-10.23c-3.58-6.65-6.81-7.24-12.43-2.24-.43.39-.81.83-1.27,1.19-5,3.88-10.57,2.63-12.71-3.32-.5-1.39,1.2-3.89,2.48-5.4,1.43-1.69,3.54-2.83,5.31-4.17L257.4,563c-4.27,2.06-8.14,4.78-12.41,5.6-1.78.34-4.41-3.33-7.17-5.6L249,553.33l-4-5c-2.85,2-5.39,3.8-8,5.52s-6.46.45-8.95-3.16c-1.94-2.83-.28-4.51,2.36-5.93a73.28,73.28,0,0,0,6.2-4.13l-4.85-5.11c-2.45,2-5.12,3.87-7.52,6-2,1.86-3.45,1-4.72-.64a18,18,0,0,1-2.62-4.29c-.27-.7.31-1.85.82-2.61a6.87,6.87,0,0,1,2-1.6c5.62-3.77,5.62-3.77,1.31-8.7-.91-1.05-1.71-2.19-2.89-3.73-2.49,2.44-4.8,4.57-6.94,6.85-2,2.11-3.53,1.47-5-.4-4.08-5.14-4-5.43.72-10,1.56-1.49,3.16-3,5.2-4.85l-9-9.79a85,85,0,0,0-7.37,5.94c-2.75,2.73-4.48,1.94-6-1-.87-1.73-1.63-3.52-2.47-5.35l9.45-7.52-5.63-7.23L180.78,495c-4.35-5.52-4.3-6.62.18-10.54,5.72-5,5.72-5,.06-10.93-2.79,2.31-5.45,4.78-8.44,6.8a4,4,0,0,1-3.81-.67c-1.57-2.07-4.6-4.29-1.71-7.25a97,97,0,0,1,7.5-6.25L168,460.92c-2.23,1.69-4.43,3.26-6.51,5-1.93,1.59-3.09,1.38-4.41-.83-3.71-6.22-3.57-7.25,2.4-11.33.71-.49,1.37-1,2.37-1.81-.78-1.34-1.53-2.64-2.4-4.16-1.68,1.48-3.14,2.87-4.71,4.13s-3,2.16-5.13,3.68c-1.18-1.92-2.26-3.61-3.28-5.34-1.41-2.38-.55-3.74,1.92-5a65.63,65.63,0,0,0,7.1-4.76l-2.76-3.84c-2.82,2-5.55,3.79-8.23,5.71-1.28.93-2.47,3-4,.49-1.23-2-3.49-4.21-.13-6.5,2.84-1.93,5.56-4,8.51-6.17-.86-1.48-1.59-2.77-2.64-4.58l-10.22,7.63c-2.52-2.9-5-6.32-2.82-9.35,1.73-2.44,5.79-3.34,8.83-4.93-.93-1.8-1.84-3.53-2.65-5.09l-13.31,8.39-1.46-.53c.18-3.35-.78-7.4.86-9.86s5.83-3.12,9.06-4.66l-3.76-6.13-13.88,9.22c-.85-5.11-1.53-9.19-2.18-13.13l10-3.25-4.87-6.3-11.58,7c-4.92-8.76-4.92-8.76,6-14.21-2.29-2.32-4.45-4.53-6.63-6.75L95.64,382c-4.82-8.65-4.23-10.43,4.44-14.8l-6-5.54-11.47,7.54c-.82-3.83-2.83-7.49-1.76-9.86S86.09,355.79,89,354l-4.75-7.44-12,7.27c-.91-2.35-1.79-4.62-2.7-6.95l6.21-5.15L67,337.13c-1.37,1.57-2.91,3.25-4.36,5s-2.54,3.3-3.69,4.8c-2.16-2.32-4.18-4.27-5.88-6.44a2.85,2.85,0,0,1,.22-2.71c1.69-2.24,3.65-4.3,5.59-6.52l-8.44-7.72c-1.87,1.5-4,3.09-6,4.84-2.19,1.95-3.67,1.58-5-.91-3.65-7.05-3.84-6,2-10,1.2-.81,2.27-1.8,3.32-2.63-4.39-6.39-4.39-6.39-11.06-2.73-1.85,1-3.73,2-6.11,3.21L24.17,305l11.62-4.52c0,.1.06-.07,0-.18-4.19-9.63-8.54-10.63-17.27-4-.66.51-1.3,1-2,1.57-5.08-5.61-4.27-9.59,2.36-11.87,2.83-1,5.79-1.57,8.72-2.34,0-4.62-2.24-5-14.8-2,.44-3.47.71-6.71,1.39-9.87.12-.56,1.89-1.07,2.92-1.13,2.92-.15,5.85-.05,8.85-.05.36-5.34-3.38-4.21-6.2-4.26-2.08,0-4.17.13-6.26.2,0-1.86.16-3.72.13-5.59,0-.49-.43-1-.9-2l10.37-1.74-5.28-10.8c1,.88,2.52,1.57,3,2.67,2.88,6.74,5.52,13.57,8.13,20.1a18.23,18.23,0,0,1,1.32-2.09c3.76-4.77,10-5.56,14.32-1.25a46.74,46.74,0,0,1,8.87,11.33c7.64,14.95,17.81,27.45,33.18,35.81,10.75,5.85,21.62,9.91,34.37,7.84,6-1,12.46-1.66,18.35-.62,4.93.87,5.42-1.7,6.08-4.31,1.36-5.37-1.65-9.39-7.3-10.37-2.44-.42-4.92-.61-7.38-.95-16.51-2.27-31.92-7.37-45.52-16.82a111.75,111.75,0,0,1-33.32-36c-9.23.73-11.41-6.89-14.65-12.19a23.31,23.31,0,0,1-2.74-19c-7.16.68-8.84,2.78-10.26,8.49C22.84,235,20.14,240.69,18,246.51Zm131.68,180.1,1.31-.71c-5-10.58-8.87-21.84-15.27-31.57-7.89-12-12.08-24.91-15-38.53,5.29,11,5.81,24,14.69,33.25l1.68-3.65c3.46,2,6.29,4,9.41,5.32a59.59,59.59,0,0,0,10,3.13,71.49,71.49,0,0,0,10.67,1.84c12.39,1.06,23-3.09,30-13.53,3.61-5.37.64-12-5.78-12.84a28.78,28.78,0,0,0-8.33.29c-7.15,1.13-14.23,2.8-21.41,3.73-5.13.68-10.18.16-14.27-3.76a18,18,0,0,1-2.4-23.06c5.05-7.25,5-9.14,0-16.38-2-2.92-4.62-4.62-8.39-4.37-3.37.22-6.75.34-10.12.65-14.06,1.29-27.32-.65-39.5-8.11-11.2-6.85-21.39-14.66-27.61-24.54-3.3-.34-6.12.2-7.35-.9-8-7.09-12.95-15.82-14.37-26.4-3.49,1.45-6.64,3.78-6.86,7.72-.26,4.6-.34,9.49,1,13.83,1.59,5.12,4.71,9.82,7.28,14.65,6.38,12,14.62,22.72,26.61,29.92,14.21,8.53,30.4,12.82,46.19,17.72,5.64,1.75,11.89,1.68,17.87,2.44l.45,1.22c-1.46.54-3,1.75-4.37,1.52-7.53-1.33-15.1-2.68-22.47-4.65-6.16-1.64-12.07-4.13-18.94-6.53C88.55,350.08,91.81,355.45,96,360c6.34,6.8,13.76,12.67,20,19.57a256.67,256.67,0,0,1,18.11,23C139.66,410.31,144.5,418.56,149.65,426.61Zm-6.59-131.46c-.1-7.33-.16-7.67-7.7-9.33-17.92-3.95-33.92-11.11-47.11-23.84-11.47-11.07-19-23.87-21.39-39.41-.57-3.72-.41-7.87-2.14-11a38.13,38.13,0,0,1-5-18.77c0-1.23-1.27-3.22-2.34-3.49a6.33,6.33,0,0,0-4.65,1.2,77.52,77.52,0,0,0-6.56,6.14c-1.48,1.41-3.91,2.62-4.27,4.26-1.88,8.44-3.7,17,1.93,25a27.86,27.86,0,0,1,3.59,7.55c6.43,20.34,19.16,36.28,36.67,49,16.61,12,35.67,17.54,56,19.51.83.08,2.29-1.19,2.61-2.11C143.22,298.35,143,296.7,143.06,295.15ZM56,186.6c7.95,2.67,9.07,8.92,10,15.13,1.15,7.58,1.43,15.33,3.17,22.78,3.3,14.14,10.84,26.1,22.07,35.87,12.39,10.78,26.54,18,43.08,20.21.74-1.19,1.3-2.3,2-3.28,6-7.72,2.86-16.28-6.65-18.76-5.83-1.51-12.23-2.32-17.17-5.29a93.66,93.66,0,0,1-18.66-15.18c-10.44-10.76-12.78-24.43-12.73-38.57,0-7.49.89-15,.57-22.46-.13-3.25-1.66-7-5.62-8.22-3.59-1.08-6.64.52-8.85,3.28C63.56,176.75,60,181.48,56,186.6ZM25.85,221.94c3.13-4,7-4.94,10.86-3.65C37.49,213.07,38.24,208,39,203l-14.76,8C24.77,214.66,25.26,217.93,25.85,221.94Z"/></g><g id="lado_der" data-name="lado der"><path class="cls-1" d="M449.73,410.8l1.68-3.51c-8.1,6.58-16.17,7.64-25.09,6.42-10-1.35-20-1.94-30.08-2.63-4.41-.31-8.86-.05-13.29-.05l0,1.5c.85.05,1.7.15,2.55.16,5.77.05,7.68,1.76,7.24,7.34-.08,1.05-2.4,2.64-3.78,2.74-4.48.36-9,.14-13.91.14.47,2.34.85,4.21,1.18,5.81,4.61.35,9.07.38,13.38,1.21,1.11.22,2.39,2.92,2.49,4.55.47,8,.34,8-7.55,6.33-2.28-.48-4.62-.67-7.32-1-.18,2.66-.33,5-.51,7.77,3.43,0,6.85-.11,10.26.06,1,0,2.61.75,2.74,1.4a21.37,21.37,0,0,1,.43,7.33c-.11.66-2.81,1.25-4.33,1.29-2.78.07-5.56-.3-8.6-.5v7a35,35,0,0,0,6.14,1.14c2.91,0,4.59,1.13,4.8,4,.14,1.85,0,3.72,0,5.57a31.7,31.7,0,0,1-4.7-.43c-2.29-.54-4.5-1.38-6.94-2.15V484.4a55.09,55.09,0,0,1,7.43,2.2,5.63,5.63,0,0,1,3.05,3.33c1.06,5.64-.65,7-6.12,5.08-2.07-.71-4.06-1.67-6.5-2.69-1.12,4.46-2.18,8.71-3.35,13.4,2.62.94,5.33,1.85,8,2.86,3.93,1.49,4.78,4.12,2.6,8.39-1.72,3.39-4.07,1.82-6.34.64-2.08-1.08-4.19-2.11-6.69-3.37-1.19,3.24-2.27,6.19-3.3,9,3.21,1.12,6.43,2,9.44,3.35,3.24,1.46,4.27,7.29,1.76,9.78a3.87,3.87,0,0,1-3.34.71,52.75,52.75,0,0,1-6.33-3.08l-5.63-2.85-4.8,6.91L369,545.59c-4.34,1.95-4.34,7.64-9.06,6.1-3.07-1-5.73-3.26-8.87-5.13l-3.68,8.4c2.55,1,5.15,1.78,7.61,2.9,3.32,1.51,4.14,4.57,2.49,8s-4.31,2.35-6.74,1.28-4.57-2.45-6.72-3.62c-.55.48-.86.61-.93.83-2.41,7.56-2.41,7.57,5.29,10.19,6,2.06,6.05,2.54,4.86,8.36-.77,3.77-2.95,3.24-5.25,2.4-3.26-1.19-6.4-2.72-9.82-4.21L334.72,589l9.78,3.86c3.63,1.43,3.11,4,2,6.89-1.33,3.58-3.37,1.71-5.36.85-2.53-1.1-5.09-2.12-8.06-3.35-.29,3.23-.54,6-.78,8.66l-1.79.06c-.28-2.91-1.35-6-.7-8.68,1.33-5.45,3.52-10.7,5.45-16,3.89-10.68,7.59-21.44,11.87-32a70.16,70.16,0,0,1,7.64-13.3,78.29,78.29,0,0,0,12.41-27c2.26-9.7,5.19-19.38,6.09-29.23,1.06-11.57.25-23.3.25-34.26-4.41,2.79-9.27,6.5-14.66,9.14a38.16,38.16,0,0,1-27.35,2.86c-9.81-2.69-16.26-16.84-12.41-26,2.62-6.29,6.82-8.06,13.47-6.28s13.46,4,20.56,1.85c5-1.54,7.48-7,4.82-11.38-3.28-5.42-5.12-11.11-4-17.45a13,13,0,0,1,2.15-5.26c1.86-2.5,2-4.72.81-7.6a77,77,0,0,1-3-10.33c-.2-.79-.33-2.08.11-2.47,3.7-3.26.56-5.49-1.06-7.95-2.52-3.82-2.4-7.2,1.07-10.08,2-1.69,2.73-3.06,1.62-5.49a13.28,13.28,0,0,1-.88-4.07c-.78-7.4,2.94-11.8,11.89-13.79,8.26-1.85,16.62-3.27,24.84-5.28,17.55-4.3,27.91-15.71,32-33.13,1.83-7.85,6.52-12.16,14.22-13.27,3.11-.45,9,4.22,10.2,8.83,2.36,8.76.71,17-4,24.69,7.59,5.81,6.15,14.12,5.44,23.18,1.2-2.78,2.16-4.88,3-7s1.55-4.46,2.58-6.56,1.92-4.52,3.62-5.81c4.69-3.57,11-.69,12.51,5.38.3,1.19.61,2.39,1,4.06l4.77-6.32c-10.17,17.15-9.8,34.67-3.41,52.66a6.65,6.65,0,0,1-.09,2.42c-.72-.45-1.89-.77-2.08-1.39-1.41-4.58-2.64-9.23-3.86-13.62-14,16.87-32,26.06-53.76,27.53,10.76,4.48,21.44,4.07,32-1.62,3.51-1.89,7.59-4.19,11.22,0l4.19-5.42c-9.42,14.67-9.92,30.63-6.34,47.27l-2-.07c-.7-4.44-1.36-8.89-2.12-13.33a37.45,37.45,0,0,0-1.1-3.81ZM368.4,386.23c-.67.81-1.09,1.35-1.54,1.85-8,8.78-13.48,12.84-5.88,25.71,3.84,6.51-1.23,14.12-6.89,16.08-8,2.76-15.36.71-22.86-1.38-5.3-1.47-8.68.19-9.42,5.62-1.35,9.87,3.55,20.27,16.13,21,13,.71,24.1-4.16,33.52-12.86,2.61-2.41,5.09-5.23,2.4-9.4-.73-1.13-.33-3-.35-4.57-.05-3.11.85-6.6-.28-9.23-1.23-2.85,0-3.84,1.47-5.4,5.92-6.46,13.66-6.49,21.46-5.89,12.68,1,25.33,2.49,38,3.17,9.37.51,17.15-6.09,19.15-15.13.15-.69.42-1.36.63-2-3.39,2.25-6.46,4.77-9.92,6.47-5.81,2.86-11.85,5.49-18.07.75-2.13-1.62-2.32-3.08.3-4.41,1.67-.86,3.31-1.8,5-2.69a65.85,65.85,0,0,1-28.33-6.59c-7.74-3.58-15.14-3.58-22.52.71-.11.07-.42-.2-.8-.4,6.41-5,12.93-7.94,21.14-4.22,6.52,3,13.47,2.65,20.46,1.56,12.26-1.91,22.55-8.05,32.16-15.28,9.11-6.86,15.77-15.43,14.4-27.94a11.15,11.15,0,0,1,.43-2.87c.69-4.17,1.63-8.33,2-12.53a7,7,0,0,0-6.17-7.38c.39,1.73,1.41,3.61,1,5.12A106.76,106.76,0,0,1,460,339.79c-.9,2.09-3.62,3.38-5.51,5L452,340.06c-6.07,5.18-12.54,11.32-19.63,16.62-8.13,6.06-17.44,9.52-27.81,8.47-9.88-1-19.64-4.32-29.79-1.42,3-1.36,6.2-2.69,9.33-2.66,5.72.07,11.42,1.16,17.14,1.41,4.4.19,9,.44,13.22-.56C424.64,359.51,433,354,439.92,346c6.7-7.72,9.4-16,5.26-25.7-.87-2-2.7-3.68-4.75-6.37a27.15,27.15,0,0,1-9.92,20c-2.32,2-5.4,4.17-8.15-.11-13.08,11.75-28.44,13.6-44.9,11.1-2.72-.42-5.17-.28-7.26,2.55a20.88,20.88,0,0,1-7.59,6.27c-7.32,3.45-8.19,5.85-2.79,14.3.63-1.56,1.11-2.78,1.6-4,.29.24.58.48.88.71-.57,1.49-.71,3.62-1.79,4.36-5.46,3.72-4.1,8.19-1.92,12.9.87,1.9,1.72,3.81,2.52,5.61C363.49,387.25,365,383,368.4,386.23Zm-8.69-35.06c2.74-2,5.14-3.05,6.66-4.88,3.72-4.48,8.21-4.16,13.34-3.62,6,.62,12.29,1.13,18.1,0,13.77-2.77,24.46-10.16,30.6-23.38,2.71-5.84,7.66-8.12,14.61-6.88.88-6.74,2.11-13.39,2.51-20.1.33-5.46-4.36-9.68-8.26-8.95-.9,9.26-2.45,18.05-9.1,24.93-1.28,1.32-3.76,1.47-6,2.28-.18-2.3-.28-3.52-.43-5.36a18.8,18.8,0,0,0-1.41,2.12c-4.94,10.51-13.53,17-24.2,20.45-7.5,2.42-15.44,3.48-23.16,5.25-5.54,1.27-11.61,2.12-13.13,9C359.23,344.62,359.71,347.46,359.71,351.17Z"/><path class="cls-1" d="M176.39,119c-3.83-4.55-7.88-8.92-11.41-13.69-2.19-3-3.49-6.55-5.38-9.74-1.64-2.75-.34-4.48,1.67-6.1,1-.79,2.07-1.44,3-2.25,3.62-3,4.39-2.81,6.48,2.4-2.79,2.55-5.71,5.2-8.79,8l2.76,4.24a45.9,45.9,0,0,0,3.44-3.28c3.4-4,3.37-4,5.82.51l-5,7.43c2.42,4.42,8.05,6.16,8.64,11.46Z"/><path class="cls-1" d="M160.29,70.19l-10,8.39c-3.28-6.49-3.28-6.49,6.87-13.77Z"/><path class="cls-1" d="M449.62,410.69c-1.62,2.78-2.8,6-4.93,8.28a24.71,24.71,0,0,0-6.7,19.92c.29,3.34.05,6.72.05,10.08l-1.39.5c-.59-1.18-1.71-2.38-1.68-3.54a113.65,113.65,0,0,1,1-14.18c1.4-9,8.34-14.48,13.72-20.94Z"/><path class="cls-1" d="M163.89,80.91a58.44,58.44,0,0,1-5.14,4.32,25.44,25.44,0,0,1-4.44,1.89c0-2.22-.77-4.8.13-6.55,1-1.95,3.48-3.13,5.55-4.84Z"/></g><g id="cremallera_arriba" data-name="cremallera arriba"><path class="cls-1" d="M138.76,47.66c2.65,8.29,5.49,16.65,8,25.11S151.58,90,153.8,98.65a53.35,53.35,0,0,1,.94,7.73c.13,1.27-.12,2.36.93,3.71.72.94-.18,3.65-1,5.19-3.71,6.67-9.46,11.11-16.37,14.23a33.18,33.18,0,0,1-15.16,3.41c-5.72-.24-11.2-1.61-15.61-5.18a16.06,16.06,0,0,1-6.1-12.85c-.07-7.74-.91-15.49-.85-23.23,0-6.89,1-13.77,1.3-20.66.22-4.9,0-9.81,0-14.73C93.11,51.76,88.52,44.47,87.46,35c-1.26-11.25,3-20.25,12.1-27,.76-.56,1.62-1,2.34-1.59,5.07-4.2,11.28-5.1,17.48-6.12a26.37,26.37,0,0,1,18.4,3.81c5.47,3.31,9.51,8,11,14.35C151.52,30.34,146.93,39.72,138.76,47.66ZM113.51,35.73a4.2,4.2,0,0,0-5,3,16.74,16.74,0,0,0-.78,4.53c-.53,7.23-1.32,14.46-1.41,21.7-.21,16.07-.09,32.15,0,48.23,0,5,4.58,11.26,9.38,12.64a29.88,29.88,0,0,0,16.48,0c7.69-2,13.64-6.55,18.59-12.47a11.89,11.89,0,0,0,2.42-5.72,20.3,20.3,0,0,0-.49-6.75c-3-14.56-7.45-28.7-12-42.81-2-6.29-4.12-12.56-7.46-18.31-1.23-2.12-2.44-4.41-5.94-3.85.58,4,1.14,7.92,1.69,11.74.91-.11,2-.52,2.22-.24A9.07,9.07,0,0,1,133,50.67q3.75,13.78,7.28,27.64a5.74,5.74,0,0,1-.13,2.13l-28.58,2.62c-.31-4.47-.87-9.45-.94-14.44a113.61,113.61,0,0,1,.75-13.55c.18-1.7,1.29-3.31,2.11-5.29Zm24.06,9.38a27,27,0,0,0,8.16-12.5c1.84-6.45,1.85-12.87-1.83-18.85-5.63-9.15-17.82-12.54-28.36-10.09-7.34,1.7-13,5.84-17.75,11.37a25.49,25.49,0,0,0-5.86,16.39,21.06,21.06,0,0,0,3.69,12.43c1.66,2.38,3.16,5.15,6,6.5a26.38,26.38,0,0,0,.9-4.37,8,8,0,0,0-.6-4.07,18.69,18.69,0,0,1-1.58-16c3.6-10.42,11.79-16.23,23-16.24a17,17,0,0,1,17,16.65c.19,5.44-2,10.11-5.07,14.4ZM115,37.19l-.41,0c.63,6.38,1,12.79,2,19.13.55,3.81.81,7.84,3.28,11.1a6.27,6.27,0,0,0,10.29.68c1-1.25.73-3.86.37-5.73-.71-3.68-2.17-7.22-2.8-10.91-1.07-6.28-1.79-12.63-2.55-19-.26-2.18,0-4.44-.39-6.57a3.54,3.54,0,0,0-2.29-2.32c-3.9-.65-7.38,2.62-7.45,6.7C114.93,32.63,115,34.91,115,37.19Zm15.58-2.67c.38-1,.83-2.06,1.2-3.17,1.65-4.88,2.29-9.8-1-14.26-1.26-1.74-3.11-3.81-5-4.17a24.72,24.72,0,0,0-9.57.32c-5.81,1.21-10,5.07-12.73,10.1A18.13,18.13,0,0,0,103.17,41c1.88-5.17,4.46-8.94,10.19-9.15a9.76,9.76,0,0,0,.1-1.88c-.36-2.85,1.19-4.77,3.17-6.41,3.88-3.22,8.33-1.91,9.61,2.91.57,2.17.7,4.45,1.06,6.67a4.74,4.74,0,0,0,.33.92ZM112.9,65.29V82c3.58-.58,7.12-.87,10.51-1.77s7.09.18,10.23-1.51c-.59-2.7-1.11-5-1.76-8-2.52,5.82-7.57,4.9-11.59,4.3C115.35,74.34,114.06,69.61,112.9,65.29Z"/><path class="cls-1" d="M111.87,103.45c10.74-3.09,21.08-6.06,32.52-5.88.77,2.87,1.72,5.74,2.23,8.69a4.39,4.39,0,0,1-1.32,3.17c-5.8,6-12.46,10.42-21.3,9.76-5.94-.44-9.8-3.59-11.2-9.65C112.39,107.72,112.23,105.84,111.87,103.45Zm2.71,4.52c.8,2.15,0,4.61,2.18,6.47,4.14,3.48,8.71,3,13.42,2.13a4.41,4.41,0,0,0,2.48-1.14,34.89,34.89,0,0,0,3.61-5.62,28.68,28.68,0,0,0,1.44-5C129.37,104.91,122,106.62,114.58,108Z"/></g><g id="cremallera_abajo" data-name="cremallera abajo"><path class="cls-1" d="M337.37,725.33l-1.74-34.18c-.27-5.35-.5-10.71-.82-16.06-.2-3.48-.51-7-.87-10.41a2,2,0,0,0-1.08-1.31c-9.44-3.52-14-10.82-15.91-20.25-3.38-16.34,8.7-32.83,22.95-38.17,13-4.87,24.59-2.17,35.73,4.52A19,19,0,0,1,384.39,621c1.28,4.87,3.07,9.84,3,14.75,0,7.34-1.51,14.69-6.92,20.4-2.26,2.38-2.67,4.49-1.36,7.83,7.88,20.16,15.39,40.47,23,60.72q6.56,17.34,13.16,34.66a10.94,10.94,0,0,1-2,11.58c-9.17,10.91-21.2,17.2-34.94,19.45-10.85,1.77-21.44-.39-30.11-7.91a22.78,22.78,0,0,1-7.85-15.18c-.53-4.89-1.4-9.74-2.12-14.6a16.94,16.94,0,0,1-.26-2q-.48-12.71-.93-25.41ZM356.21,648c1.05,5.87,2,11.37,3.09,16.83a2.49,2.49,0,0,0,1.86,1.57c2.53-.23,3.64.84,4.16,3.23.46,2.06,1.5,4,2.08,6,3.53,12.51,6.91,25.06,10.59,37.52.87,2.93.4,4.59-2.4,5.64-1.36.51-2.69,1.08-4,1.61-7.41,2.93-14.9,1.85-22.35.26a3.45,3.45,0,0,1-2.11-2.37c-1-6.57-1.77-13.17-2.54-19.78-1.1-9.32-1.67-18.65.31-28a4.67,4.67,0,0,0-.27-1.81c-1.07-5-2.13-10.09-3.27-15.12a11.38,11.38,0,0,0-1.24-2.43c-.71.71-1.86,1.31-2.05,2.12a41,41,0,0,0-1.41,9c0,7.25.3,14.51.75,21.76.68,10.94,1.71,21.86,2.37,32.81a230.63,230.63,0,0,1,.73,23.35c-.38,9.08,2,17.78,2.6,26.69.44,6.16,4.06,9.35,9.67,11.14a47.89,47.89,0,0,0,23.76,1.1c9.05-1.7,17.41-5.06,24.44-11.24,3-2.62,3.58-5.66,2.21-9.4-3.07-8.37-5.9-16.83-8.89-25.22-8.45-23.66-16.7-47.39-25.56-70.89C366.51,656.63,365.75,648.78,356.21,648ZM371,650c3.26-4.45,4.72-9.3,5.54-14.53,1.38-8.88-1.26-16.68-7.54-22.49-7.38-6.83-16.59-8.65-26.51-5.9-14.16,3.94-25.91,16.75-23.68,34.89a25.53,25.53,0,0,0,12.92,19.7c2.17,1.26,3.11.28,3-1.74-.1-2.59,1.66-6-2.67-7.08-.12,0-.2-.18-.3-.27-6.54-6.12-7.81-13.79-6.24-22.13,2.26-12.07,18-19.42,29.09-15.34,12.68,4.68,16.94,16.67,14.65,29C368.85,646.48,368.47,648.41,371,650Zm-21.51,30c0,1.73-.14,3.3,0,4.85,1.06,10.47,2.09,20.93,3.41,31.37.13,1.09,1.95,2.67,3.14,2.83,6.12.8,11.87-.88,17.42-3.34,1.45-.64,2.12-1.24,1.46-3.3-2.47-7.83-4.52-15.79-6.71-23.7-1.23-4.47-2.42-9-3.8-14.05C359.69,681.64,355.93,682.89,349.48,680Zm-8.58-32.53c.14-1.7.33-3.4.41-5.1.23-5.16,3.29-8.52,8.07-8.79,6-.34,9.7,2.24,10.69,7.39a25.85,25.85,0,0,0,.84,3.5,6.78,6.78,0,0,0,1.2,1.63c.4-.44,1-.82,1.17-1.34a21.92,21.92,0,0,0,.89-10.15c-1.25-7.84-8-15-17.36-14.39-6.85.48-11.71,5.11-11.93,12C334.7,638.11,337.38,642.89,340.9,647.49ZM359.32,672c-.92-3.72-2-7-2.52-10.4-1-6.84-1.49-13.76-2.64-20.57a7.67,7.67,0,0,0-3.56-4.85c-1-.51-3.35.94-4.69,2-2.92,2.36-2.88,6.27-2.66,9.26a125.12,125.12,0,0,0,3.39,19.61c.9,3.81,2.08,7.7,5.35,10.5,2,1.73,4,1.26,5.29-.33S358.74,673.57,359.32,672ZM388,706.49c1.56,4.37,3,8.58,4.57,12.75,2.08,5.58,4.31,11.12,6.34,16.72a2.42,2.42,0,0,0,3.45,1.66c.29-.09.31-1.86,0-2.72-2.82-8.41-5.74-16.79-8.62-25.18C392.86,707.06,391.11,705.93,388,706.49Zm-4.68-61.8c.83-8.63,1.28-17.11-3.09-25.12-1.78,1.08-2,2-1.72,4A53.9,53.9,0,0,1,379,637.8C378.48,642.67,377.94,642.61,383.33,644.69Zm-16.92,4.65c-1.88,2.91.89,4.08,1.63,5.86,2.19,5.25,4.39,10.49,6.8,15.64.43.93,1.87,1.38,2.85,2,.12-1.13.72-2.49.31-3.36-2.87-6-5.89-11.9-9-17.76C368.49,650.8,367.34,650.18,366.41,649.34ZM386,689.48c-1.36-3.6-2.61-7.21-4.16-10.68-.35-.78-1.79-1.06-2.73-1.58a7.21,7.21,0,0,0-.32,2.63c.68,2.54,1.71,5,2.39,7.52S383.32,690.68,386,689.48Zm-5.12-38.2c.59-1.87,1.84-4,1.31-4.61-1-1.27-4-2.8-4.5-2.35-1.74,1.5-.27,3.22,1,4.6C379.23,649.5,379.77,650.1,380.85,651.28Z"/><path class="cls-1" d="M385.8,739.86c1.23,4.18,2.53,8.34,3.65,12.55a3.37,3.37,0,0,1-.53,2.72c-5.65,5.82-12.39,9.57-20.6,10.37a14.25,14.25,0,0,1-15.63-11.44c-.43-2.21-1-4.4-1.49-6.6s-.05-3.4,2.53-3.12C364.48,745.5,377.85,742.55,385.8,739.86Zm-26.17,10.51c.07.51.23,1.8.45,3.07.24,1.43.5,2.87.83,4.28,1.06,4.5,2.24,5.47,6.86,5.26,6.19-.29,10.92-3.63,15.54-7.37,3-2.41,3.27-4.87,2-8.26-.55-1.41-.95-1.56-2.15-1.34C375.32,747.48,367.51,748.91,359.63,750.37Z"/></g></g></g></svg>