<svg xmlns="http://www.w3.org/2000/svg" viewBox="0 0 411.37 845.31"><defs><style>.cls-1{fill:#fff;}</style></defs><g id="Capa_2" data-name="Capa 2"><g id="abierto"><path class="cls-1" d="M76.68,125.47a55.72,55.72,0,0,1,5.58-7.2c.34-.33,3,1.76,4.66,2.73a8.7,8.7,0,0,1-1.06,2.65c-4.56,5.06-4.49,6.51.62,10.88,1.1.94,2,2.11,3.07,3.08a20.66,20.66,0,0,0,2.3,1.62c.23-1.59,1-3.3.58-4.73-.62-2.43-2-4.68-3-7-.9-2.14-1.73-4.31-2.6-6.46,2.47-1.27,5.21-2.2,7.37-3.87,6.39-5,12.67-10.13,18.78-15.46,5.17-4.5,10.14-9.25,15-14.08s9.19-10,8.53-17.9c-.21-2.45-.77-7.82,5.87-4.68,2.59,1.22,7.08-1.7,10.73-2.6,5-1.24,10-2.62,15.12-3.42,3.81-.6,7.73-5.56,6.33-9.39-1.11-3-3-5.8-4.44-8.72-.06-.12.65-.89.95-.86,3.86.42,7.9-1,11.29,2.85,1.92,2.17,6,2.35,8.25,4.34,4,3.49,8.17,3.38,13.16,3.75,10,.73,19.9,3.21,29.64,5.75,5,1.3,9.49,4.49,14.39,6.32,1.66.62,4.8.4,5.71-.71,3.89-4.72,7.21-9.9,10.7-14.94,1.61-2.34,3.13-4.57,5.25-.43a3.91,3.91,0,0,0,1.29,1.63c5.33,2.93,10.82,5.59,16,8.75a32.43,32.43,0,0,1,7.55,6.41c4.49,5.17,7.91-.52,11.79-.93,3.11-.34,6.08-1.89,9.19-2.51.89-.18,2.21.88,3,1.68.24.25-.68,1.53-.89,2.38-.25,1-.32,2.13-.47,3.19,1.87-.31,3.89-.3,5.59-1,2.33-1,4.29-2.9,6.64-3.75a106.23,106.23,0,0,1,14.06-4.12,10,10,0,0,1,6.51.9c.79.45.7,3.68.06,5.26a32.7,32.7,0,0,0-1.62,21.36c1.27,4.51,4.46,8.72,7.58,12.4,2.49,2.93,6.18,4.85,9.3,7.26a14.32,14.32,0,0,1,1.62,1.68,18.29,18.29,0,0,1-3.39,1.2c-.38.06-.85-1.15-1.42-1.32a33.32,33.32,0,0,0-4.11-.72c.59,1,1.17,2,1.77,2.91,2.41,3.83,4.22,8.27,7.38,11.33,4.19,4.06,9.35,7.17,14.26,10.44,4,2.66,8.26,4.88,12.17,7.63.26.19-1.13,3.76-2.46,5-6.46,5.84-14.17,7.35-22.61,5.67-.25,0-.79.42-.88.73-2,6.6.57,12,4.51,17.06.66.85,1.65,2.35,1.35,2.84a4.12,4.12,0,0,1-3,1.67c-3.64,0-7.28-.37-10.92-.34-.69,0-2.06,1.44-1.95,1.93,1.51,6.38,2.23,12.69.91,19.27-1,5-.66,10.28-1.83,15.22-.91,3.87-3.22,7.4-4.9,11.08l.11.13c1.38-7.13,2.87-14.24,4.09-21.4a40,40,0,0,0,.73-9.63,97,97,0,0,0-2-11.52c-.85-4.45-1-9.42-7.47-9.63a7.5,7.5,0,0,1-4-1.19c-9.9-7.27-19.71-14.66-29.51-22.06a10.35,10.35,0,0,1-1.58-1.88,16.43,16.43,0,0,0-.68,2.7c-.43,4.7-1.53,9.5-1,14.09.51,4.15-1.83,3.57-3.41,2.68a35.39,35.39,0,0,1-8.24-6.31c-5.45-5.69-10.52-11.75-15.87-17.53-2.52-2.72-5.76-4.85-7.94-7.79-4.14-5.58-7.6-6.37-13.22-2.23a25.45,25.45,0,0,1-5,3.26c-1.07.44-3.7-.16-3.7-.22.16-4.41-1.72-7.3-5.69-9.35-3.15-1.63-5.67-4.95-8.92-5.8-8-2.12-12.81,2.74-12.8,11.88,0,.87-.7,1.74-1.07,2.61l-1.17-.78c-1.48-1-2.83-2.33-4.46-2.89-3-1-6.21-1.34-9.13-2.47-4.54-1.75-8.9-4-13.36-5.94q-3.78-1.66-7.62-3.15c-4-1.56-7.92-3.44-12.06-4.32-1.24-.27-3.17,2.25-4.62,3.66-.31.31.12,1.36.2,2.07a18.17,18.17,0,0,1-3.24-.6c-3.08-1.17-6.1-3.5-9.17-3.54-7.86-.08-11.95,5.66-15.24,11.89-.94,1.8-1.16,4-2.1,5.78-2.49,4.75-5.35,9.33-4.27,15.1a2.54,2.54,0,0,1-1.78.9c-4.45-.95-8.86-2.65-13.33-2.83-2.15-.09-7.67-.32-4.93,5.56.67,1.44,0,3.45.16,5.19.21,3.18.68,6.35.73,9.53,0,1.14-.85,2.3-1.31,3.45-.69-.91-1.9-1.78-2-2.73-.41-5.52-.39-11.07-.8-16.59-.52-6.84-1.31-13.65-2-20.48-.06-.7-.12-1.4-.19-2.1a10.06,10.06,0,0,0-1.44,2c-1.25,3.19-2.24,6.48-3.61,9.61-3.65,8.36-7.67,16.56-11.1,25a85.94,85.94,0,0,0-4.21,14.55c-1.53,7.26-4.33,14.73-2,22,1.86,5.76-.11,10.63-.85,15.92a46.23,46.23,0,0,0-.41,12.42c.56,4.11,2.48,8,3.57,12.07a11.21,11.21,0,0,0,13.59,8.37c.86-.18,2,1.2,3.09,1.85-.58.91-1,2.46-1.76,2.61-2,.4-4.19.14-6.28.35-.52.06-1.44,1-1.36,1.36,1.5,6.37,3.11,12.72,4.74,19.06a5.8,5.8,0,0,0,.86,1.41c.13-.63.29-1.25.39-1.88.42-2.88.17-6.08,1.38-8.58a53,53,0,0,1,7.81-12.13c3.57-4,11.06-2.19,13.94,2.38a53.63,53.63,0,0,0,8.35,10.86c4.62,4.29,10.1,7.65,14.94,11.71,7,5.91,15.16,9.24,24,11,6.09,1.21,6.61.06,4.94-6.1-1.32-4.86-3.11-9.83-1.2-15.16.79-2.17,0-4.9.71-7.1.86-2.52,2.1-5.51,4.14-6.89,3.6-2.44,3.54-4.84.47-6.65a41.5,41.5,0,0,0-12.35-5c-6.11-1.3-12.44-1.63-18.68-2.32-6.82-.75-11.73,3.37-17,6.6-1.47.9-3.49.88-5.26,1.27,0-.46-.21-1.11,0-1.35a47,47,0,0,1,4-3.75c.37-.3,1.34.07,1.66-.25,1.1-1.08,3.29-1.2,1.43-4.15-3.47-5.53-7.91-11.16-5.79-18.52.59-2,2.64-3.94,2.53-5.81-.3-5,1.85-8.07,5.91-10.37.67-.38,1-1.3,1.54-2-.7-.27-1.47-.85-2.11-.73-2.2.4-4.33,1.36-6.54,1.51-1.67.12-3.41-.66-5.12-1.05,1.27-1.26,2.33-3.08,3.86-3.67a29.21,29.21,0,0,1,7.55-1.31c4.29-.4,8.59-.77,12.89-.85a102.15,102.15,0,0,1,14.75.4c4.39.56,8.66,2.08,13,3.24,8.67,2.34,17.38,4.53,25.95,7.17,4.76,1.46,9.11,4.51,13.92,5.43,6.06,1.15,12.4,1,18.61,1.05a5.07,5.07,0,0,0,3.89-2.82c1.33-4.8,2.06-9.76,3-14.66.16-.8.31-1.61.47-2.41,1.13.43,2.89.57,3.25,1.35.81,1.76.64,4,1.39,5.77,3.22,7.82.49,14.46-7.16,17.46-.59.23-1.07,2-.85,2.9,2.23,8.95-1.28,17-6,23.52-3.75,5.12-9.21,8.25-3.78,15.17.35.45-.36,1.74-.58,2.63a7.85,7.85,0,0,1-1.57-1.76c-4.1-9-12.51-12-21-14.26-7.3-1.95-14,1.13-19.11,6.1-3.23,3.15-6.16,7.56-7.09,11.86a34.08,34.08,0,0,0,.74,15.5c1.22,4.53,3.48,9.82,7,12.47,6.3,4.74,13.85,8.06,22.26,4.31,1-.45,2.09-.75,3.14-1.12-1.22-.49-2.42-1.05-3.68-1.45-2.78-.87-6.27-.92-8.18-2.7-1.63-1.52-2.14-5-1.87-7.54.18-1.63,3-4.52,4-4.26,5.87,1.46,11.85,3.1,17.19,5.85,4.67,2.41,8.22,7,12.86,9.46a78.61,78.61,0,0,0,17.45,6.84c6.74,1.75,12.22,6.5,20.07,6.06,6.89-.39,13.92,3.06,21,3.48,6.61.4,13.32-1,20-1.52,3.06-.24,6.31.38,9.17-.43,7.81-2.23,15.68-4.49,23.09-7.74,7.25-3.19,14.57-6.85,20.74-11.73a133,133,0,0,0,19.54-19.58c5.23-6.3,10.39-13.13,13.52-20.59A69.35,69.35,0,0,0,408.08,209c-.5-3.25-3.75-8-6.52-8.62-8.48-2-12.48,6-17.18,10.8-5.33,5.46-8.94,12.57-13.47,18.85a67.69,67.69,0,0,1-7.45,9c-4.22,4.12-8.77,7.91-13.27,11.73-2.67,2.28-5.26,4.88-8.34,6.41a112.6,112.6,0,0,1-17.79,7.31c-7.61,2.25-15.56,6.62-23.38,1.13-4.58-3.21-9.72-6.77-12.22-11.45-2.13-4-1.28-9.84-.95-14.81.35-5.17,2.64-10.34,2.32-15.4a27.39,27.39,0,0,0-7.44-17.81c-.45-.46-.24-1.54-.34-2.34.71.25,1.71.27,2.1.77,2.28,2.94,4.4,6,6.65,9a11.31,11.31,0,0,0,2.22,2c.07,0,.85-.51.81-.68-1.39-5.7-2.81-11.39-4.33-17.05-.1-.37-1.22-.4-1.43-.81a31.68,31.68,0,0,1-1.35-3.6,44.52,44.52,0,0,1,4.43,3.37,6.33,6.33,0,0,1,1.11,2.66c.88,2.76,4.21,5.48,6.77,5.57.26,0,.78.71.71.9a108.54,108.54,0,0,1-4.29,10.45c-1.28,2.5-2.65,4.07-.49,7.34s4.73,2.53,7.24,2.38a96.63,96.63,0,0,0,11.29-1.66c2-.37,3.93-1.47,5.92-1.53,5.89-.18,11.9-.66,17.64.31,3.09.53,6.19,3.38,8.42,5.94,2.07,2.39,2.87,5.68-.29,8.53-.72.65-.58,2.24-.84,3.4,1.26-.16,3,.15,3.69-.56a80.36,80.36,0,0,0,5.45-7.29l-.13-.08c-.09,5.66-3.18,8.82-8.74,10.33-1.52.41-2.29,3.33-3.57,5a17.27,17.27,0,0,1-2.63,2.24c1.46-3.7,3.13-7.33,4.33-11.12,1.74-5.51-1.66-11.41-7.37-11.43-8.93,0-17.86,1.32-26.81,1.57-4.34.12-8.73-.86-13.08-1.5a11,11,0,0,1-2.92-1.39,9.75,9.75,0,0,1,.55,2.71c-.2,2.64.27,5.87-1.07,7.78-3.72,5.34-.6,10.56-.56,15.78,0,1,2,2.79,3.23,2.89,1.56.12,3.22-1.08,4.84-1.72a25.32,25.32,0,0,1-2.07-2.69c-2-3.33-4.78-6.52-2-10.75,2.53-3.82,6.36-4.87,10.6-4.95a2.82,2.82,0,0,1,1.71.95c.13.13-.47.89-.62,1.4-.46,1.48-1.6,3.33-1.1,4.38a6.59,6.59,0,0,0,4.08,3.35c4.25.78,7-2.9,6.88-8.48,0-.52.51-1.53.74-1.52,4.76.32,6.26,4.81,9.26,7.41.14.11-.11.78-.29,1.14-1.91,3.93-3.45,8.16-8.52,9.26a17.91,17.91,0,0,0-3.66,1.73,26.12,26.12,0,0,0,3.52,3c2,1.19,4.52,3.21,6.38,2.82,3.37-.69,6.44-2.89,9.6-4.52a4.28,4.28,0,0,0,1.63-1.34c1-1.59,1.91-3.27,2.85-4.91-.19,1.68-.39,3.36-.58,5,1.7-1,3.65-1.65,5.06-2.93,7.54-6.83,15.47-13.32,22.26-20.83,8.6-9.52,16-20.15,24.42-29.79,2.95-3.36,7.47-5.49,11.54-7.68,2.52-1.35,8.31,4,8.88,7.68,1.86,11.83,1.88,23.7-1.8,35.08-2.82,8.77-5.9,17.85-11,25.39a125.54,125.54,0,0,1-22,24.7c-7.24,6.27-16.06,11-24.73,15.23-5.55,2.74-12.07,3.66-18.24,5-5.62,1.19-11.41,1.57-17,2.81-1.82.4-3.44,2.25-4.86,3.71a41.56,41.56,0,0,0-4.78,6c-.72,1.08-1.51,2.81-1.13,3.8.89,2.28,2,5.21,3.87,6.23,4.27,2.31,7.89,4.37,8.11,10,.11,3,1.3,5.93,2.27,8.81.15.43,2.06.81,2.72.44,9.63-5.46,14.45-14.92,19.54-24.07,3.12-5.62,5.12-11.93,8.7-17.2,2-2.9,6-5.19,9.48-5.86,1.28-.25,4.66,4.7,5.28,7.66,1.84,8.83-.79,17.13-4.78,25a5.5,5.5,0,0,0-.74,3c.64,3.95,1.49,7.88,2.28,11.8.22,1.11.49,2.2.8,3.28a7.52,7.52,0,0,0,.65,1.3,5.89,5.89,0,0,0,1-1.31c1.68-4.23,3-8.6,5.07-12.65a6.65,6.65,0,0,1,4.64-3.22c1.41-.09,3.6,1.6,4.29,3.06,1.21,2.58,1.63,5.56,2.18,8.41.09.49-.75,1.26-1.29,1.74-.22.18-.81-.08-1.23-.13a13,13,0,0,0,.25-1.85c0-1.85.25-3.81-.26-5.52-.26-.87-2-1.32-3-2a16.52,16.52,0,0,1-.23,2.92c-1.55,6-3.1,12-4.83,17.93a13.45,13.45,0,0,1-2.55,5.18c-.89,1-2.72,1.16-4.14,1.7-.07-1.12-.08-2.25-.24-3.35-.13-.92-.43-1.8-.65-2.7l-1,1.56c-2.27,3.52-4.28,7.25-6.9,10.49a32.24,32.24,0,0,1-7.85,7.31c-8.32,5.14-15.79,12.46-26,13.4-7.67.71-15.48-.3-23.24-.32-2.09,0-4.18.84-6.28,1.22a14.8,14.8,0,0,1-2.31,0c.51-.47,1-1.26,1.55-1.37,4.75-.92,9.66-2.88,14.26-2.32,13.63,1.69,25.94-.18,36.13-10.07,4.71-4.58,10.1-8.81,13.58-14.23a32.66,32.66,0,0,0,4.5-26.41c-.1-.39-1.13-1-1.33-.83-1.2.77-3.18,1.64-3.29,2.64-.83,7.75-5.8,13-10.7,18.27-.73.78-3.21-.17-4.89-.14a3.83,3.83,0,0,0-2.32.72c-6.52,5.94-13.72,11.08-22.45,12.56-7.17,1.22-14.68.3-21.91,1.31-2.84.39-5.37,3.37-7.92,5.33-1.88,1.45-3.31,3.77-5.39,4.66-5.87,2.5-8.51,7.18-6.69,13.24.14.48.88,1.21,1.18,1.14a9.62,9.62,0,0,0,2.23-1.19c-.33,1.22-.29,3.08-1.08,3.56-4.08,2.47-4.21,6.24-3.63,10.15a25,25,0,0,0,2,5.64c1.43,3.44,2.9.94,4.49.09.52-.28,1.47.24,2.22.39a6.2,6.2,0,0,1-.58,2.18c-2.94,3.93-7,7.41-8.67,11.8a20.79,20.79,0,0,0-.48,13.37c1.9,5.43,3.5,11.07-.33,15-4.06,4.19-9.78,7.44-16.5,6.25-3.65-.65-7.34-1.18-10.91-2.14-4.86-1.31-7.45,1.71-7.38,5.32.11,5.55.91,11.49,3.14,16.48,2.15,4.81,10.58,7,15.8,4.91a95.06,95.06,0,0,0,16.78-8.26c3.92-2.54,7.86-6,10-10,1.7-3.16.77-7.78.92-11.75.13-3.56-.52-7.31.36-10.67,1.7-6.51,7.69-9.21,13.27-10.39,5.92-1.25,12.32-.18,18.5-.33,7.31-.17,14.66-1.17,21.92-.69,7.85.52,11.47-5.16,16.08-9.38,2.42-2.21,4-5.37,5.9-8.1l-.14.07c-.23,3-.43,6-.69,9a47.93,47.93,0,0,0-.6,5.56c.12,4.86.48,9.73.64,14.59,0,.37-.84.77-1.29,1.15-.3-.48-.82-.94-.85-1.44-.31-5.08-.54-10.16-.77-15.24,0-.66,0-1.32.07-2a17.84,17.84,0,0,0-1.62,1.11c-7.78,6.63-16.94,8.45-26.87,8-8.56-.41-17.14-.73-25.71-.72-2.44,0-4.89,1.27-7.32,2-.38.12-.66.55-1,.83.59.17,1.24.58,1.75.45,5.62-1.36,7.55,1.21,6.6,6.39a4.66,4.66,0,0,1-2.54,3.18c-3.57.91-7.33,1.09-10.92,2-1.26.3-2.22,1.81-3.31,2.76,1.14,1.07,2.16,2.84,3.45,3.06,2.92.51,6,.23,9,.3.69,0,2,.13,2,.31a64.16,64.16,0,0,1,.62,10.34c0,.56-3,1.32-4.57,1.37a22.9,22.9,0,0,1-6.36-.82c-4.63-1.23-4.05,2.52-4.29,4.74-.32,3,1.49,3.42,4.34,2.92,2.4-.42,6.14-.54,7.21.82,1.22,1.55,1.11,6.2-.19,7.2-2.19,1.68-5.78,1.53-8.77,2.19-1.16.26-2.29.63-3.44.94,1.1,2.18,2.33,6.27,3.26,6.2,5.33-.38,7.05,2.08,7.83,6.81.57,3.41-1.06,3.38-3.29,3.08-.64-.09-1.16-.81-1.8-1.1-4.35-2-5.28-.71-6.36,3.67-1.45,5.95.95,7.45,6,9.08,1.91.61,2.55,5.11,3.77,7.83-2.64.34-5.75,1.72-7.83.79-4.42-2-5.39-.86-5.27,3.47a14.75,14.75,0,0,1-1.13,6.82c-1.76,3.5.36,3.27,2.6,3.59,7.09,1,8.66,3.46,6.39,10a2.3,2.3,0,0,1-1.74,1.28,12.74,12.74,0,0,1-4.35-1.15c-5.66-2.83-6.43-2.47-8,3.52-.53,2-1,2.43,1.85,2.67,5.12.43,8.78,5.36,7.8,9.73-.25,1.09-2.87,2.59-4.06,2.33-3-.65-5.79-2.23-8.7-3.34a1.61,1.61,0,0,0-1.46.37c-1,1.46-1.83,3.1-2.89,4.54-1.77,2.42-1.49,3.12,1.7,3.8,2.7.57,5,2.8,7.54,4.3-1.4,2.3-2.39,5.11-4.37,6.7-1.1.88-3.9-.06-5.83-.58a15.84,15.84,0,0,1-3.65-2.14,37.41,37.41,0,0,0-3.25,6.36c-.16.48,2.05,1.81,3.26,2.61s2.38,1.2,3.51,1.89c3.52,2.18,3.49,5.68,1.42,8.16-1,1.14-4.62.21-7-.08a22.34,22.34,0,0,1-4.31-1.4,53,53,0,0,0-1.2,7.43c0,.42,2.42.76,3.55,1.44,2.35,1.42,5.4,2.59,6.59,4.73.89,1.6-.31,6.37-1.26,6.58-2.54.54-5.43-.62-8.19-1.09-.92-.16-2.54-.64-2.66-.4a59.89,59.89,0,0,0-2.3,5.89c.88.29,2.07.31,2.61.92,2.5,2.78,8.45,1.7,7.87,8.31-.33,3.73-1.4,3.08-3.53,2.52-1.75-.46-3.44-1.17-5.21-1.52a12,12,0,0,0-3.15.18c1,1.91,1.49,4.83,3,5.55,5.44,2.56,11.6,3.73,16.77,6.68,3.25,1.87,5.82,5.67,7.61,9.16,2.84,5.55,5.66,11.39,6.81,17.43.88,4.59-.66,9.71-1.49,14.53-.62,3.57-2.42,7-2.61,10.56-.13,2.48,1.24,5.23,2.51,7.55,2.35,4.24,5.09,8.26,7.71,12.34,3.89,6,7.94,12,11.7,18.11,3,4.92,5.58,10.13,8.61,15,1.68,2.74,4,5.08,5.87,7.71,2.82,3.95,5.45,8,8.28,12,.92,1.27,2.4,2.12,3.34,3.38,3.75,5,7.19,10.27,11.12,15.13,2.39,3,5.45,5.37,8.22,8,5.49,5.25,8.18,10.23,2.81,17.5-3.26,4.42-5.16,10-9,13.78-9,8.74-20.38,12.53-32.78,12.13-11-.35-21.33-3.72-29.1-12-2.62-2.79-3.84-6.89-5.7-10.39a69.51,69.51,0,0,1-3.83-7.36c-.58-1.5-.3-3.34-.41-5l-.12.12c2,3.36,3.88,6.79,6,10.07,2.56,4,4.46,9.15,8.13,11.45,8.13,5.12,17.83,3.74,26.25,1.05s16.23-7.62,23.72-12.47c5.78-3.75,6.38-9.49,2.8-15.24-.89-1.43-2.88-2.15-3.91-3.53-2.75-3.72-5.11-7.74-7.9-11.43-6.59-8.73-13.5-17.23-20-26-3.32-4.52-5.94-9.56-8.9-14.34-4-6.47-8.24-12.83-12-19.42-3.93-6.83-7.52-13.86-11.16-20.85-1.42-2.75-2.57-5.65-3.84-8.48,2.05,2.47,4.23,4.85,6.1,7.45,2.05,2.83,3.74,5.92,5.77,8.77.29.41,1.59.11,2.42.14-.06-.59.09-1.32-.2-1.74-4.59-6.72-9.23-13.39-13.88-20.07-.51-.72-1.16-1.35-1.74-2L261.64,697c-2.8-1.43-5.18-7.05-8.74-.88-.82-3.34-1.35-6.81-2.57-10-.89-2.32-2.7-4.29-4.1-6.41-1.75,1.51-3.88,2.78-5.1,4.64-.73,1.12-.29,3.22,0,4.79,1.21,5.85,2.2,11.78,4,17.44a82.29,82.29,0,0,0,6.92,15.93c1,1.7,4.42,2,6.74,2.9.22-3,1.16-6.25.51-9.09-1.42-6.22-3.64-12.26-5.54-18.37,4.06,4.38-.18,14.13,9.59,14.8l8,16.66c-1.19-1.25-2.68-2.33-3.49-3.78-1.06-1.89-1-4.63-3.81-1-2.3,3-5.11,6.3-9.88,3.91-.06,0-1.23,1.33-1.09,1.82,1.92,6.85,3.85,13.69,6.07,20.45,1.47,4.48,4,8.68,5,13.23,1.1,4.85,3.52,6.71,8.29,4.81,3.15-1.25,6.57-2.07,9.28-3.94.64-.44,9.81-.65,2.09-5.35-.18-.12-.15-.54-.28-.8-2-4.09-4.36-8.07-6-12.32-2.2-5.68-7.9-10.1-6.31-17.16,1.26,2.08,2.58,4.13,3.77,6.26,2.43,4.33,4.84,8.67,7.16,13,2.18,4.11,4.4,8.21,6.26,12.46a4.92,4.92,0,0,1-.39,4.25c-4.24,5.06-10.65,6.32-16.44,6.27-4,0-10.32,2.35-12.52-4-3.19-9.13-6.35-18.32-8.66-27.69-1.72-7-1.68-14.34-3.17-21.38-1.4-6.62-3.76-13-5.75-19.54a7.65,7.65,0,0,0-1.16-1.74c-.58.48-1.55.88-1.68,1.46-.62,2.92-1,5.88-1.51,8.83l.14-.09c-5-9.45-12-17.71-13.89-28.87-1.76-10.59,10-22.42,20.61-21.21,10,1.14,14.21,7.95,17.37,15.39,2.06,4.83,1.36,10.8,2.19,16.21.21,1.39,1.51,2.63,2.36,3.9.2.29.63.41,1,.61a29.2,29.2,0,0,0,1-4.06q.57-6.1.88-12.23c.46-8.82-3.31-16.29-9-22.38s-12.47-8.07-21.27-5.34c-5.06,1.56-9.64,2.71-12.07,7.4-2.8,5.4-4.88,11.17-7.29,16.77-.36.82-.82,1.59-1.23,2.38a10.65,10.65,0,0,1,.05-2.19c.81-3.52,1.72-7,2.54-10.54.26-1.17.34-2.39.5-3.58-1.2.56-2.65.88-3.55,1.75-1.21,1.16-1.89,2.84-3,4.14s-2.46,2.44-3.7,3.65c-.55-3-6.21-3.73-3.64-8,1.81-3.05,3.87-6,5.82-8.91l-.12.13c1.54.64,3.08,1.3,4.63,1.92,1.86.75,4.16,2.49,5.5,1.94,1.91-.79,3.12-3.27,4.65-5,.61-.7,1.16-1.67,1.95-2,4.27-1.67,8.64-3.1,12.9-4.8.75-.3,1.77-1.66,1.6-2.21-1.9-6.45-.12-12.35,1.78-18.5,2.47-8,3.88-16.3,6.05-24.4a133.17,133.17,0,0,1,5.49-17c2.1-5,5.64-9.47,7.6-14.53,2.34-6,3-12.72,5.58-18.63,3.29-7.6,5.18-15.15,3.86-23.37,7.72-6.41,1.91-15.73,5-23.51,2.33-6,.59-13.55.62-20.41a4.77,4.77,0,0,0-.51-1.47,5.76,5.76,0,0,1-.85.86c-6.44,4.41-12.72,9.09-19.38,13.13-8.14,4.94-21.82,2.16-26.05-6.5-3.11-6.37-4.73-14.26-1.48-21.59,1.83-4.15,10.89-5.85,15.45-3.33,6.06,3.34,16.51,1.42,19.36-4,1.06-2,1.13-4.81.86-7.16A27.05,27.05,0,0,0,265,443c-3-6,1.27-10.42,2.44-15.56.89-3.89,1.45-8.18.71-12-.8-4.2-2.63-8,.59-12,.47-.59-.53-3-1.45-4-2.79-3.07.14-11.63,3.09-13,2.23-1,2.81-1.64,1.3-4.35-3.2-5.73,0-13.31,6.62-17.07,7.57-4.3,16-5.38,24.44-6.89,5.26-.94,10.11-4.16,15.12-6.41.24-.11.27-.71.4-1.08-.84-.13-1.82-.61-2.47-.33-2.2.95-4,2.37-2.29-1.87,1.26-3-3.26-9.89-6.39-11.07-1.65-.62-2.89-2.28-4.53-3-2.61-1.13-4.28-4.3-8.2.27-4.69,5.47-11.78,9.23-18.4,12.63-10.19,5.24-20.56,10.54-31.45,13.93-8.78,2.73-18.49,2.39-27.66,4.06-2.15.39-4.14,3.2-5.6,5.31-1.13,1.63-1.33,3.9-1.95,5.89-.48,1.54-1,3.09-1.46,4.63-.49-1.18-.72-2.58-1.53-3.49a35.81,35.81,0,0,0-5.06-4.62c-5-3.84-8.48-9.43-15.59-10.83-5.64-1.11-10.87-4.31-16.3-6.53s-11.08-3.52-15.77-6.57c-5.93-3.85-11.18-8.85-16.35-13.76a136.94,136.94,0,0,1-10.85-12.2c-1-1.18-1.29-2.9-1.91-4.37l4.1,3.75,1.4,1.3a16.51,16.51,0,0,0-.25-2.24c-.86-3.28-1.77-6.54-2.67-9.81,1-1.72,2.65-3.34,3-5.18,1.32-7.4,1.89-14.95,3.48-22.28.58-2.71,2.66-6,5-7.23,4.06-2.14,3.33-4.17,1.05-6.51-4.91-5-9.81-10-13.28-16.26-.87-1.59-5.8-4.21-7.64.19-1.15,2.75.18,6.44-.58,9.46-2,7.83,1.91,14.7,3.08,22,1.07,6.61,2.74,13.11,4.15,19.67-2.85-8.59-6.4-17-8.31-25.82-1.5-6.86-1-14.15-1.38-21.24,0-.21-1.11-.57-1.15-.51-1.06,1.66-2.58,3.26-2.94,5.08-1.14,5.63-3,11.17-1.14,17.16,1.63,5.27,2,10.94,3.73,16.16s4.5,10.2,6.82,15.28c.31,4.25.69,8.49.94,12.74.61,10.23,1.42,20.45,1.62,30.69.1,5.15-.84,10.34-1.56,15.48-.17,1.28-1.29,2.42-2,3.62-1.51-.89-3.24-1.55-4.48-2.73-5.69-5.4-5.51-11.76-4.48-19.22,1.26-9.11.45-18.55,0-27.83A74.34,74.34,0,0,0,108.58,308c-2.71-9.58-4.11-19.7-11.4-27.58-3.17-3.43-4.52-8.59-7.8-11.86-4.42-4.4-7.1-11.13-14.71-11.86-5.37-.52-8.35,1.26-9.26,6.39-1.49,8.44-3.07,16.86-4.42,25.33a7.67,7.67,0,0,0,.68,5c3.89,5.78,5.35,11.77,3.76,18.72-.42,1.8,1.36,4.12,2.15,6.19,1.18,3.14,3,6.19,3.42,9.43s-.89,7-.42,10.32c.37,2.64,2.64,5,3.43,7.62s1.64,5.93,1.17,8.7c-.9,5.4,1,9.64,3.83,13.86a5.85,5.85,0,0,1,.56,3.57c-.69,6.32-2.48,12.71-2,18.92.38,4.69.64,10.8,6.65,13.13,1.81.7,4,1.44,5.75,1.05,4.7-1,9.19-3.37,13.9-3.81,3.42-.32,8.13.46,10.41,2.66,8.32,8.07,7.4,20.13-1.33,28.67-10.52,10.28-16,8.8-28.37,3.64-4.45-1.86-8.1-5.73-11.95-8.88-.6-.49-.26-2.12-.36-3.21.5.75,1,1.49,1.49,2.25a3.47,3.47,0,0,1,.29.78c2.06-4.83,3.18-1,5,.33a39.94,39.94,0,0,0,7,3.74c15.08,7,27.1.07,30.21-15.31.48-2.36-1.85-6.3-4-7.89-2-1.47-5.66-1.19-8.51-.92-6.6.64-13.26,2.81-19.67,2.16-2.82-.29-6-5.57-7.4-9.21-1.51-3.92-1.27-8.57-1.51-12.92-.08-1.41.77-2.87,1.13-4.32,1.44-5.87,1.08-11.4-2.9-16.36-1.11-1.38-1.69-4.38-2.69-4.46-3.83-.33-8.58-1.09-11.42.74-5.3,3.42-9,.62-12.62-1.68-10.21-6.4-15.89-16.35-20.09-27.3-.13-.35-1.32-.22-1.59-.61-1.28-1.88-2.95-3.72-3.51-5.83-1.9-7.17-3.43-14.43-5-21.68a10.9,10.9,0,0,1,.26-3.13c.66.82,1.62,1.53,1.93,2.46,3,9.05,5.65,18.23,8.9,27.18a49.06,49.06,0,0,0,20,25c4.56,2.88,10.73.81,16-1.19.74-.28,1.44-1,2.14-1,2.29.08,4.87,2.79,6.4-1.51,1.9-5.36.12-9.71-4.35-11.84s-10.09-2.28-14.94-4a29.49,29.49,0,0,1-10.12-5.78c-5-4.72-10.71-9.16-12.51-16.41l-.09.07c3.8,3.67,7.42,7.54,11.45,10.94a53,53,0,0,0,10.26,6.94c2.77,1.39,6.07,1.8,9.17,2.46,2.41.52,4.88.76,7.32,1.13a39.53,39.53,0,0,0-.58-6.28c-.85-3.33-1.19-7.5-3.39-9.61-2.41-2.3-6.65-2.76-10.15-3.87-9.37-3-15-10.09-19.65-18-2.85-4.83-5.24-10-7.72-15-.37-.74-.11-1.79-.15-2.69a18.47,18.47,0,0,1,1.76,2.1c4.08,6.41,8.11,12.86,12.19,19.27.35.56,1.15.88,1.39,1.46,3.25,7.62,11.07,7.87,17.31,10.57.47.2,2.82-2.08,3-3.37a49.87,49.87,0,0,0-.11-9.92c-.54-6.3-5.23-9.2-10.45-10.12C44,290,39.75,285,36.39,279.09c-3.68-6.4-6.51-13.3-9.51-20.07-.5-1.13,0-2.7,0-4.07a29.89,29.89,0,0,1,1.5,3.32,66.46,66.46,0,0,0,14.85,25.56c2.62,2.83,7.86,3.28,12,4.61a2.64,2.64,0,0,0,2.28-1.16c1.19-6,1.89-12.16,3.29-18.14,1.35-5.76.12-12,4.3-17.31,3.37-4.26,7.46-2.89,11.18-2.17,3.34.65,3.59,1.32,3.55-2.17-.11-10.72-.51-21.45-.89-32.17,0-.64-.83-1.77-1.33-1.81-3.12-.22-6.38.31-9.36-.39s-5.46-2.55-8.16-3.89c1.09-1.5,1.89-3.42,3.33-4.42,7.24-5,10-12.7,12.66-20.49,1.13-3.26,2.89-6.29,4.07-9.54,2.08-5.7,3.86-11.51,5.9-17.23a110.65,110.65,0,0,1,4.38-10.9c1.77-3.66-.3-5-2.8-7.13-4.19-3.56-7.74-7.88-11.44-12-.27-.3.38-1.43.61-2.17ZM297,319.32c-.4,1.9-.84,3.79-1.18,5.69a16.55,16.55,0,0,0-.07,2.34,12.6,12.6,0,0,0,2-1.47,73.6,73.6,0,0,0,6.14-7.11,62.26,62.26,0,0,0,3.91-7.36c-1.62,0-3.55-.45-4.77.27-1.46.86-2.32,2.76-3.43,4.21l-2.72,3.55c.2-1.09.44-2.17.61-3.26a4.69,4.69,0,0,0-3.61-5.3,51,51,0,0,0-5.42-.61c.12,2-.23,4.13.45,5.89,1.47,3.84,3.4,7.48.74,11.56-.27.41,0,1.19.06,1.8a8.07,8.07,0,0,0,1.27-1.2C293,325.34,295,322.32,297,319.32Zm-12.4-3.77.15.12c-1.48-1.8,2.75-5.69-2.21-6.18-2.52-.25-5.1,0-7.58-.41-4.45-.77-4.54-.57-3.8,4.2.77,5,1.14,10.05,1.49,15.09.14,2.07-1.09,4.71-.19,6.15,2.43,3.88.71,6.78-1.05,9.93a7.88,7.88,0,0,0-.46,1.37,3.54,3.54,0,0,0,1.16-.31c5.2-3.72,12.95-4.68,13.85-13.05.48-4.44,1.53-8.82,1.75-13.26C287.72,318,285.65,316.77,284.55,315.55Zm-89.3,34.64c-.16,1.43-.91,3.17-.35,4.22,1.27,2.37-3.33,7.31,3.41,7.36,5.12,0,10.24,1,15.37,1.28.92.05,2.66-1.16,2.75-1.93a62.36,62.36,0,0,0,.21-9.47c-.24-6-.95-11.93-.91-17.88,0-5.22,1-10.42,1.24-15.64.16-3.26-.23-6.54-.37-9.81,0-.52,0-1,0-1.56a5.74,5.74,0,0,0-1.44,1.15c-4,6.34-8.61,12.43-11.87,19.16-3,6.22-4.59,13.13-6.83,19.74-.4,1.19-.92,2.35-1.39,3.52,2-8.15,3.66-16.37,6-24.42a39.19,39.19,0,0,1,5.21-10.85c3.41-5.08,7.41-9.77,11.22-14.58.14-.16,1.39.18,1.4.34a112,112,0,0,1,.67,12.66c-.22,5.33-1.55,10.64-1.47,15.94.14,8.63,1,17.25,1.62,25.88a8.11,8.11,0,0,0,.37,1.51c.41-.35,1-.62,1.2-1.07,2.33-5.43,5.06-10.74,6.79-16.36,3.08-10,9-18.46,14.45-27.18,1-1.62,2.69-2.83,4.14-4.14.15-.14,1.25.33,1.26.54.21,4.39.19,8.79.48,13.17.56,8.3,1.27,16.58,2,24.87,0,.38,1,.67,1.59,1a29.64,29.64,0,0,0-1.65,4.37,12,12,0,0,0,.22,3.3,22.41,22.41,0,0,0,2.61-.57c1.6-.58,3.15-1.26,4.72-1.92,4.81-2,9.31-3.91,10.36-10.22s-.88-12.95,2.58-18.94c.38-.66-.88-2.29-1.43-3.44-.07-.14-.62-.23-.65-.18-1.42,2.6-2.66,5.3-4.22,7.81-3.21,5.17-6.58,10.23-9.89,15.34.08-1.3-.27-2.82.3-3.85,2.64-4.78,6-9.22,8.2-14.19a91.4,91.4,0,0,0,4.81-16c.28-1.21-1.38-4.11-2.17-4.12-7.39-.06-13.15-8.38-21.94-3.17-4.58,2.71-10.42-.06-15.43-3.21-3.07-1.94-6.84-4.29-11.49-1.11-2.64,1.8-7.08,1.95-10.48,1.43a68.84,68.84,0,0,1-14.65-4.43c-2.05-.82-3.61-2.92-5.31-4.53a22.12,22.12,0,0,1-2-2.52c-.8,1.09-2.09,2.09-2.3,3.29a60,60,0,0,0-1,10.25c0,8.15-.61,16.42.59,24.41,1.05,6.91,4.16,13.52,6.51,20.21.74,2.1,2.08,4,3,6a28.79,28.79,0,0,1,1.09,4.08,25.08,25.08,0,0,1,1.15-3.36A13,13,0,0,1,195.25,350.19ZM299,112.2l-.9-.47c1.07-2.36,1.77-5,3.41-6.88.49-.54,3.81,1,5.5,2.07,3.4,2.19,6.54,4.77,9.83,7.12,1.24.88,2.74,1.42,3.91,2.37,4.2,3.45,8.29,7,12.45,10.51,1,.82,2.17,1.39,3.11,2.25a8.69,8.69,0,0,1,1.33,2.11,9.85,9.85,0,0,0,.44-2.94c-.13-.89-1.09-1.67-1.21-2.56a50.19,50.19,0,0,1-.22-5.49c.32,0,.71-.14,1,0,1.47.84,2.92,1.73,4.37,2.62,4.29,2.63,8.54,5.32,12.89,7.86.72.42,1.84.15,2.77.19-.5-.7-1-1.41-1.51-2.1-4.32-5.76-8.72-11.46-12.91-17.32-2.23-3.13-1.86-8.16-6.87-9.23-5.44-1.17-10.87-2.34-16.3-3.55a6.94,6.94,0,0,1-1.47-.73A17.13,17.13,0,0,1,320,96.88c.79-.51,1.62-1,2.44-1.43-.94-.63-1.82-1.66-2.83-1.81-5.25-.76-10.59-1-15.79-2-2.8-.54-5.43-2.12-8-3.43-.26-.12-.13-1.83.32-2.39a32,32,0,0,1,3.36-3,8.71,8.71,0,0,0,1-1.31,6.1,6.1,0,0,0-1.61-.27c-6.8.54-13.6,1.21-20.41,1.58-.81,0-2-1.33-2.5-2.32-.92-2-1.36-4.13-2.19-6.14-.15-.35-1.38-.64-1.86-.42-3.72,1.74-7.2,4.21-11.09,5.28-4.83,1.34-10,3.44-14.87-.53-4.27-3.47-8.21-8.75-14.61-3.38a4.05,4.05,0,0,1-2,.6c-3.4.43-8.23-.44-9.91,1.48-3.42,3.88-4.92,1-6.39-.79-5.17-6.2-5.27-6.15-12.66-2.46-1.68.84-4.79,3.42-6.63-1.51-.72-1.91-3.5-10.24-8.74-2.28-.88,1.34-3,2.08-4.76,2.57-5.93,1.71-11.9,3.31-17.91,4.7-3.39.79-7.12,3.37-10.09-1-.61.57-1.79,1.16-1.76,1.7.2,4.86-3.42,7.44-5.86,10.85-2.57,3.57-4.29,7.76-6.47,11.62-.39.69-1.26,1.12-1.91,1.67a12.56,12.56,0,0,0,3.41-1.14c4-2.86,7.68-6.16,11.82-8.75,2.47-1.54,5.35-4.77,8.6-.72a29.09,29.09,0,0,0,3.24,3c.71-1.87,1.5-3.73,2.12-5.63.67-2.07,1.19-4.19,1.77-6.29,1.35,1.1,2.68,2.2,4.05,3.28.21.17.59.14.8.31,6,5,11.92,10,17.93,15,.49.41,1.75.79,1.94.56,2.85-3.31,5.6-6.7,8.32-10.12.88-1.11,1.58-2.37,2.36-3.56.78,1.51,1.65,3,2.29,4.56.59,1.42.51,3.35,1.47,4.31,1.18,1.19,3.91,2.68,4.61,2.17a24.37,24.37,0,0,0,5.72-6.36c3.3-5.06,6.55-6.11,11.47-3.26,3,1.76,6.09,3.48,9.11,5.25,1.38.81,2.65,1.84,4.08,2.53,2.46,1.17,5.16,1.91,7.49,3.27,3.46,2,3.3,2.17,5.16-1.55a2.27,2.27,0,0,1,2.13-.71c3.92,2,7.84,4,11.56,6.37,1.1.69,1.57,2.37,2.33,3.61.35-1.81.65-3.62,1.06-5.41.33-1.43.78-2.83,1.18-4.24,1.19.39,2.83.4,3.51,1.21,7.84,9.33,17.62,17.36,20.54,30.06a8.77,8.77,0,0,0,.81,1.66c.4-.59,1.1-1.17,1.13-1.78.09-2.55-.15-5.1,0-7.65C298.38,119.09,298.74,115.65,299,112.2ZM242,221.77c-1.86-2.15-4.26-5.94-5-5.64-8.56,3.47-15.69-2-23.25-3.59-7.79-1.63-15.12-5.45-22.7-8.18-2-.71-4.23-.75-6.28-1.37-5.94-1.78-11.83-3.71-17.75-5.54-.36-.11-.83.21-1.25.23-2.78.15-5.69.86-8.33.31-7.54-1.59-19.08,5.48-19.37,12.68a122.24,122.24,0,0,0,.81,16.21c.46,5,5.31,9.13,9.76,7.9,8.32-2.3,16.17-.89,24,2a9.54,9.54,0,0,0,2.69.13,23.27,23.27,0,0,0-.06-3.13c-.33-2.3-1.41-4.7-1-6.86.71-4,8.62-10.16,12.69-10.24.59,0,1.44,1.23,1.76,2.05.95,2.44,1.1,6.58,2.63,7.15a26.65,26.65,0,0,0,12.94,1.64c2.74-.45,5-3.92,7.4-6.18.63-.6.93-2.54,1.07-2.51a23.75,23.75,0,0,1,4.45,1.56,25.07,25.07,0,0,1,3.24,2c1.5,1,4.11,2,4.21,3.15.38,4.37.17,8.8-4.77,11.25-1,.5-1.83,3.66-1.75,3.7,3.05,1.59,6.12,3.66,9.39,4,1.56.19,3.65-2.7,5.26-4.44a18.25,18.25,0,0,0,2.94-4.46C237.69,231.36,239.57,227.07,242,221.77Zm33.45,157.46c.1,1,.27,2.6.43,4.21,1.13-.91,2.28-1.8,3.38-2.74,1.53-1.32,2.85-3,4.59-3.95,2.73-1.5,5.93-3.89,8.58-3.5,8.73,1.28,16.87-.11,25-2.95,11.8-4.13,19.45-12.3,24.87-23.4,2.05-4.21,5.76-8.76,9.83-10.45,3-1.26,5.63-.07,6.17-5,.69-6.19,3.47-12.13,4.48-18.32.37-2.26-1.63-5-2.9-7.32-.23-.41-3.08-.17-3.27.32a48.4,48.4,0,0,0-1.84,7.32c-1.72,8-4.47,15.59-10.28,21.65-.75.78-2.77,1.48-3.41,1-4.14-2.84-4.49,1.4-6,3.1-6.25,6.95-12.35,14.35-21.2,17.83-8.61,3.39-17.74,5.48-26.67,8C277.17,367.91,276.85,370.1,275.42,379.23Zm-130-105c-.84,1.52-2.43,3.08-2.39,4.58a71.48,71.48,0,0,0,1.55,10.84c1.5,8.21,2.67,16.51,4.77,24.56,1.85,7.14,4.68,14,7.3,21,.53,1.39,2.09,2.39,3.18,3.57.23-.26.6-.48.67-.76.46-2,1.28-4.06,1.2-6.06-.48-12,4.15-22.29,10.18-32.16,1.57-2.57,3.53-4.89,5.09-7.45a2.46,2.46,0,0,0-.79-2.26c-4.06-1.58-8.45-2.48-12.26-4.49-5.58-2.94-10.76-6.63-16.12-10C147.21,275.18,146.58,274.86,145.43,274.21Zm33.79,19.3c-.9.53-1.82.74-2.06,1.26-3.58,7.76-7.6,15.36-10.43,23.39-3.59,10.18-3.85,20.93-2.82,31.63a4.19,4.19,0,0,0,2.36,2.84c6.07,2.19,12.22,4.17,18.39,6.1a58.18,58.18,0,0,0,6.07,1.21c-.91-1.71-1.86-3.4-2.71-5.14a38.34,38.34,0,0,1-2.19-5c-2.07-6.47-4.55-12.87-5.89-19.5a96.64,96.64,0,0,1-1.43-18c-.07-5.69.58-11.38.9-17.06A11.37,11.37,0,0,0,179.22,293.51Zm-23,47.15c.25.68,0-.07-.31-.79-2.89-6.69-6-13.3-8.6-20.09-1.27-3.28-1.68-6.9-2.43-10.38-.53-2.41-.87-4.86-1.49-7.24-.82-3.13-2.42-6.17-2.62-9.33-.23-3.53.74-7.15,1.11-10.73a6.66,6.66,0,0,0-.38-2c-.58.37-1.45.59-1.7,1.11-2,4.22-4.39,8.34-5.69,12.77A90.24,90.24,0,0,0,131,310.79c-.31,3.31.87,6.75,1.32,10.14.22,1.63.24,3.28.43,4.91.13,1,.05,2.45.67,3,2.85,2.6,5.89,5,8.92,7.4,3.32,2.64,6.66,5.26,10.06,7.79,2,1.52,4.22,2.86,6.33,4.28-.83-1.53-1.71-3-2.46-4.59C156,343.32,156.22,342.72,156.22,340.66Zm87.13,17.62c.17.3.34.59.52.88.7-.62,1.91-1.16,2-1.87.46-2.82.58-5.7.84-8.56.21-2.27.78-4.57.62-6.82-.31-4.52-1-9-1.56-13.51-.46-3.45-1-6.89-1.59-10.33a5.87,5.87,0,0,0-.6-1.34,4.32,4.32,0,0,0-.92.83,82.48,82.48,0,0,0-5.16,8.31c-5.13,10.58-10.08,21.24-15.05,31.89a18.3,18.3,0,0,0-.87,3.23,14.5,14.5,0,0,0,3.72.39C231.35,360.43,237.34,359.33,243.35,358.28ZM259,684.42c-.15-7.87-4.12-14.27-9.7-18.94-4.42-3.69-14.53-3.22-16.09,3-1.86,7.42-.64,14.77,2.86,21.61a17,17,0,0,0,2.7,3.16c0-1.19.11-2.39.13-3.58,0-1.77-.41-3.68.12-5.27,1.08-3.2,2-6.57,6.65-6.78,6.79-.3,8.16,4.59,9.91,9.36.47,1.27,1.11,2.48,1.67,3.72.59-1.37,1.25-2.71,1.72-4.12A7.41,7.41,0,0,0,259,684.42Zm37.84,65.31c-.61,1.76-1.12,2.5-.93,2.77,2.67,4,5.37,7.94,8.2,11.8,4.41,6,8.83,12,13.48,17.86.69.87,2.64.73,4,1.06a10.15,10.15,0,0,0-.86-2.78c-3-4.47-6.19-8.83-9.2-13.3-2.18-3.23-3.9-6.81-6.35-9.81C303.05,754.72,300.18,752.72,296.85,749.73ZM238.27,300.48c2.53-1.09,4.33-1.88,6.16-2.63a10.57,10.57,0,0,1,1.59-.4,10.64,10.64,0,0,0-1.27-1.16q-7.63-5-15.3-10a7.18,7.18,0,0,0-1.13-.5,2.56,2.56,0,0,1,0,.92c-.35.87-.8,1.71-1.18,2.57-.78,1.78-2.31,5.09-2.21,5.15C229.28,296.64,233.8,298.55,238.27,300.48ZM272.84,681.8l-2.12.88a16.07,16.07,0,0,0,2.8,3.05c1,.63,2.33.63,3.52.91-.36-1.33-.84-2.64-1.07-4-.47-2.65-1.8-5.69-1-7.93,1.95-5.41-2.38-8.24-3.94-12.17a2,2,0,0,0-1.84-.39,2.31,2.31,0,0,0-.58,2C270,670,271.42,675.91,272.84,681.8Zm36.11-417c3.13-.64,5.91-1.17,8.66-1.86.28-.07.64-1.46.42-1.67-3.56-3.35-15.8-5-19.57-2.56a2.44,2.44,0,0,0,.2,2.07C302.13,262.2,305.68,263.5,309,264.75Zm-210.42-138c0,4.7,0,7.64,0,10.58a4.06,4.06,0,0,0,.5,1.31,5.75,5.75,0,0,0,.87-1.19,11.77,11.77,0,0,1,.77-2.35c2.25-3,4.86-5.87,6.86-9.06,1.51-2.4,2.29-5.24,3.4-7.89-1.89,1.17-3.82,2.27-5.63,3.54C102.77,123.51,100.32,125.44,98.53,126.78ZM82,183.37l.35.11c-1.24,3.13-2.49,6.25-3.7,9.39a4.57,4.57,0,0,0-.39,1.77c.87.39,2.41,1,2.66.73,1.29-1.59,2.78-3.34,3.2-5.25.55-2.43-.19-5.13.23-7.62s1.61-4.78,2.39-7.19c.1-.29-.24-.72-.38-1.09-.32.29-.79.51-.94.87C84.28,177.84,83.17,180.61,82,183.37ZM280,720.49c-.17,2.29-.53,3.26-.24,4a90.85,90.85,0,0,0,4.69,9.74c.35.61,2.31.28,3.53.38,0-.67.32-1.46.07-2-1.33-2.87-2.71-5.71-4.26-8.46C283.27,723.17,282.19,722.52,280,720.49ZM95.58,261.39c-2.33-3.82-4.52-7.38-6.67-11a20.93,20.93,0,0,1-1-2.21c-1.15,1.28-2.35,2.51-3.4,3.86-.17.22.18,1.09.52,1.43,2.69,2.7,5.43,5.36,8.18,8a10.1,10.1,0,0,0,1.64,1.08Z"/><path class="cls-1" d="M153.65,562.08c-.65-.06-1.73.1-1.89-.21-4.32-8.39-8-17.16-13-25.14-4-6.47-9.88-11.74-14.29-18-7.44-10.53-14.68-21.22-21.4-32.21-4.76-7.78-8.46-16.2-12.83-24.23-.47-.86-2.31-.93-3.45-1.5-.39-.19-.54-.86-.91-1.16a20.64,20.64,0,0,0-2-1.32l.14.14c-.65-3.13-1.35-6.26-1.94-9.4a36.59,36.59,0,0,1-.33-3.78c1,.74,2.37,1.26,2.93,2.25,2.85,5,5.37,10.25,8.24,15.27s6.06,10.06,9.23,15c3.42,5.32,6.66,10.8,10.58,15.73,6.86,8.62,14.06,17,21.35,25.26,5.16,5.87,10.24,12,16.19,17,6.76,5.69,14.6,10.09,21.7,15.41,7.35,5.5,15.72,7.7,24.56,7.86a30.11,30.11,0,0,0,13.12-2.57,72.52,72.52,0,0,0,17-10.8c5-4.45,8.63-10.46,13.14-15.53,7.65-8.6,15.5-17,23.32-25.45,2.42-2.61,5-5,7.59-7.52.6-.58,1.28-1.06,1.92-1.58.08,1,.53,2.15.16,2.94-1.46,3.15-3.3,6.12-4.78,9.27-3.19,6.78-5.69,14-9.49,20.37a231.25,231.25,0,0,1-17,25c-5.79,7.38-12.47,14.07-19,20.85-5.25,5.47-12.28,6.92-19.48,7.76-9.05,1-17.51-.64-24.74-6.26-8-6.2-15.59-12.84-23.43-19.2a21.62,21.62,0,0,0-3.91-2c.4,1.15.83,2.29,1.2,3.45.46,1.49.88,3,1.32,4.51Z"/><path class="cls-1" d="M46.69,52.4c6.8,4.34,7.13-3.22,8.07-5.58,2.89-7.22,6.22-15.15,5.7-22.55-.33-4.81-1.18-12.74-8.55-15.21-.92-.31-2.22-.9-2.43-1.62-1.43-4.89-6.68-4-9.17-4.26C29.06,2,13.22,8.53,7.76,21.86,2.79,34,2.25,45,7.7,56.56c1.53,3.24,3.39,6.33,5.16,9.44.21.37,1,.79,1.27.67s1-.92.91-1.27c-1.21-4.65-2.55-9.27-3.79-13.92A16.26,16.26,0,0,1,11,48.59a18,18,0,0,1,1.64,2.28c.59,1.16,1,2.41,1.5,3.61a15.85,15.85,0,0,1,1.09-3.92c1.8-3.1.38-9.11,7-8.07A5.77,5.77,0,0,0,22.94,40c-.48-6.34,2.94-11.08,8.92-11.51,1.08-.07,2.3,1.95,3.46,3-.47.22-.93.64-1.4.65-1.9,0-4.44-.91-5.56,0-1.91,1.54-4,4.13-4.13,6.37-.31,6.38.36,12.8.65,19.21-.44-2.43-.76-4.89-1.35-7.28a26.43,26.43,0,0,0-1.67-4c-1.05,1.6-3,3.2-3,4.79.05,6.56.61,13.12,1.15,19.67C21,82.44,21.83,94,23.16,105.53c1,8.32,2.81,16.53,4,24.82.73,5.28-.21,11.07,1.64,15.85a40.12,40.12,0,0,0,10.1,14.29c1.59,1.48,6.75.15,9.75-1.14C54,157,59.83,154.64,64,150.69c3.72-3.54,5.38-9.22,8-13.9.42-.73,1.73-1.8,1.93-1.67.89.59,2.2,1.63,2.13,2.39-.65,7.13-4.12,13-9.14,17.85-3.37,3.28-6.78,6.86-10.86,9-5.49,2.87-11.64,4.45-18.09,2.83a2.3,2.3,0,0,0-1.88,1.06c-1.52,3.2-2,7.53-4.46,9.53-7.34,6-6.78,15.51-11.29,22.59-1.11,1.73-4,2.25-5.41,3.9a8.51,8.51,0,0,0-2.09,5.63c.58,5.27-1.68,10.49.89,16,1.13,2.43-1.84,6.63-2.57,10.1-.91,4.28-1.43,8.64-2.32,14.29-1-5.23-1.7-9.07-2.37-12.92a5,5,0,0,1,.28-1.58,4.7,4.7,0,0,1,.89.76c.5.72.93,1.5,1.39,2.26.11-1.62.53-3.29.25-4.84-.37-2.12-1.34-4.12-1.8-6.23,0-.19-2.29-5,2-2,.31-1.6,1.12-3.31.8-4.78-.66-3.07-2-6-2.88-9a6.54,6.54,0,0,1,.27-2.43c.6.58,1.23,1.12,1.77,1.75A17.93,17.93,0,0,1,10.64,213a10.51,10.51,0,0,0,.17-2.15,33.89,33.89,0,0,0-.81-4.25c-.79-3.1-1.69-6.16-2.46-9.26-.07-.25.53-1,.7-.93a1.88,1.88,0,0,1,1.12.79c.62,1.1,1,2.3,1.7,3.37a25.24,25.24,0,0,0,2,2.54c.21-1.45.85-3,.53-4.31-.76-3.11-2.17-6.07-2.91-9.18-.22-.92.91-2.15,1.42-3.24a20.88,20.88,0,0,1,1.41,2.23c1.1,2.38,2.09,4.8,3.19,7.17a20,20,0,0,0,1.4,2.29c.41-.38,1.18-.76,1.18-1.14a8.5,8.5,0,0,0-.58-3c-1.4-3.57-3-7.06-4.27-10.67-.27-.8.66-2,1-3,.52.75,1.06,1.49,1.55,2.26.77,1.19,1.42,2.47,2.27,3.6a35.62,35.62,0,0,0,2.65,2.85c.21-1.55,1-3.31.52-4.62-.88-2.5-2.57-4.7-3.73-7.11a15.46,15.46,0,0,1-1.31-4.46c-.1-.7.59-1.5.92-2.26A8.18,8.18,0,0,1,20,172c1.13,1.82,2.05,3.76,3.2,5.55a23.42,23.42,0,0,0,2.43,2.76c.64-2,2.2-4.23,1.72-5.9-.76-2.63-3.4-4.7-4.27-7.33-.74-2.23-.12-4.91-.09-7.39,1.63.92,3.3,1.8,4.87,2.83.34.22.18,1.11.48,1.53.87,1.21,1.84,2.34,2.78,3.5.24-1.93,1.41-4.5.59-5.69-6.45-9.33-7.13-20.14-8.7-30.78-.84-5.68-2.55-11.23-3.3-16.92-1.15-8.66-1.8-17.38-2.66-26.08-.72-7.25-.74-14.26-8.53-19-3.35-2-4.83-8-6-12.56C1.1,50.73.75,44.71.15,38.8-.62,31.09,1.6,24,5.52,17.51A81.44,81.44,0,0,1,15.16,5.42c.94-1,3.52-.38,4.76-1.3C27.36-1.41,40.24-.72,48.71,2.37c5,1.85,5.57,7,10.37,8.64,2.26.78,3.34,6.69,3.86,10.42a65,65,0,0,1,0,13.73,16.47,16.47,0,0,1-2,7.28c-3,4.84-7,9.1-9.53,14.13-1,1.93.9,5.35,1.67,8,1.32,4.63,2.78,9.22,4.18,13.83l.11-.13a28.74,28.74,0,0,1-3-4.75C51.72,66.54,49.24,59.46,46.69,52.4Z"/><path class="cls-1" d="M24.78,57.52c1.76,7.44,3.25,15,5.42,22.3.91,3.08,3.05,5.89,5.07,8.49.6.76,3.07,1,4,.38,1.62-1,4-3.08,3.82-4.36-.87-5.79-2.64-11.44-3.89-17.18C38,61.58,36.9,56,36,50.37c-.7-4.32-1.14-8.69-1.48-13-.08-1,.71-2.17,1.11-3.26.21.93.4,1.87.66,2.79a57.79,57.79,0,0,0,1.95,6.06c.05.13,2.78-.28,2.92-.8,2.27-8.6,5.13-17.37-2.29-25-1-1-3-2.12-4-1.76-6.23,2.1-14.11,1.36-17.42,8.91-2.14,4.89-3.92,10-5.63,15-.45,1.33,0,3-.08,4.43a20.41,20.41,0,0,1-.63,3c-.63-1.06-1.88-2.18-1.79-3.18.78-8.47,2-17.15,7.85-23.57,3-3.27,7.63-5.13,12.42-6.81,6.21-2.17,10.53-.79,14.88,2.06C50.35,19,52,25.28,52,32.07S49.49,45,45.78,50.57c-1.21-1.41-2.17-3.58-3.68-4.09-5.47-1.86-5.53-1.65-3.58,6,.36,1.37.31,2.88.85,4.16.44,1,1.59,1.72,2.22,2.69,1.4,2.14,3.06,4.22,3.9,6.58,1.28,3.57,1.79,7.42,2.93,11,1.46,4.69,3.25,9.27,4.85,13.92a18.78,18.78,0,0,1,.42,2.51c.49,2.48,1,4.95,1.51,7.43-3.23.45-6.44,1-9.68,1.31a39,39,0,0,1-5.28-.21l.14.13c1.27-.66,2.51-1.81,3.81-1.89,2.63-.15,3.47.15,3.07-3.64-.76-7.12-1.27-7.45-6-1.94C38.17,98.1,32.1,96.2,29.2,92A4.72,4.72,0,0,0,27.55,91c-4.32,6.43-1.2-2.36-2.8-1.36C24.3,82.41,23.64,75.22,23.5,68,23.43,64.53,24.32,61,24.78,57.52Z"/><path class="cls-1" d="M183.54,612.66c1,.33,2.38.37,2.82,1,4.81,7.48,9.28,15.19,14.24,22.57,3.76,5.59,8.1,10.79,12.19,16.16l.13-.13a11.86,11.86,0,0,0-3.2-.6,11.7,11.7,0,0,0-4.86,1.15c-1.49.9-2.46,2.64-3.81,3.84a38.16,38.16,0,0,1-3.77,2.6c-.78-3.5-2.43-7.1-2-10.44.26-2.07,4.22-3.44,5.43-5.71.71-1.32-.73-3.79-1.21-5.74-1,.3-2.14.34-2.85.94-2.3,1.93-4.32,4.19-6.66,6.07s-3.46,1.35-5.5-1.44c-4.32-5.91-1.35-9.43,2.49-13.34,2.35-2.39,1.55-9.27-1.26-9.44-1.9-.11-4.08,2.31-5.91,3.86a37.59,37.59,0,0,0-3.81,4.32c-1.85-2.11-4.23-4-5.34-6.43-.66-1.46.11-4.25,1.22-5.7,2.81-3.71,2.74-7.55-1.08-9.29-.64-.29-2.27,1.47-3.39,2.36-1.3,1-3.36,3.27-3.69,3a19.79,19.79,0,0,1-5.54-5.59c-.4-.66,1.87-2.7,2.56-4.27a69.32,69.32,0,0,0,2.43-7.07,8.07,8.07,0,0,0,.11-2,7.66,7.66,0,0,1,1.69,1.3c3.71,5.09,7.15,10.4,11.13,15.26,2.34,2.85,5.49,5,8.36,7.42.4.33,1.23.16,1.87.22l-.74-1.45-1.93-3.63Z"/><path class="cls-1" d="M356.65,422.84c-1.13-.1-2.63-.7-3.35-.2-3.9,2.7-7.63,5.65-11.37,8.58-3,2.34-10.45,1.1-11.23-2.32-.27-1.15,2.42-3,3.81-4.51.63-.67,1.37-1.24,2.06-1.86-.61-.22-1.27-.7-1.84-.61-9.8,1.48-18.74-2.09-28-4.39-2.93-.73-6.33.46-9.52.7a33.11,33.11,0,0,1-3.45-.07,10.85,10.85,0,0,0,2.28-1.68c3.68-4.54,7.9-2.92,12.52-1.7,13.68,3.62,25.49-.78,36.31-9.14,3.52-2.72,7.71-4.57,11.18-7.32,3.14-2.49,6.33-5.31,8.42-8.64,3.26-5.19,5.6-10.95,8.36-16.45a8.11,8.11,0,0,1,1.05-1.32c.15.31.43.62.44.93.19,4.79.36,9.58.48,14.37,0,.17-.73.58-.87.49a3.22,3.22,0,0,1-1.29-1.27,19.09,19.09,0,0,1-.64-2.95c-.62.95-1.16,2-1.87,2.85-8.06,9.94-16.86,19.06-28.91,24.19-6,2.55-12.16,4.67-18.24,7-.36.13-.73.22-1.09.33a7.79,7.79,0,0,0,1.44.67c10.51,2.41,19.8.35,28.08-6.9,1.89-1.65,5.23-1.75,8-2.19.47-.07,2,2.06,1.75,2.72-1.33,3.66-3.05,7.19-4.65,10.77Z"/><path class="cls-1" d="M52.4,130.66c-5.6,2.13-11.21,4.25-16.8,6.43a1.9,1.9,0,0,0-1,1.13,27,27,0,0,0-.3,3.13,28.34,28.34,0,0,1-1.68-3.58c-1.66-5.21,1-7.85,5.57-9.64,5.18-2,10.19-4.52,15.33-6.66,4.6-1.92,9.91,1.38,10.53,6.39.33,2.62,1.93,6.34.77,7.66a125.69,125.69,0,0,1-15,14c-1.46,1.2-4.16,1.46-6.17,1.21-1.78-.22-3.4-1.74-5.08-2.68,1.46,0,2.93-.1,4.37,0,9.52.91,9.9-6.83,12.4-12.77C56.71,132.09,56.62,130.63,52.4,130.66Z"/><path class="cls-1" d="M132.23,546.87c2.29,2.46,4.91,4.69,6.8,7.42,2.64,3.85,4.58,8.17,7.12,12.1,4.84,7.49,9.69,15,15,22.14,1.56,2.11,1.56,3-.26,4.33-1,.77-2.42,1.35-2.94,2.38-2.33,4.53-4.9,2.33-7,.19-2.6-2.58-2.68-5.78.49-7.84,4.39-2.85,1.14-6,.87-9,0-.1-1-.33-1.25-.14-.52.46-.74,1.24-1.25,1.7-1.86,1.68-3.66,4.37-5.71,4.59s-3.71-8.29-1.37-10c6.58-4.86-1.36-7.83-1-11.74-.58.11-1.37,0-1.71.37a21.51,21.51,0,0,0-2,2.78l-3.1,4.53c-1.27-3-3.29-6-3.55-9.09-.17-2,2.39-4.16,3.4-6.4a5.16,5.16,0,0,0-.06-3.4,44.78,44.78,0,0,0-2.28-5Z"/><path class="cls-1" d="M69,111.26c-.89-.37-2.38-.54-2.57-1.13-1.75-5.48-3.31-11-4.87-16.58-1.42-5.07-2.79-10.16-4.17-15.24a1.2,1.2,0,0,0-.11.12c1.41,2.49,2.87,4.95,4.21,7.48a6.72,6.72,0,0,1,.32,2c.39-.55.75-1.14,1.18-1.67.92-1.11,1.69-2.49,2.87-3.2a22.93,22.93,0,0,1,4.83-1.66c.13,1.92.95,4.17.23,5.69-1.19,2.49-3.6,4.37-5.06,6.77-.76,1.24-.74,3-.79,4.58,0,.54.79,1.1,1.23,1.65.43-.52.85-1.06,1.3-1.57,1.26-1.4,2.89-4.13,3.71-3.91,2,.54,3.55,2.46,5.22,3.9a6.07,6.07,0,0,1-1.12,1.55c-3.27,3.09-7,5.91-6.46,11.2Z"/><path class="cls-1" d="M35.62,387.37c.28-1.18,1.44-3.56,1.17-5.77-.21-1.74-2.18-3.27-3.36-4.89-.53,1.06-1.13,2.09-1.58,3.18-.58,1.39-1,2.83-1.56,4.26-.68-1.43-1.92-2.85-1.93-4.28a83,83,0,0,1,.94-10.3c0-.1,1.37-.33,1.59-.07,1.79,2.11,3.34,4.45,5.23,6.47,1,1.06,1.43,4.41,4.34,1.64.32-.31,3.21,2.08,4.92,3.21,4.21,2.76,8.3,5.77,12.72,8.15,1.67.9,4.12.39,6.21.4a19.11,19.11,0,0,0,3-.43c-.12.64,0,1.5-.4,1.86-.84.79-2.19,2.08-2.88,1.84-5-1.72-10.27-3.09-14.62-5.89-5.68-3.67-6.57-3.92-9.75,1.79-.61,1.11-2.07,1.76-3.14,2.62C36.31,390.35,36.12,389.55,35.62,387.37Z"/><path class="cls-1" d="M83.94,458.31c1.79,3.59-1.2,11.54-5,13.23-.22.1-.51.35-.65.29-1.65-.7-2.39-9.43-1.07-10.72s2.92-2.81,3.58-4.53c.32-.85-1.21-2.4-1.91-3.63-1.41,1.37-2.89,2.68-4.22,4.13a32.08,32.08,0,0,0-2.3,3.17c-.57-1.15-1.24-2.26-1.71-3.45-2-4.94.51-8.09,4.3-10.82.84-.61,1.25-1.83,1.85-2.75,0,0,0,.07,0,.07,2,4.86,3.9,9.73,5.93,14.57.14.33.9.4,1.37.58Z"/><path class="cls-1" d="M97,486.87c-1.43,1.31-2.89,2.6-4.29,3.95-1,1-2,2.09-3,3.15-.81-1.64-2-3.2-2.31-4.93a6.91,6.91,0,0,1,1-4.28c.85-1.48,2.87-2.48,3.28-4s-.45-3.5-.76-5.28c-.85.86-1.71,1.7-2.53,2.58-.66.72-1.21,1.52-1.87,2.23-.83.88-1.71,1.71-2.57,2.56a24.47,24.47,0,0,1-3-4.41c-.22-.51,1.06-1.71,1.73-2.54,1.92-2.38,3.9-4.72,5.79-7.13.11-.13-.3-.77-.57-1.08-.88-1-1.81-2-2.72-3,.28-.15.7-.49.84-.4,1.26.82,3,1.45,3.59,2.63a113,113,0,0,1,4.19,10.67c1.11,3.05,2.09,6.16,3.12,9.25Z"/><path class="cls-1" d="M59.23,413.62c-3.9-1.74-4.75,2-6.71,3.73a24.78,24.78,0,0,1-2.22,1.58,8,8,0,0,1-.95-2.38c-.18-3.68-1.88-7.47,1.42-10.93.58-.61-1.16-3.44-1.83-5.24a25.46,25.46,0,0,0-2.79,2.48,42.84,42.84,0,0,0-2.61,3.73c-.42-1.61-.42-3.51-1.33-4.75-3.33-4.57,3.53-7.23,1.9-11.36.39-.07,1.06-.29,1.13-.16q7,11.67,13.89,23.41Z"/><path class="cls-1" d="M246,750.22c-1.18-3.18-2.64-6.29-3.5-9.55-1.92-7.37-5.14-14.88-4.83-22.2s-4.69-8.16-8.15-11.1c-9.06-7.71-12.65-17.55-12.23-29.14a3.93,3.93,0,0,1,.36-1.1c.4.22,1.12.38,1.17.67a22.2,22.2,0,0,1,.83,5.88c-.76,9.22,6.89,20.85,14.22,25,.68.39,2.26-.81,3.42-1.28l-.14.09a41.07,41.07,0,0,1,1.8,5.5c1.08,6,1.56,12.12,3.06,18,1.62,6.4,5,12.39,3.87,19.33Z"/><path class="cls-1" d="M265.22,810.51c-2-3.31-4.24-6.49-5.88-10a67.88,67.88,0,0,1-3.57-10.31c-.85-3-1.21-6.13-2-9.14-2.37-8.75-4.9-17.45-7.27-26.2a28.76,28.76,0,0,1-.49-4.67l-.12.12c1.45,3.67,2.55,7.53,4.42,11,5.3,9.77,4.09,21.49,10.17,31.25,3.14,5,3.2,12,4.65,18.07Z"/><path class="cls-1" d="M76.79,125.37c-4.05-1-4.8.29-2.77,3.78.18.31-.42,1.07-.66,1.62-.59-.26-1.63-.44-1.69-.79-1-6.09-2-12.21-2.88-18.32,0-.12.12-.26.19-.39l0,0c2.91,5.59,5.52.68,6.17-.94,1.57-3.85,3.37-3.62,6.22-1.89,4,2.44-.34,4.1-.81,5.85-.52,2-2.8,3.5-4.43,5.09-2.38,2.33-2.38,4.32.58,6.08Z"/><path class="cls-1" d="M132.35,546.75c-4-2.75-4-2.73-7.7,2.13a18.72,18.72,0,0,1-2.29,2.15,20.12,20.12,0,0,0-1.57-2.85c-3.41-4.3-1-7.64,1.63-11,.54-.7.67-1.71,1.18-2.43a3.6,3.6,0,0,1,1.47-.78c2.43,4.29,4.8,8.61,7.16,12.93Z"/><path class="cls-1" d="M68.05,430.29c2.22,3,4.49,5.95,6.62,9a37.17,37.17,0,0,1,2.1,4s.06-.08.07-.08c-.25.12-.69.41-.73.36-4.68-5.37-6.32.85-9.25,2.31-.63.32-2.38-.15-2.58-.67-.61-1.56-.55-3.36-1-5-1.15-3.83,1.31-5.66,3.83-7.62.58-.46.68-1.54,1-2.33C68.08,430.28,68.05,430.29,68.05,430.29Z"/><path class="cls-1" d="M115.2,516.66c-3.34-4-5-2.17-6.39,1.68-.48,1.32-1.79,2.33-2.71,3.49a24.38,24.38,0,0,1-2.87-3.79c-1.47-3-3.18-6.34,1.25-8.44s.33-5.25,1.17-7.76l-.09.08c2.53,3.35,5.17,6.63,7.55,10.09a24.41,24.41,0,0,1,2,4.75Z"/><path class="cls-1" d="M105.65,501.84c-4.08-2-5.24,1.81-7.35,3.72-.68.6-1.41,1.14-2.12,1.7a8.65,8.65,0,0,0-.61-2.34C92.48,500,93.7,495.65,97,491.29c.7-.93,0-2.91,0-4.42l0,0c2.88,5,5.76,10,8.65,15.05Z"/><path class="cls-1" d="M115.1,516.76c2.78,4.31,5.59,8.6,8.31,12.94.25.39,0,1.1,0,1.67-.5-.34-1.25-.57-1.47-1-3-6.43-3.61.59-5.2,1.09s-2.7,2.46-4,3.78c-.48-2.65-2.17-5.92-1.2-7.82,1.79-3.47,4-6.55,3.72-10.71Z"/><path class="cls-1" d="M59.13,413.73q4.45,8.28,8.93,16.56s0,0,0,0a43.5,43.5,0,0,0-3.24-4c-.16-.16-1.59.7-2.22,1.31-1.38,1.32-2.61,2.79-3.91,4.19-.63-3-2.75-7.83-1.61-8.81,3.48-3,3.24-5.83,2.12-9.35Z"/><path class="cls-1" d="M12.18,261.6c.6,0,1.69-.07,1.72.08,2.14,9.16,4.19,18.35,6.22,27.54a9.91,9.91,0,0,1,0,2c-.72-.34-1.9-.51-2.09-1-3.26-9.29-6.7-18.57-5.82-28.7Z"/><path class="cls-1" d="M183.64,612.55c-3.21-4.06-6.47-8.09-9.63-12.2-2.5-3.24-4.86-6.58-7.32-9.84-.58-.78-1.55-1.33-1.93-2.17a37,37,0,0,1-1.47-4.58,18.79,18.79,0,0,1,2.5,2.37q9.06,12.58,18,25.27c.17.24-.14.82-.23,1.25Z"/><path class="cls-1" d="M351.62,219.12c1.08,3.07,2.47,6.07,3.11,9.23.3,1.44-.87,3.18-1.38,4.79l.13.08c-.31-7.89-4.17-12.66-12-15a8.74,8.74,0,0,1-2.35-1.72c.82-.26,1.81-.94,2.44-.71,2.35.89,4.54,2.18,6.87,3.1a12.55,12.55,0,0,0,3.28.39Z"/><path class="cls-1" d="M203.74,499.57a17.48,17.48,0,0,1-.15,2.56c-.7,3.21-1.78,6.38-2.12,9.63-.5,4.83-.4,9.73-.74,14.58a62.61,62.61,0,0,1-1.15,6.75,2.18,2.18,0,0,1-.35.6c-.18-.34-.56-.71-.53-1q1.83-15.93,3.77-31.85C202.51,500.48,203.06,500.22,203.74,499.57Z"/><path class="cls-1" d="M206.2,458c-.44-.64-1.3-1.3-1.26-1.9.76-10,1.63-19.91,2.48-29.86.05-.52.16-1,.25-1.57.22.32.64.65.63,1q-.39,9.18-.91,18.37c0,.53-.73,1.16-.59,1.53,1.66,4.28.87,8.4-.65,12.49Z"/><path class="cls-1" d="M335.8,473.56c1.24-5.54,2.41-10.8,3.6-16.06a17.26,17.26,0,0,1,.56-1.72c.38.59,1.13,1.22,1.08,1.77-.48,5.89-1,11.78-1.73,17.66-.08.71-1,1.33-1.57,2Z"/><path class="cls-1" d="M20.77,360.35c.81-2.07,1.61-4.11,2.42-6.14.74,1.66,1.6,3.27,2.2,5,.5,1.42,1.3,3.13.91,4.39-.55,1.78-2.07,3.26-3.18,4.87C22.36,365.85,21.61,363.25,20.77,360.35Z"/><path class="cls-1" d="M26.7,223.73c1.08,1.73,2.06,2.76,2.44,4a47.82,47.82,0,0,1,2.19,9c.51,4.71.52,9.48.67,14.22,0,.47-.4.94-.62,1.42a10.3,10.3,0,0,1-.44-1.4q-2.14-12.12-4.23-24.24A21.54,21.54,0,0,1,26.7,223.73Z"/><path class="cls-1" d="M208.35,413c.27,2.94.59,5.81.78,8.7a5.17,5.17,0,0,1-.66,1.81c-.31-.22-.87-.42-.9-.68-.28-2.57-.6-5.14-.69-7.72-.17-5.18-.23-10.35-.27-15.53a8.71,8.71,0,0,1,.52-2.13c.41.72,1.14,1.44,1.16,2.18C208.4,404,208.35,408.49,208.35,413Z"/><path class="cls-1" d="M16.1,318.75c0,.21-.12,1.07-.21,1.93-1.09-.47-2.58-.64-3.19-1.46-1.86-2.51-.07-10.07,2.55-11.54a2.85,2.85,0,0,1,.81,1.29C16.13,312,16.1,315.06,16.1,318.75Z"/><path class="cls-1" d="M16.24,346.31,20,341.06c.55,1.84,1.8,3.8,1.49,5.47-.45,2.52-2,4.83-3.08,7.23C17.75,351.59,17.13,349.42,16.24,346.31Z"/><path class="cls-1" d="M153.56,562.18c2.79,5.22,5.62,10.43,8.35,15.69.29.55,0,1.4,0,2.12a8.17,8.17,0,0,1-1.49-1.51c-3-5.16-7.18-9.82-6.74-16.39Z"/><path class="cls-1" d="M12.92,330.5c.9-2,2.08-4.63,3.25-7.26.55,2.42,1.72,4.92,1.44,7.23-.23,1.78-2.29,3.34-3.53,5Z"/><path class="cls-1" d="M12.24,261.53l-.78-2a10,10,0,0,1-.63,1.66c-.46.76-1,1.45-1.56,2.17-.65-.79-1.61-1.5-1.86-2.4a7.61,7.61,0,0,1,0-3.85c.15-.55,1.47-.8,2.28-1.13,0,0,.22.63.42.69,2.73.88,2.74.87,2.12,4.87C12.18,261.6,12.24,261.53,12.24,261.53Z"/><path class="cls-1" d="M14.34,231.15c.06-.16.29-.84.52-1.52a8.84,8.84,0,0,1,1.19,2.16q1.78,8,3.41,16a4.78,4.78,0,0,1-.23,1.64c-.72-.67-1.86-1.22-2.08-2-.71-2.6-1.13-5.29-1.58-7.95S14.8,234.29,14.34,231.15Z"/><path class="cls-1" d="M10.34,297.35c-.71-3.76-1.6-7.5-2-11.3-.12-1.19,1.07-2.51,1.66-3.78a16.53,16.53,0,0,1,.82,3.44c.1,4,0,8,0,12Z"/><path class="cls-1" d="M206.15,458c-.26,3.93-.62,7.85-.75,11.77-.07,2.35.27,4.71.31,7.07a7.62,7.62,0,0,1-.6,2.11c-.38-.69-1.15-1.42-1.08-2.07.64-6.3,1.42-12.59,2.16-18.9Z"/><path class="cls-1" d="M30.07,315.3c-2.6-4.88-5.22-9.74-7.76-14.65-.21-.4.14-1.08.23-1.63.58.33,1.51.52,1.7,1,2,5.08,3.85,10.22,5.74,15.34Z"/><path class="cls-1" d="M14.5,304.05l-1.73,1.87a6.89,6.89,0,0,1-1-2.33c-.11-3.14,0-6.28,0-9.42,0-.25.22-.5.33-.74a5,5,0,0,1,.66,1.28C13.31,297.59,13.83,300.48,14.5,304.05Z"/><path class="cls-1" d="M40.24,101.9c0,.65.22,1.81,0,1.87-3.62,1.27-7.28,2.42-10.94,3.58-.49.16-1,.25-1.49.38.29-.45.49-1.15.9-1.31,3.86-1.51,7.76-2.93,11.64-4.38Z"/><path class="cls-1" d="M30.33,202.59c0,4.26,0,6.87,0,9.47a2.73,2.73,0,0,1-.3.87c-.27-.26-.77-.52-.78-.79q0-8.2,0-16.4c0-.28.49-.56.75-.83.24.4.71.81.69,1.2C30.61,198.82,30.4,201.52,30.33,202.59Z"/><path class="cls-1" d="M234.3,177.21c.2,2.08-5.71,6.16-9.94,5-4.4-1.16-9.33-1.32-13.12-3.49-5.45-3.11-10-7.71-15.07-11.55a50.24,50.24,0,0,0-5.37-3.14c-.48-.28-1.16-.5-1.38-.93-3.07-6.09-6.32-12.11-8.87-18.41-.39-1,2.34-4.44,4-4.73,5.22-.93,10.73-2.22,15.25,2.66,1.25,1.34,4,1.19,5.83,2.1,3,1.49,6.23,2.9,8.74,5.06,4.64,4,8.44,9,13.32,12.65C232.32,165.91,233.94,170.14,234.3,177.21Z"/><path class="cls-1" d="M329.15,204.36c-2.25.34-5.15,1.38-7.88,1-3.27-.43-7-1.27-9.4-3.32-3.15-2.75-.06-5.64,2.23-7.19,5-3.41,9.52-8.42,16.89-6.39,3.22.89,6.88.11,10.16.86,4.15,1,3.55,4.2,2.27,7.16C341.53,200.85,334.62,204.75,329.15,204.36Z"/><path class="cls-1" d="M116.57,192.12c-.13-8.33,3.36-10.11,9.58-12.7,4.54-1.89,9-4.22,13.76-5.28,3.47-.77,7.32.24,11,.43,6,.32,12.14-.06,17.93,1.2,3.47.75,8.75-.15,10,5.36a16.83,16.83,0,0,0,.63,1.76c-.64,0-1.39.19-1.89-.08-2.62-1.37-5-3.55-7.78-4.15a112.61,112.61,0,0,0-15.38-1.77c-4.16-.32-8.5-1-12.49-.22A45.51,45.51,0,0,0,128,182c-6.17,3.69-8.12,14.27-4.59,20.63,1.54,2.78,3.32,4.52,6.54,2,.41-.31,1.3,0,2,0a11.19,11.19,0,0,1-1.29,1.1c-4.73,3-12.14-.84-13.1-6.85C117.1,196.68,116.86,194.39,116.57,192.12Z"/><path class="cls-1" d="M105.29,184.26c.55,3.6,1.34,7.19,1.57,10.81a37.64,37.64,0,0,1-.77,7.43c-.47,3.38-1.26,6.74-1.49,10.14-.36,5.21,0,10.49-.69,15.64-.28,2-2.69,3.65-4.14,5.47-1.13-1.19-3-2.25-3.25-3.59a114.94,114.94,0,0,1-1.26-13.77,26.48,26.48,0,0,1,3.95-.42,25.38,25.38,0,0,1,3.12.32c.08-.94.16-1.87.23-2.81.12-1.93.29-3.87.34-5.8.2-8.19.33-16.38.57-24.57a9.33,9.33,0,0,1,.92-2.62l2.13,3.37Z"/><path class="cls-1" d="M294.44,818.44c-9.88-.07-15.79-4.63-18.05-12.27-.5-1.7-2.51-2.9-3.33-4.56-.64-1.29-.52-3-.73-4.45,1.24-.15,2.49-.27,3.73-.46,5.36-.82,10.87-1.14,16-2.67,4.22-1.25,8-4,12-6a1.59,1.59,0,0,1,1.45.52c1.74,2.77,3.39,5.61,5,8.44.13.22,0,.61.08.86,1,2.07,3.5,5.08,2.87,6a43.61,43.61,0,0,1-9.59,10.66C300.92,816.83,296.74,817.56,294.44,818.44ZM290,816.26c10.39-.33,14.18-7.06,18.73-12.56,3.24-3.92-1.75-6-2.68-9.06-.52.2-1,.42-1.56.6-6.23,2.21-12.44,4.44-18.7,6.57a19.24,19.24,0,0,1-3.75.47c.54,1.44,1,2.91,1.63,4.3a32.68,32.68,0,0,0,2.6,4.85C287.71,813.52,289.37,815.46,290,816.26Z"/><path class="cls-1" d="M284.55,315.55q-2.7,8.38-5.43,16.78a7.24,7.24,0,0,1-.87,1.45c-.79,1.26-1.58,2.53-2.38,3.79a27.85,27.85,0,0,1,.9-5.29c2-5.4,4.23-10.72,6.4-16.06a2,2,0,0,1,.78-.89c.13-.08.49.21.75.33Z"/></g></g></svg>